<svg width="160" height="48" viewBox="0 0 160 48" fill="none" xmlns="http://www.w3.org/2000/svg">
<g clip-path="url(#clip0_1362_357)">
<path d="M154.073 47.4081H5.92694C2.66749 47.4081 0 44.7406 0 41.4811V5.92694C0 2.66749 2.66749 0 5.92694 0H154.076C157.335 0 160.002 2.66749 160.002 5.92694V41.4836C160.002 44.743 157.335 47.4105 154.076 47.4105L154.073 47.4081Z" fill="#040000"/>
<path d="M154.073 0H5.92694C2.66749 0 0 2.66749 0 5.92694V41.4836C0 44.743 2.66749 47.4105 5.92694 47.4105H154.076C157.335 47.4105 160.002 44.743 160.002 41.4836V5.92694C160 2.66749 157.333 0 154.073 0ZM154.073 0.948607C156.817 0.948607 159.051 3.18266 159.051 5.92694V41.4836C159.051 44.2279 156.817 46.4619 154.073 46.4619H5.92694C3.18266 46.4619 0.948607 44.2279 0.948607 41.4836V5.92694C0.948607 3.18019 3.18019 0.948607 5.92694 0.948607H154.076" fill="#AEACA8"/>
<path d="M53.1616 32.857C53.0873 32.4508 52.8867 31.8044 52.7059 31.3214L53.3894 31.1406C53.5802 31.6236 53.7882 32.2403 53.8823 32.6465L53.1616 32.8546V32.857ZM51.787 38.3258C51.6557 37.2459 51.2569 35.5864 50.8978 34.3456L51.5987 34.1747C51.9702 35.4453 52.3665 37.0552 52.5374 38.145L51.7894 38.3258H51.787ZM57.1987 33.662H49.5901V32.971H57.1987V33.662ZM57.5777 38.732V39.4329H49.1814V38.732H53.7659C54.2786 37.5183 54.8656 35.5567 55.1678 34.1747L55.9653 34.3258C55.5764 35.7375 55.0093 37.5381 54.5238 38.732H57.5752H57.5777Z" fill="white"/>
<path d="M53.1616 32.857C53.0873 32.4508 52.8867 31.8044 52.7059 31.3214L53.3894 31.1406C53.5802 31.6236 53.7882 32.2403 53.8823 32.6465L53.1616 32.8546V32.857ZM51.787 38.3258C51.6557 37.2459 51.2569 35.5864 50.8978 34.3456L51.5987 34.1747C51.9702 35.4453 52.3665 37.0552 52.5374 38.145L51.7894 38.3258H51.787ZM57.1987 33.662H49.5901V32.971H57.1987V33.662ZM57.5777 38.732V39.4329H49.1814V38.732H53.7659C54.2786 37.5183 54.8656 35.5567 55.1678 34.1747L55.9653 34.3258C55.5764 35.7375 55.0093 37.5381 54.5238 38.732H57.5752H57.5777Z" stroke="white" stroke-width="0.237771" stroke-miterlimit="10"/>
<path d="M66.9473 37.159C66.9473 37.5553 66.8606 37.7559 66.6055 37.8699C66.3504 37.9937 65.9244 38.0011 65.2309 37.9937C65.2012 37.803 65.1269 37.5206 65.0229 37.32C65.5157 37.3398 65.9516 37.3398 66.0755 37.3299C66.2068 37.3299 66.2538 37.2928 66.2538 37.159V32.4011H64.5374V39.8414H63.8464V31.7398H66.9448V37.1615L66.9473 37.159ZM62.286 35.4922V34.1844H60.0693V35.4922H62.286ZM60.0693 32.3169V33.5479H62.286V32.3169H60.0693ZM61.917 36.6092C62.3999 37.377 62.9696 38.3999 63.2346 39.0265L62.6006 39.3782C62.4965 39.1231 62.3455 38.7813 62.1647 38.4321C59.777 39.2742 59.465 39.4079 59.2643 39.559C59.2173 39.3609 59.0835 39.0191 58.9696 38.8383C59.1306 38.7615 59.3684 38.6005 59.3684 38.2414V31.6829H62.9795V36.1262H60.0718V38.4469L61.8724 37.86C61.6941 37.5281 61.4934 37.1863 61.3225 36.894L61.9195 36.6092H61.917Z" fill="white"/>
<path d="M66.9473 37.159C66.9473 37.5553 66.8606 37.7559 66.6055 37.8699C66.3504 37.9937 65.9244 38.0011 65.2309 37.9937C65.2012 37.803 65.1269 37.5206 65.0229 37.32C65.5157 37.3398 65.9516 37.3398 66.0755 37.3299C66.2068 37.3299 66.2538 37.2928 66.2538 37.159V32.4011H64.5374V39.8414H63.8464V31.7398H66.9448V37.1615L66.9473 37.159ZM62.286 35.4922V34.1844H60.0693V35.4922H62.286ZM60.0693 32.3169V33.5479H62.286V32.3169H60.0693ZM61.917 36.6092C62.3999 37.377 62.9696 38.3999 63.2346 39.0265L62.6006 39.3782C62.4965 39.1231 62.3455 38.7813 62.1647 38.4321C59.777 39.2742 59.465 39.4079 59.2643 39.559C59.2173 39.3609 59.0835 39.0191 58.9696 38.8383C59.1306 38.7615 59.3684 38.6005 59.3684 38.2414V31.6829H62.9795V36.1262H60.0718V38.4469L61.8724 37.86C61.6941 37.5281 61.4934 37.1863 61.3225 36.894L61.9195 36.6092H61.917Z" stroke="white" stroke-width="0.237771" stroke-miterlimit="10"/>
<path d="M72.9116 32.582V34.2687L73.0355 34.1275C74.1624 34.6674 75.651 35.5195 76.399 36.0891L75.9061 36.7257C75.2621 36.1956 73.9915 35.4179 72.9116 34.8408V39.8241H72.1637V32.5845H68.5426V31.8835H76.9116V32.5845H72.9116V32.582Z" fill="white"/>
<path d="M72.9116 32.582V34.2687L73.0355 34.1275C74.1624 34.6674 75.651 35.5195 76.399 36.0891L75.9061 36.7257C75.2621 36.1956 73.9915 35.4179 72.9116 34.8408V39.8241H72.1637V32.5845H68.5426V31.8835H76.9116V32.5845H72.9116V32.582Z" stroke="white" stroke-width="0.237771" stroke-miterlimit="10"/>
<path d="M85.8605 32.9807C85.5955 32.6117 85.0357 32.042 84.5528 31.6532L85.0555 31.3114C85.5385 31.6804 86.1181 32.2204 86.3732 32.5894L85.8605 32.9782V32.9807ZM82.128 36.8742H80.9243V37.4142H82.128V36.8742ZM82.128 35.9454H80.9243V36.4755H82.128V35.9454ZM79.2103 37.4142H80.3769V36.8742H79.2103V37.4142ZM79.2103 36.4755H80.3769V35.9454H79.2103V36.4755ZM86.2122 34.5807C85.8332 35.7473 85.3131 36.8371 84.6493 37.7659C84.9441 38.6476 85.323 39.1504 85.7664 39.1504C86.0141 39.1504 86.128 38.6947 86.185 37.5306C86.3261 37.6817 86.5738 37.8327 86.7521 37.8897C86.6382 39.3857 86.393 39.8315 85.6995 39.8315C85.006 39.8315 84.5255 39.3015 84.1565 38.4098C83.6809 38.9597 83.1608 39.4426 82.5738 39.8315C82.4599 39.6705 82.2419 39.4526 82.071 39.3114C82.2815 39.1875 82.4797 39.0464 82.6679 38.8953H80.9614V39.8414H80.3373V38.8953H78.3088V38.3454H80.3373V37.8327H78.6778V35.5293H80.3274V35.0166H78.45V34.4866H80.3274V33.8897H80.9713V34.4866H82.876V35.0166H80.9713V35.5293H82.6753V37.8327H80.9589V38.3454H82.9106V38.6872C83.2623 38.3851 83.5942 38.0433 83.8865 37.6643C83.5942 36.6513 83.4134 35.3337 83.3094 33.8649H78.1924V33.268H80.3249V32.5101H78.6184V31.943H80.3249V31.1851H80.9961V31.943H82.7026V32.5101H80.9961V33.268H83.2797C83.2425 32.6043 83.2227 31.9132 83.2227 31.2024H83.9336C83.9237 31.9231 83.9435 32.6142 83.9707 33.268H86.6258V33.8649H84.0004C84.0846 35.0414 84.2184 36.0817 84.4091 36.9262C84.902 36.1485 85.2983 35.2866 85.5757 34.3776L86.2097 34.5857L86.2122 34.5807Z" fill="white"/>
<path d="M85.8605 32.9807C85.5955 32.6117 85.0357 32.042 84.5528 31.6532L85.0555 31.3114C85.5385 31.6804 86.1181 32.2204 86.3732 32.5894L85.8605 32.9782V32.9807ZM82.128 36.8742H80.9243V37.4142H82.128V36.8742ZM82.128 35.9454H80.9243V36.4755H82.128V35.9454ZM79.2103 37.4142H80.3769V36.8742H79.2103V37.4142ZM79.2103 36.4755H80.3769V35.9454H79.2103V36.4755ZM86.2122 34.5807C85.8332 35.7473 85.3131 36.8371 84.6493 37.7659C84.9441 38.6476 85.323 39.1504 85.7664 39.1504C86.0141 39.1504 86.128 38.6947 86.185 37.5306C86.3261 37.6817 86.5738 37.8327 86.7521 37.8897C86.6382 39.3857 86.393 39.8315 85.6995 39.8315C85.006 39.8315 84.5255 39.3015 84.1565 38.4098C83.6809 38.9597 83.1608 39.4426 82.5738 39.8315C82.4599 39.6705 82.2419 39.4526 82.071 39.3114C82.2815 39.1875 82.4797 39.0464 82.6679 38.8953H80.9614V39.8414H80.3373V38.8953H78.3088V38.3454H80.3373V37.8327H78.6778V35.5293H80.3274V35.0166H78.45V34.4866H80.3274V33.8897H80.9713V34.4866H82.876V35.0166H80.9713V35.5293H82.6753V37.8327H80.9589V38.3454H82.9106V38.6872C83.2623 38.3851 83.5942 38.0433 83.8865 37.6643C83.5942 36.6513 83.4134 35.3337 83.3094 33.8649H78.1924V33.268H80.3249V32.5101H78.6184V31.943H80.3249V31.1851H80.9961V31.943H82.7026V32.5101H80.9961V33.268H83.2797C83.2425 32.6043 83.2227 31.9132 83.2227 31.2024H83.9336C83.9237 31.9231 83.9435 32.6142 83.9707 33.268H86.6258V33.8649H84.0004C84.0846 35.0414 84.2184 36.0817 84.4091 36.9262C84.902 36.1485 85.2983 35.2866 85.5757 34.3776L86.2097 34.5857L86.2122 34.5807Z" stroke="white" stroke-width="0.237771" stroke-miterlimit="10"/>
<path d="M126.739 23.7029H128.951V8.88679H126.739V23.7029ZM146.657 14.2243L144.121 20.649H144.044L141.414 14.2243H139.031L142.977 23.2026L140.728 28.1958H143.034L149.114 14.2243H146.655H146.657ZM134.115 22.0212C133.389 22.0212 132.379 21.6595 132.379 20.763C132.379 19.6187 133.637 19.1803 134.724 19.1803C135.695 19.1803 136.153 19.3908 136.745 19.6756C136.574 21.0478 135.393 22.0212 134.115 22.0212ZM134.382 13.8998C132.782 13.8998 131.123 14.6057 130.437 16.1685L132.401 16.9883C132.82 16.1685 133.602 15.901 134.422 15.901C135.566 15.901 136.728 16.5871 136.748 17.8082V17.9617C136.346 17.7338 135.49 17.3896 134.442 17.3896C132.327 17.3896 130.172 18.5512 130.172 20.7258C130.172 22.7072 131.908 23.9852 133.85 23.9852C135.338 23.9852 136.156 23.319 136.671 22.5363H136.748V23.6806H138.883V18.0013C138.883 15.371 136.921 13.9023 134.385 13.9023L134.382 13.8998ZM120.716 16.0273H117.57V10.9475H120.716C122.37 10.9475 123.309 12.3171 123.309 13.4862C123.309 14.6552 122.37 16.0249 120.716 16.0249V16.0273ZM120.659 8.88679H115.358V23.7029H117.57V18.0905H120.659C123.111 18.0905 125.518 16.3171 125.518 13.4886C125.518 10.6602 123.108 8.88679 120.659 8.88679ZM91.762 22.0236C90.2338 22.0236 88.9558 20.7431 88.9558 18.9871C88.9558 17.2311 90.2363 15.9134 91.762 15.9134C93.2877 15.9134 94.4542 17.2112 94.4542 18.9871C94.4542 20.763 93.2703 22.0236 91.762 22.0236ZM94.3007 15.054H94.2239C93.7285 14.462 92.7725 13.927 91.5688 13.927C89.0474 13.927 86.7391 16.1413 86.7391 18.9871C86.7391 21.8329 89.0499 24.0075 91.5688 24.0075C92.7725 24.0075 93.7261 23.4725 94.2239 22.8608H94.3007V23.5865C94.3007 25.5159 93.2703 26.5462 91.6084 26.5462C90.2536 26.5462 89.4115 25.5729 89.0697 24.7506L87.1403 25.553C87.6951 26.8905 89.1638 28.5326 91.6084 28.5326C94.2041 28.5326 96.401 27.0044 96.401 23.2818V14.2317H94.3007V15.054ZM97.9292 23.7029H100.143V8.88679H97.9292V23.7029ZM103.41 18.8137C103.353 16.867 104.919 15.8738 106.046 15.8738C106.925 15.8738 107.668 16.3122 107.916 16.9438L103.41 18.8137ZM110.283 17.1345C109.862 16.0075 108.584 13.927 105.969 13.927C103.353 13.927 101.213 15.9704 101.213 18.9673C101.213 21.7933 103.351 24.0075 106.216 24.0075C108.527 24.0075 109.862 22.5958 110.417 21.7735L108.698 20.6267C108.126 21.4664 107.343 22.0212 106.216 22.0212C105.09 22.0212 104.287 21.506 103.772 20.493L110.511 17.7041L110.283 17.132V17.1345ZM56.5843 15.4725V17.61H61.7013C61.5477 18.8137 61.1465 19.6905 60.5372 20.3023C59.7917 21.0478 58.6276 21.8676 56.5843 21.8676C53.4338 21.8676 50.9694 19.3289 50.9694 16.1784C50.9694 13.028 53.4313 10.4893 56.5843 10.4893C58.2833 10.4893 59.5242 11.158 60.4406 12.0174L61.949 10.5091C60.6685 9.28803 58.9694 8.35181 56.5843 8.35181C52.2697 8.35181 48.6412 11.8639 48.6412 16.1809C48.6412 20.4979 52.2697 24.01 56.5843 24.01C58.9124 24.01 60.671 23.2472 62.0456 21.8156C63.4573 20.4038 63.8982 18.4174 63.8982 16.8125C63.8982 16.3171 63.861 15.8565 63.7843 15.475H56.5867L56.5843 15.4725ZM69.7137 22.0212C68.1855 22.0212 66.8679 20.7605 66.8679 18.9673C66.8679 17.1741 68.1855 15.9134 69.7137 15.9134C71.2419 15.9134 72.5595 17.1543 72.5595 18.9673C72.5595 20.7803 71.2419 22.0212 69.7137 22.0212ZM69.7137 13.9246C66.9248 13.9246 64.6536 16.0447 64.6536 18.9648C64.6536 21.8849 66.9248 24.0051 69.7137 24.0051C72.5025 24.0051 74.7737 21.8676 74.7737 18.9648C74.7737 16.062 72.5025 13.9246 69.7137 13.9246ZM80.7527 22.0212C79.2245 22.0212 77.9069 20.7605 77.9069 18.9673C77.9069 17.1741 79.2245 15.9134 80.7527 15.9134C82.2809 15.9134 83.5985 17.1543 83.5985 18.9673C83.5985 20.7803 82.2809 22.0212 80.7527 22.0212ZM80.7527 13.9246C77.9638 13.9246 75.6926 16.0447 75.6926 18.9648C75.6926 21.8849 77.9638 24.0051 80.7527 24.0051C83.5415 24.0051 85.8128 21.8676 85.8128 18.9648C85.8128 16.062 83.5415 13.9246 80.7527 13.9246Z" fill="white"/>
<path d="M14.4719 15.5169L21.7784 22.8482C22.2737 23.346 22.2737 24.151 21.7784 24.6488L14.462 32.1113L14.4719 15.5169ZM16.9982 11.9281L25.1839 16.6463L28.0892 18.3206L25.3623 21.0575C24.8669 21.5553 24.0644 21.5553 23.5691 21.0575L14.7864 12.2476C15.309 11.7076 16.2576 11.4897 16.9982 11.9281ZM16.0818 35.7324C15.5889 35.7324 15.153 35.5144 14.8384 35.1974L23.5691 26.442C24.0644 25.9442 24.8669 25.9442 25.3623 26.442L28.0496 29.1392L16.961 35.4971C16.696 35.6531 16.3914 35.7324 16.0818 35.7324ZM34.7195 25.2333L30.3257 27.8339L27.1505 24.6488C26.6552 24.151 26.6552 23.346 27.1505 22.8482L30.3604 19.6284L34.7319 22.2042L34.7617 22.2191C35.3165 22.5188 35.6583 23.0934 35.6583 23.715C35.6583 24.3367 35.309 24.9163 34.7195 25.2333ZM36.0991 20.0098L18.2713 9.73858C17.6075 9.34477 16.8496 9.13672 16.0793 9.13672C14.0954 9.13672 12.3567 10.489 11.9555 12.3169C11.9109 12.4928 11.8118 12.946 11.8192 13.3794V34.0729C11.8341 34.4915 11.948 35.0587 11.9678 35.1281C12.4632 36.9782 14.1548 38.2711 16.0793 38.2711C16.8397 38.2711 17.5852 38.068 18.2242 37.694L36.0595 27.4674C37.444 26.7243 38.3035 25.2928 38.3035 23.7274C38.3035 22.1621 37.4589 20.7553 36.0966 20.0098H36.0991Z" fill="white"/>
<path d="M24.5547 23.0215L11.9355 36.4135C11.9355 36.4135 11.9355 36.4184 11.9355 36.4209C12.3219 37.8748 13.6495 38.9447 15.2272 38.9447C15.8563 38.9447 16.4482 38.7738 16.956 38.4766L16.9956 38.4519L31.1999 30.2562L24.5523 23.019L24.5547 23.0215Z" fill="#E63C26"/>
<path d="M37.3203 20.7408L37.3079 20.7334L31.1754 17.1792L24.2677 23.3266L31.2002 30.2566L37.3005 26.7371C38.3705 26.16 39.0962 25.0331 39.0962 23.7328C39.0962 22.4324 38.3804 21.3204 37.3203 20.7408Z" fill="#F9C200"/>
<path d="M11.9357 10.9944C11.859 11.2743 11.8193 11.569 11.8193 11.8712V35.5368C11.8193 35.8414 11.859 36.1337 11.9357 36.4136L24.9884 23.3634L11.9357 10.9944Z" fill="#557ABD"/>
<path d="M24.6464 23.7052L31.1777 17.1764L16.9907 8.95106C16.4755 8.64146 15.8736 8.46313 15.2297 8.46313C13.652 8.46313 12.3219 9.53558 11.9355 10.9919C11.9355 10.9919 11.9355 10.9919 11.9355 10.9944L24.6464 23.7052Z" fill="#07A346"/>
</g>
<defs>
<clipPath id="clip0_1362_357">
<rect width="160" height="47.4081" fill="white"/>
</clipPath>
</defs>
</svg>
