<svg width="120" height="120" viewBox="0 0 120 120" fill="none" xmlns="http://www.w3.org/2000/svg">
<g filter="url(#filter0_d_1408_597)">
<path d="M76.5 14H43.5C28.3122 14 16 26.3122 16 41.5V74.5C16 89.6878 28.3122 102 43.5 102H76.5C91.6878 102 104 89.6878 104 74.5V41.5C104 26.3122 91.6878 14 76.5 14Z" fill="white"/>
<path d="M50.4229 71.6573L59.8314 62.2488L62.1465 64.564C64.0999 68.1167 66.0008 76.5652 59.284 83.2821C52.8962 89.6698 42.5726 89.3527 35.7809 82.561C29.8899 76.67 27.5515 66.4873 34.8201 59.2187C41.3411 52.6978 48.3699 54.5652 48.4404 54.5849L48.6776 54.6511L48.8984 50.1772L48.7145 50.1566C44.1349 49.6478 37.4722 50.2451 31.7393 55.978C23.7376 63.9796 23.9172 77.1788 32.1397 85.4013C40.9509 94.2124 54.2265 94.7401 62.364 86.6027C68.9356 80.031 70.3484 69.9076 65.798 61.9842L59.7506 55.9273L47.2218 68.4561L50.4221 71.6564L50.4229 71.6573Z" fill="url(#paint0_linear_1408_597)"/>
<path d="M57.5424 30.0152C53.2962 34.2614 51.0472 39.8009 51.2096 45.6128C51.3609 51.0346 53.6253 56.3215 57.4221 60.1191C64.9493 67.6463 78.3874 69.7793 87.8465 60.3193C97.3056 50.8602 95.1735 37.4213 87.6463 29.8949C80.2771 22.5257 67.0015 20.556 57.5424 30.0152ZM84.4855 33.3753C89.4647 38.3546 92.8189 49.0254 84.6857 57.1585C76.5526 65.2917 65.8817 61.9375 60.9025 56.9583C56.0823 52.1381 52.6989 41.2592 60.7427 33.2155C68.7864 25.1717 79.6653 28.5551 84.4855 33.3753ZM68.2132 49.6485C70.6882 52.1235 74.7015 52.1235 77.1765 49.6485C79.6515 47.1735 79.6515 43.1602 77.1765 40.6852C74.7015 38.2102 70.6882 38.2102 68.2132 40.6852C65.7382 43.1602 65.7382 47.1735 68.2132 49.6485Z" fill="#3D8ACC"/>
</g>
<defs>
<filter id="filter0_d_1408_597" x="0" y="0" width="120" height="120" filterUnits="userSpaceOnUse" color-interpolation-filters="sRGB">
<feFlood flood-opacity="0" result="BackgroundImageFix"/>
<feColorMatrix in="SourceAlpha" type="matrix" values="0 0 0 0 0 0 0 0 0 0 0 0 0 0 0 0 0 0 127 0" result="hardAlpha"/>
<feOffset dy="2"/>
<feGaussianBlur stdDeviation="8"/>
<feComposite in2="hardAlpha" operator="out"/>
<feColorMatrix type="matrix" values="0 0 0 0 0 0 0 0 0 0 0 0 0 0 0 0 0 0 0.25 0"/>
<feBlend mode="normal" in2="BackgroundImageFix" result="effect1_dropShadow_1408_597"/>
<feBlend mode="normal" in="SourceGraphic" in2="effect1_dropShadow_1408_597" result="shape"/>
</filter>
<linearGradient id="paint0_linear_1408_597" x1="32.5402" y1="85.8035" x2="61.0826" y2="57.2602" gradientUnits="userSpaceOnUse">
<stop offset="0.2" stop-color="#47B39B"/>
<stop offset="0.88" stop-color="#3D8ACC"/>
</linearGradient>
</defs>
</svg>
