<svg width="160" height="47" viewBox="0 0 160 47" fill="none" xmlns="http://www.w3.org/2000/svg">
<g clip-path="url(#clip0_1362_342)">
<path d="M154.311 47H5.60593C2.51259 47 0 44.4972 0 41.4422V5.55775C0 2.491 2.51259 0 5.60593 0H154.311C157.404 0 160 2.491 160 5.55775V41.4422C160 44.509 157.393 47 154.311 47Z" fill="#A6A6A6"/>
<path d="M158.85 41.4422C158.85 43.9332 156.824 45.9424 154.311 45.9424H5.60592C3.09333 45.9424 1.05481 43.9332 1.05481 41.4422V5.5459C1.05481 3.06665 3.09333 1.04565 5.60592 1.04565H154.311C156.824 1.04565 158.85 3.06665 158.85 5.55765V41.4422Z" fill="black"/>
<path d="M35.7096 23.2416C35.674 19.4581 38.8385 17.6133 38.9807 17.5311C37.1911 14.9461 34.4177 14.5936 33.434 14.5583C31.0992 14.3116 28.8355 15.9448 27.6503 15.9448C26.4652 15.9448 24.6044 14.5818 22.637 14.6288C20.1007 14.6641 17.7303 16.1211 16.4266 18.3888C13.7363 22.9948 15.7392 29.7746 18.3229 33.4993C19.6148 35.3206 21.12 37.3651 23.0874 37.2946C25.0074 37.2123 25.7303 36.0726 28.0533 36.0726C30.3763 36.0726 31.0281 37.2946 33.0429 37.2476C35.1052 37.2123 36.4089 35.4146 37.6533 33.5698C39.1466 31.4783 39.7392 29.4221 39.7629 29.3163C39.7155 29.3046 35.7452 27.8006 35.7096 23.2651V23.2416Z" fill="white"/>
<path d="M31.917 12.1143C32.9481 10.8336 33.6592 9.08284 33.4696 7.30859C31.9762 7.37909 30.0918 8.34259 29.0133 9.58809C28.0533 10.6926 27.1999 12.5138 27.4251 14.2176C29.1081 14.3468 30.8385 13.3716 31.917 12.1143Z" fill="white"/>
<path d="M64.0118 20.0101H61.6296L60.3259 15.9564H55.7985L54.554 20.0101H52.2311L56.7229 6.19214H59.4963L64 20.0101H64.0118ZM59.9348 14.2526L58.7615 10.6454C58.6429 10.2811 58.4059 9.41164 58.0622 8.03689H58.0266C57.8844 8.62439 57.6711 9.49389 57.3629 10.6454L56.2014 14.2526H59.9466H59.9348Z" fill="white"/>
<path d="M75.5437 14.9107C75.5437 16.6027 75.0814 17.9422 74.157 18.9292C73.3274 19.8104 72.3081 20.2452 71.0755 20.2452C69.7481 20.2452 68.8 19.7752 68.2192 18.8352H68.1837V24.0874H65.9555V13.3479C65.9555 12.2787 65.9318 11.1859 65.8726 10.0697H67.84L67.9585 11.6442H67.994C68.7407 10.4574 69.8666 9.85815 71.3837 9.85815C72.5689 9.85815 73.5644 10.3282 74.3585 11.2564C75.1526 12.1847 75.5437 13.4067 75.5437 14.9224V14.9107ZM73.2681 14.9929C73.2681 14.0177 73.0429 13.2187 72.6044 12.5959C72.1185 11.9379 71.4666 11.6089 70.6607 11.6089C70.1037 11.6089 69.6059 11.7852 69.1555 12.1494C68.7051 12.5137 68.4207 12.9837 68.2785 13.5712C68.2074 13.8414 68.1718 14.0764 68.1718 14.2527V15.9094C68.1718 16.6379 68.397 17.2489 68.8474 17.7424C69.2977 18.2477 69.8785 18.4944 70.5896 18.4944C71.4311 18.4944 72.0829 18.1772 72.557 17.5309C73.0311 16.8847 73.2681 16.0387 73.2681 14.9812V14.9929Z" fill="white"/>
<path d="M87.1111 14.9107C87.1111 16.6027 86.6489 17.9422 85.7244 18.9292C84.8948 19.8104 83.8755 20.2452 82.6429 20.2452C81.3155 20.2452 80.3674 19.7752 79.7866 18.8352H79.7392V24.0874H77.4992V13.3479C77.4992 12.2787 77.4755 11.1859 77.4163 10.0697H79.3837L79.5022 11.6442H79.5496C80.2963 10.4574 81.4222 9.85815 82.9392 9.85815C84.1244 9.85815 85.1081 10.3282 85.9022 11.2564C86.6963 12.1847 87.0874 13.4067 87.0874 14.9224L87.1111 14.9107ZM84.8355 14.9929C84.8355 14.0177 84.6103 13.2187 84.1718 12.5959C83.6859 11.9379 83.0459 11.6089 82.2281 11.6089C81.6829 11.6089 81.1733 11.7852 80.7348 12.1494C80.2844 12.5137 79.9881 12.9837 79.8577 13.5712C79.7866 13.8414 79.7511 14.0764 79.7511 14.2527V15.9094C79.7511 16.6379 79.9763 17.2489 80.4266 17.7424C80.877 18.2477 81.4577 18.4944 82.1689 18.4944C83.0103 18.4944 83.6622 18.1772 84.1363 17.5309C84.6103 16.8847 84.8355 16.0387 84.8355 14.9812V14.9929Z" fill="white"/>
<path d="M102.827 16.1327C102.827 17.3077 102.412 18.2595 101.594 18.9997C100.681 19.8105 99.4252 20.21 97.8015 20.21C96.2963 20.21 95.0992 19.928 94.1866 19.3522L94.7081 17.5075C95.6918 18.095 96.7585 18.3887 97.9318 18.3887C98.7733 18.3887 99.4252 18.2007 99.8992 17.8247C100.373 17.4487 100.598 16.9435 100.598 16.3207C100.598 15.7567 100.409 15.2867 100.018 14.899C99.6266 14.5112 98.9866 14.1587 98.0978 13.8297C95.6563 12.925 94.4355 11.609 94.4355 9.86996C94.4355 8.73021 94.8622 7.80196 95.7155 7.07346C96.5689 6.34496 97.7066 5.98071 99.1289 5.98071C100.397 5.98071 101.452 6.20396 102.293 6.63871L101.736 8.44821C100.954 8.02521 100.065 7.81371 99.0696 7.81371C98.2874 7.81371 97.6711 8.00171 97.2326 8.38946C96.8652 8.73021 96.6755 9.15321 96.6755 9.63496C96.6755 10.1872 96.8889 10.6337 97.3155 10.9862C97.6829 11.3152 98.3585 11.6677 99.3422 12.0555C100.539 12.5372 101.428 13.0895 101.985 13.7357C102.554 14.382 102.838 15.181 102.838 16.1327H102.827Z" fill="white"/>
<path d="M110.21 11.7029H107.745V16.5439C107.745 17.7777 108.184 18.3887 109.049 18.3887C109.452 18.3887 109.784 18.3534 110.044 18.2829L110.104 19.9632C109.665 20.1277 109.084 20.2099 108.361 20.2099C107.473 20.2099 106.785 19.9397 106.287 19.4109C105.79 18.8822 105.541 17.9774 105.541 16.7202V11.6912H104.071V10.0344H105.541V8.21318L107.733 7.55518V10.0344H110.198V11.6912L110.21 11.7029Z" fill="white"/>
<path d="M121.316 14.946C121.316 16.4735 120.877 17.7307 119.988 18.7177C119.064 19.7282 117.843 20.2335 116.302 20.2335C114.761 20.2335 113.647 19.7517 112.77 18.7765C111.893 17.8012 111.455 16.5792 111.455 15.1105C111.455 13.6417 111.905 12.3022 112.806 11.3152C113.707 10.3282 114.927 9.83472 116.456 9.83472C117.985 9.83472 119.123 10.3165 120.012 11.2917C120.865 12.2317 121.292 13.4537 121.292 14.946H121.316ZM118.993 15.0165C118.993 14.1 118.791 13.3127 118.388 12.6547C117.914 11.8557 117.25 11.4562 116.385 11.4562C115.52 11.4562 114.809 11.8557 114.335 12.6547C113.932 13.3127 113.73 14.1117 113.73 15.0635C113.73 16.0152 113.932 16.7672 114.335 17.4252C114.821 18.2242 115.496 18.6237 116.361 18.6237C117.227 18.6237 117.89 18.2242 118.364 17.4135C118.779 16.7437 118.981 15.9447 118.981 15.0282L118.993 15.0165Z" fill="white"/>
<path d="M128.569 11.9967C128.344 11.9614 128.118 11.9379 127.87 11.9379C127.087 11.9379 126.471 12.2317 126.044 12.8192C125.677 13.3362 125.487 13.9942 125.487 14.7932V20.0219H123.247L123.271 13.1952C123.271 12.0437 123.247 10.9979 123.188 10.0579H125.132L125.215 11.9614H125.274C125.511 11.3034 125.878 10.7747 126.388 10.3869C126.886 10.0344 127.419 9.85815 128 9.85815C128.213 9.85815 128.391 9.8699 128.557 9.8934V12.0084L128.569 11.9967Z" fill="white"/>
<path d="M138.56 14.5582C138.56 14.9577 138.536 15.2867 138.477 15.557H131.781C131.804 16.544 132.136 17.296 132.753 17.813C133.321 18.283 134.044 18.5062 134.945 18.5062C135.941 18.5062 136.841 18.3535 137.659 18.0362L138.015 19.5755C137.067 19.9867 135.941 20.1865 134.637 20.1865C133.084 20.1865 131.852 19.7282 130.963 18.8235C130.074 17.9187 129.624 16.6967 129.624 15.1692C129.624 13.6417 130.038 12.4197 130.868 11.421C131.733 10.3517 132.907 9.823 134.388 9.823C135.87 9.823 136.936 10.3517 137.671 11.421C138.264 12.267 138.56 13.3127 138.56 14.5582ZM136.427 13.9825C136.438 13.3245 136.296 12.7605 135.988 12.2787C135.597 11.6677 135.004 11.3622 134.21 11.3622C133.476 11.3622 132.883 11.6677 132.433 12.267C132.065 12.7487 131.84 13.3245 131.769 13.9942H136.427V13.9825Z" fill="white"/>
<path d="M58.24 41.4658V28.4351H52.3378V27.1426H66.9748L66.963 28.4351H59.6267V41.4658H58.2518H58.24ZM64.6993 37.1301C64.3555 36.6601 64 36.2488 63.6207 35.8728C63.2415 35.4968 62.8622 35.1678 62.483 34.8741C62.1037 34.5803 61.7363 34.3218 61.3689 34.0986C61.0015 33.8753 60.6696 33.6873 60.3615 33.5111L60.9541 32.5241C61.5111 32.7356 62.0326 32.9823 62.4948 33.2761C62.957 33.5698 63.4074 33.8871 63.8341 34.2513C64.1541 34.5216 64.4622 34.8153 64.7585 35.1208C65.0548 35.4263 65.363 35.7671 65.6711 36.1078L64.6874 37.1418L64.6993 37.1301Z" fill="white"/>
<path d="M81.0548 25.7676C81.0548 26.0379 81.0548 26.2611 81.0548 26.4256C81.0548 26.5901 81.0667 26.7899 81.0785 26.9896L81.8726 26.2376C82.4533 26.4491 82.9748 26.7429 83.4133 27.1306C83.8518 27.5184 84.2548 27.9531 84.6341 28.4349C84.5393 28.5876 84.4326 28.7169 84.3022 28.8344C84.1718 28.9519 84.0415 29.0694 83.9111 29.1986H85.1081V30.4324H81.2326C81.3274 31.4311 81.4341 32.3711 81.5407 33.2524C81.6474 34.1336 81.7659 35.0031 81.8726 35.8609C82.2874 35.1324 82.5719 34.4039 82.7496 33.6989C82.9274 32.9939 83.0459 32.1714 83.117 31.2666L84.3615 31.6309C84.2785 32.7941 84.0652 33.8634 83.7333 34.8621C83.3896 35.8609 82.9274 36.7774 82.3467 37.6234C82.5007 38.0346 82.6904 38.4576 82.9393 38.8806C83.1763 39.2919 83.4844 39.6561 83.84 39.9616C83.8993 39.9969 83.9467 39.9734 83.9941 39.9146C84.0533 39.7384 84.1007 39.5504 84.1363 39.3271C84.1718 39.1156 84.1837 38.9041 84.1956 38.6926C84.1956 38.4811 84.1956 38.2814 84.1956 38.0816C84.1956 37.8819 84.1956 37.7174 84.1718 37.5764L85.4518 38.0229C85.4163 38.5634 85.357 39.0804 85.2859 39.5856C85.2148 40.1026 85.037 40.5609 84.7644 40.9604C84.5393 41.2189 84.243 41.3481 83.8637 41.3716C83.6504 41.3716 83.4489 41.3011 83.2711 41.2189C83.0933 41.1366 82.9156 41.0074 82.7496 40.8664C82.5956 40.7254 82.4533 40.5726 82.323 40.4081C82.1926 40.2436 82.0741 40.0791 81.9674 39.9264C81.8607 39.7619 81.7541 39.5856 81.6593 39.3859C81.5644 39.1861 81.4578 39.0099 81.363 38.8454C81.2207 39.0216 81.043 39.2096 80.8178 39.3976C80.5926 39.5974 80.3556 39.7971 80.1067 40.0204C79.8578 40.2436 79.5852 40.4434 79.3126 40.6549C79.0281 40.8664 78.7556 41.0661 78.483 41.2424L77.4518 40.2436C77.8193 40.0321 78.1274 39.8441 78.3881 39.6796C78.6489 39.5151 78.8267 39.3741 78.9333 39.2919H75.757V41.3951H74.3704V39.2919H69.7719V38.1051H74.3941V37.4471H71.1467V32.9586H74.4178V32.3829H70.4356V31.2549H74.4178V30.4324H70.1156V29.1751H74.3467V28.3409H70.7793V27.1776H74.323V25.7676H75.6741V27.1776H79.2889V28.3409H75.6859V29.1751H79.7748L79.7037 25.7441H81.043L81.0548 25.7676ZM74.4178 34.0514H72.4148V34.5919H74.3941V34.0514H74.4178ZM74.4059 35.6376H72.4267V36.3896H74.4059V35.6376ZM80.0593 38.3519C80.1304 38.2931 80.2489 38.1756 80.4148 37.9994C80.5807 37.8231 80.7348 37.6351 80.877 37.4471C80.723 36.9654 80.5926 36.4484 80.4859 35.8844C80.3793 35.3204 80.2844 34.7211 80.2133 34.1219C80.1422 33.5109 80.0711 32.8999 80.0237 32.2771C79.9763 31.6544 79.917 31.0551 79.8696 30.4794H75.7452V31.2666H79.68V32.3946H75.7452V32.9821L79.0163 32.9586V37.4706H75.7452V38.1286H80.0474V38.3519H80.0593ZM77.7363 34.0396H75.7333V34.5919H77.7363V34.0396ZM77.7363 35.6259L75.7333 35.6494V36.4014H77.7363V35.6376V35.6259ZM83.6267 29.1986C83.3067 28.7286 82.9393 28.3056 82.5244 27.9649C82.1096 27.6124 81.6237 27.3304 81.0785 27.0954C81.1022 27.5066 81.1141 27.8826 81.1259 28.2351C81.1259 28.5876 81.1496 28.9166 81.1733 29.1986H83.6385H83.6267Z" fill="white"/>
</g>
<defs>
<clipPath id="clip0_1362_342">
<rect width="160" height="47" fill="white"/>
</clipPath>
</defs>
</svg>
