<svg width="294" height="296" viewBox="0 0 294 296" fill="none" xmlns="http://www.w3.org/2000/svg">
<g opacity="0.5">
<path d="M105.777 206.768L146.279 166.266L156.246 176.233C164.653 191.528 172.839 227.897 143.919 256.809C116.425 284.303 71.9807 282.942 42.7366 253.706C17.3795 228.348 7.30954 184.506 38.6041 153.219C66.6765 125.147 96.934 133.19 97.2348 133.269L98.2561 133.554L99.2061 114.293L98.4144 114.206C78.702 112.013 50.0199 114.586 25.3358 139.27C-9.10961 173.716 -8.33378 230.541 27.0616 265.937C64.9903 303.865 122.141 306.138 157.172 271.106C185.466 242.812 191.546 199.231 171.952 165.126L145.922 139.049L91.9861 192.985L105.761 206.76L105.777 206.768Z" fill="white"/>
<path d="M136.43 27.5029C118.151 45.7824 108.469 69.6274 109.165 94.652C109.815 117.99 119.56 140.751 135.908 157.099C168.311 189.501 226.158 198.685 266.881 157.961C307.604 117.238 298.421 59.3912 266.018 26.9883C234.296 -4.73375 177.146 -13.2125 136.422 27.5029H136.43ZM252.417 41.9666C273.856 63.4049 288.288 109.337 253.28 144.353C218.265 179.368 172.332 164.928 150.894 143.49C130.145 122.74 115.578 75.9053 150.205 41.2779C184.833 6.6504 231.668 21.217 252.417 41.9666ZM182.363 112.021C193.019 122.677 210.293 122.677 220.949 112.021C231.604 101.365 231.604 84.0911 220.949 73.4353C210.293 62.7795 193.019 62.7795 182.363 73.4353C171.707 84.0911 171.707 101.365 182.363 112.021Z" fill="white"/>
</g>
</svg>
