<svg width="216" height="28" viewBox="0 0 216 28" fill="none" xmlns="http://www.w3.org/2000/svg">
<g clip-path="url(#clip0_1326_323)">
<path d="M34.7 0.48999H52.2272V17.78H50.4094V17.0042H36.512V17.78H34.6942V0.48999H34.7ZM36.512 15.4992H50.4269V1.97749H36.512V15.4992ZM45.0549 11.725C44.4219 9.99249 44.0269 7.95666 43.8643 5.61749H37.2844V4.12999H43.7888V2.56082H45.4904V4.12999H49.7358V5.61749H45.5079C45.5892 7.41416 45.8215 8.90166 46.2222 10.0858C46.983 8.75582 47.5347 7.48416 47.8599 6.27666L49.2653 7.10499C48.6439 8.79666 47.8657 10.4183 46.9307 11.9525C46.9307 12.0283 47.0643 12.2733 47.3256 12.6875C47.5753 13.09 47.7844 13.2883 47.9586 13.2883C48.1793 13.2883 48.4639 12.5475 48.8065 11.0658L50.1887 12.1042C49.5964 14.1167 48.824 15.12 47.8773 15.12C47.1398 15.12 46.4429 14.49 45.7808 13.2358C45.0258 14.1633 44.358 14.8692 43.7656 15.3475L42.517 14.0642C43.1384 13.65 43.6262 13.2475 43.9805 12.8742C42.3718 13.2883 40.223 13.685 37.5341 14.0642L37.2379 12.4425C39.4099 12.3317 41.7446 11.9933 44.236 11.4217V12.6292L45.0491 11.725H45.0549ZM37.9 6.67332H42.9351V11.0833H37.9V6.67332ZM41.4368 8.04999H39.4216V9.71249H41.4368V8.04999ZM47.7031 4.13582C47.4127 3.42416 47.0701 2.87582 46.6752 2.47332L48.0341 2.03582C48.2723 2.26332 48.4697 2.49666 48.6265 2.75332C48.824 3.05666 49.0098 3.33666 49.1782 3.60499L47.6973 4.13582H47.7031Z" fill="white"/>
<path d="M73.1809 17.1442H54.5387V15.33H73.1809V17.1442ZM54.8988 3.75668H72.8441V5.56502H54.8988V3.75668ZM60.1372 14.7292C59.5855 11.8183 58.7898 9.18752 57.7445 6.84835L59.6377 6.30002C60.6424 8.32418 61.5019 10.955 62.2279 14.1867L60.1314 14.735L60.1372 14.7292ZM63.9934 3.75668C63.3487 3.08585 62.2279 2.18752 60.6308 1.05585L62.0537 0.0175171C63.372 0.787517 64.4986 1.59835 65.4336 2.47335L63.9934 3.75668ZM70.039 6.71418C69.3828 9.68918 68.5116 12.3608 67.4314 14.7117L65.3582 14.0758C66.4906 11.8592 67.4024 9.24585 68.0877 6.22418L70.0448 6.71418H70.039Z" fill="white"/>
<path d="M84.4939 2.20497H91.8869V17.7858H89.8891V16.8233H78.5644V17.7858H76.5898V2.20497H82.5193C82.8097 1.59831 83.0769 0.880807 83.3324 0.0349731L85.3476 0.16914C85.2315 0.48414 85.1037 0.81664 84.9701 1.16664C84.8656 1.44664 84.703 1.79081 84.4939 2.20497ZM89.8891 3.99581H78.5644V6.16581H89.8891V3.99581ZM78.5644 10.4708H89.8891V7.92164H78.5644V10.4708ZM78.5644 15.0325H89.8891V12.2208H78.5644V15.0325Z" fill="white"/>
<path d="M99.7968 12.9966C99.1406 14.875 98.281 16.415 97.2299 17.6341L95.4121 16.5608C96.5155 15.2425 97.3693 13.825 97.9616 12.32L99.8026 12.9966H99.7968ZM108.235 7.58332C107.463 9.74748 105.854 11.41 103.415 12.5825L102.265 11.0191C104.861 9.86415 106.435 8.22498 106.987 6.11915H104.495C104.019 7.29748 103.084 8.46415 101.69 9.63081C100.308 10.7858 98.6701 11.7133 96.7885 12.4191L95.7025 10.7391C97.4273 10.2666 98.8269 9.57248 99.8897 8.66831C98.4959 7.53665 97.6945 6.97082 97.497 6.97082C97.3518 7.13415 97.2008 7.27415 97.044 7.38498C96.8988 7.48415 96.7595 7.58332 96.6259 7.68832L95.4992 6.15415C97.7235 4.62582 99.2509 2.58415 100.064 0.0233154L101.858 0.519149C101.737 0.758315 101.638 0.991649 101.545 1.21332C101.493 1.37665 101.423 1.52248 101.324 1.64498H105.674V2.58998C105.674 3.20248 105.506 3.83832 105.175 4.49748H107.248V0.320815H109.164V4.49165H113.77V6.11332H109.495C109.67 6.85415 110.163 7.69998 110.976 8.63915C111.807 9.56665 112.817 10.3483 114.002 10.9783L112.893 12.565C110.814 11.3341 109.251 9.67748 108.206 7.58915M98.6063 5.89165C99.3729 6.29415 100.227 6.86582 101.173 7.61248C101.527 7.32082 101.87 6.92415 102.207 6.41665C100.662 5.46582 99.7213 4.99332 99.3787 4.99332C99.0244 5.43665 98.7689 5.73998 98.6121 5.89165M100.192 3.83832C100.796 4.06582 101.719 4.47415 102.956 5.08082C103.339 4.50915 103.595 3.84415 103.729 3.10332H100.604C100.511 3.35415 100.372 3.59915 100.192 3.83832ZM101.278 17.5525C101.301 17.1383 101.313 16.5783 101.313 15.8725C101.313 14.8633 101.284 13.9766 101.237 13.2125L103.171 13.1366C103.328 14.2041 103.409 15.5166 103.409 17.08V17.4766L101.278 17.5525ZM106.394 17.5175C106.249 16.03 105.993 14.595 105.622 13.195L107.538 13.0258C107.974 14.1983 108.316 15.6041 108.566 17.2433L106.394 17.5116V17.5175ZM111.551 4.21748C110.866 3.23748 110.25 2.44415 109.71 1.84332L111.092 0.956649C111.592 1.46998 112.225 2.21665 112.992 3.20248L111.545 4.21748H111.551ZM112.027 17.605C111.069 15.5166 110.303 14.0233 109.734 13.1191L111.551 12.3666C112.353 13.5566 113.177 15.0033 114.019 16.7008L112.022 17.605H112.027Z" fill="white"/>
<path d="M119.688 2.75335C118.985 2.87585 117.963 2.98668 116.621 3.07418L116.209 1.49335C119.159 1.35918 121.697 0.89835 123.817 0.134184L124.49 1.68002C123.544 1.99502 122.545 2.25168 121.505 2.45002V5.11002H124.508V6.73168H121.505V6.90085C122.981 8.20752 124.096 9.25168 124.845 10.0334L123.736 11.655C123.341 11.1242 122.946 10.6459 122.551 10.22C122.208 9.82918 121.86 9.40918 121.505 8.95418V17.71L119.688 17.7859V10.0334C119.182 11.2409 118.288 12.6467 116.999 14.2567L115.89 12.5592C117.55 10.7567 118.793 8.81418 119.624 6.73168H116.006V5.11002H119.682V2.74752L119.688 2.75335ZM124.276 13.5625V11.8125L130.896 10.8675V0.0175171H132.731V10.6575L134.509 10.3717V12.0925L132.731 12.3725V17.7859H130.896V12.6L124.276 13.5625ZM128.567 9.73585C127.208 8.65668 126.006 7.82252 124.967 7.23335L126.134 5.96752C127.121 6.45752 128.341 7.23335 129.793 8.28335L128.567 9.73585ZM128.922 5.15085C127.458 4.03085 126.273 3.20835 125.362 2.67752L126.552 1.43502C127.406 1.89002 128.614 2.65418 130.17 3.73335L128.922 5.15085Z" fill="white"/>
<path d="M151.077 10.2783V11.655C149.922 12.2442 148.487 12.7925 146.791 13.2942H154.998V14.8225H146.791V15.5925C146.791 16.9342 146.193 17.6167 144.991 17.6167H142.087L141.634 16.0883L144.341 16.1642C144.736 16.1642 144.933 15.9775 144.933 15.5925V14.8225H136.349V13.2942H144.933V12.4833C145.839 12.3317 146.995 12.0575 148.389 11.6725H140.072V10.2783H151.077ZM152.837 9.46749H138.568V12.2325H136.808V7.96832H137.796L137.575 0.729158C139.288 0.682491 140.74 0.495824 141.925 0.180824L142.796 1.57499C142.058 1.81999 140.885 1.98332 139.276 2.08832L139.335 3.05082H142.418V4.32832H139.393L139.416 5.40166H142.418V6.70832H139.457L139.491 7.96832H151.867L151.89 6.70832H149.12V5.40166H151.949L151.983 4.32832H149.12V3.05082H152.03L152.047 2.01249H148.905V0.524991H153.784L153.563 7.97416H154.614V12.2383H152.831V9.47332L152.837 9.46749ZM145.978 2.67749C145.322 3.07999 144.544 3.46499 143.667 3.82666L142.656 2.56082C143.766 2.27499 144.492 2.01249 144.829 1.79082C144.503 1.53999 144.05 1.24249 143.487 0.904158L144.556 0.0116577C145.067 0.326658 145.589 0.676658 146.112 1.04999C146.675 0.688324 147.082 0.344158 147.32 0.0291577L148.301 0.880824C148.017 1.25999 147.628 1.59249 147.134 1.89582C147.401 2.12332 147.75 2.45582 148.185 2.89916L146.977 3.74499C146.455 3.02749 146.118 2.67166 145.973 2.67166M146.095 6.53332C145.491 6.93582 144.718 7.29166 143.783 7.59499L142.935 6.32916C143.847 6.13666 144.527 5.91499 144.985 5.64666C144.724 5.45999 144.283 5.15666 143.661 4.74249L144.689 3.91416C144.939 4.07749 145.171 4.21166 145.38 4.32832C145.624 4.49166 145.903 4.68999 146.205 4.91166C146.6 4.67249 147.053 4.28166 147.57 3.73916L148.615 4.58499C148.127 5.04582 147.68 5.42499 147.268 5.71666C147.645 6.03166 148.023 6.36416 148.394 6.71999L147.128 7.63582C146.524 6.89499 146.176 6.52749 146.083 6.52749" fill="white"/>
<path d="M156.757 6.39333V4.70167H158.83V0.0175H160.648V4.69583H162.21V6.3875H160.648V17.78H158.83V6.39333H156.757ZM169.342 0.0175V1.68H172.17C171.973 1.4175 171.636 1.085 171.166 0.6825L172.426 0C172.914 0.361667 173.349 0.7525 173.733 1.16667L172.705 1.68H175.394V3.19667H169.348V3.98417H174.546V9.56667C174.546 10.4942 174.412 11.0658 174.151 11.2642C173.872 11.4625 173.518 11.5792 173.082 11.6025V12.1683H175.394V13.755H173.082V15.5983C173.082 16.94 172.484 17.6225 171.288 17.6225H169.232L168.779 15.96L170.771 16.0417C171.166 16.0417 171.363 15.855 171.363 15.4933V13.7608H165.556C166.067 14.175 166.787 14.8925 167.71 15.9075L166.264 17.115C165.643 16.2867 164.928 15.4875 164.11 14.7175L165.393 13.755H161.914V12.1683H171.363V11.6025H170.811L170.399 10.325L172.316 10.36C172.687 10.36 172.867 10.1908 172.867 9.87V9.60167H169.348V11.2233H167.646V9.60167H164.597V11.5792H162.919V3.98417H167.646V3.19667H162.385V1.68H167.646V0.0175H169.348H169.342ZM167.641 5.3375H164.592V6.20667H167.641V5.3375ZM167.641 7.41417H164.592V8.37667H167.641V7.41417ZM172.856 5.3375H169.336V6.20667H172.856V5.3375ZM172.856 7.41417H169.336V8.37667H172.856V7.41417Z" fill="white"/>
<path d="M178.994 8.63919L177.235 8.05003C177.856 6.46919 178.204 4.29336 178.28 1.52836L179.924 1.69753C179.906 2.16419 179.9 2.53753 179.9 2.82919C179.889 3.22003 179.865 3.56419 179.842 3.86753H181.126V0.017526H182.943V3.86753H184.68V5.58253H182.943V8.79086C183.786 8.44669 184.413 8.17253 184.819 7.96253L185.133 9.71836C184.424 10.0684 183.693 10.4009 182.943 10.7159V17.7859H181.126V11.375C180.609 11.6142 180.08 11.8242 179.546 12.0109C179.018 12.1975 178.512 12.39 178.024 12.5767L177.269 10.7509C179.047 10.2084 180.336 9.77086 181.126 9.42669V5.58253H179.645C179.424 6.94169 179.203 7.95669 178.994 8.63919ZM192.869 4.18253C192.805 7.25086 192.143 9.88169 190.894 12.0692C189.64 14.2567 188.199 15.9134 186.567 17.045L185.121 15.5575C186.771 14.5075 188.176 12.9617 189.349 10.8909C190.516 8.84336 191.109 6.60919 191.109 4.20003V4.16503H190.278C190.017 7.48419 188.484 10.395 185.69 12.8975L184.227 11.4217C186.858 9.46169 188.298 7.04086 188.536 4.15919H187.665C187.282 5.33169 186.66 6.41086 185.807 7.40253L184.285 6.21253C185.748 4.55586 186.591 2.48503 186.817 0.00585938L188.734 0.175026C188.536 1.28336 188.356 2.08253 188.182 2.57253H195.354V3.72169C195.354 7.36169 195.296 10.3192 195.174 12.6059C195.052 14.8867 194.779 16.275 194.344 16.7767C193.92 17.2784 192.95 17.535 191.44 17.535C190.964 17.535 190.528 17.5234 190.116 17.5L189.657 15.4409C190.487 15.5575 191.196 15.61 191.794 15.61C192.334 15.61 192.712 15.5109 192.921 15.3067C193.118 15.1025 193.281 14.2567 193.397 12.7575C193.554 10.8325 193.641 8.63919 193.641 6.17753C193.641 5.34919 193.629 4.66669 193.618 4.14169L192.869 4.17669V4.18253Z" fill="white"/>
<path d="M202.66 1.505C201.713 2.91083 200.267 4.2525 198.328 5.52417L197.654 4.05417C199.303 3.03333 200.703 1.72083 201.864 0.110833H203.328C204.286 0.950833 205.233 1.8375 206.156 2.77083L205.064 4.10667C204.327 3.23167 203.525 2.3625 202.654 1.505M205.483 12.145H200.656V15.295C201.946 15.0325 202.939 14.7933 203.642 14.5833C203.38 14.0525 203.055 13.5217 202.672 12.9733L204.1 12.39C205.024 13.5217 205.814 14.8225 206.47 16.2925L204.809 17.0625C204.466 16.2342 204.275 15.82 204.234 15.82C202.59 16.4208 200.511 16.94 198.008 17.3833L197.654 15.7617C198.101 15.7267 198.513 15.6567 198.879 15.5575V5.1275H201.963C201.847 4.55 201.626 3.955 201.313 3.35417L202.834 3.14417C203.189 3.66333 203.467 4.3225 203.665 5.12167H205.483V12.1392V12.145ZM203.758 6.48667H200.656V7.92167H203.758V6.48667ZM200.656 10.7858H203.758V9.205H200.656V10.7858ZM206.923 5.50667H206.174V1.75583H210.187C210.065 1.25417 209.844 0.7525 209.53 0.268333L211.232 0C211.389 0.274167 211.528 0.56 211.65 0.863333C211.755 1.16667 211.865 1.45833 211.987 1.75583H216V5.5125H214.815V9.82917H208.607V11.305H215.582V17.7917H213.886V16.695H208.607V17.7917H206.929V5.50667H206.923ZM214.339 3.31917H207.875V4.77167H214.339V3.31917ZM213.148 6.34083H208.601V8.26H213.148V6.34083ZM213.88 12.845H208.601V15.1433H213.88V12.845Z" fill="white"/>
<path d="M39.7237 27.895H38.8119L35.5538 23.0825C35.4725 22.96 35.4028 22.8375 35.3506 22.7034H35.3273C35.3506 22.8317 35.3622 23.1117 35.3622 23.5317V27.895H34.6246V21.8575H35.5887L38.7538 26.5942C38.8874 26.7925 38.9745 26.9267 39.0093 26.9967H39.0268C38.9977 26.8217 38.9861 26.5242 38.9861 26.1042V21.8517H39.7237V27.8892V27.895Z" fill="white"/>
<path d="M46.4603 28H45.6415L44.9736 26.3084H42.2847L41.6517 28H40.827L43.2546 21.9625H44.0212L46.4603 28ZM44.7239 25.6725L43.7308 23.1C43.696 23.0184 43.6669 22.8784 43.6321 22.6975H43.6146C43.5856 22.8667 43.5508 23.0067 43.5159 23.1L42.5344 25.6725H44.7239Z" fill="white"/>
<path d="M48.0981 28V22.5983H46.2745V21.9567H50.665V22.5983H48.8357V28H48.0981Z" fill="white"/>
<path d="M51.2225 21.9625H53.1971V22.5692H52.5815V27.3934H53.1971V28H51.2225V27.3934H51.8439V22.5692H51.2225V21.9625Z" fill="white"/>
<path d="M56.9778 28C56.0776 28 55.3633 27.72 54.8232 27.1542C54.2831 26.5942 54.0101 25.8534 54.0101 24.9492C54.0101 23.9809 54.2831 23.205 54.8348 22.6275C55.3865 22.05 56.1357 21.7584 57.0823 21.7584C57.9535 21.7584 58.662 22.0384 59.1963 22.5984C59.7306 23.1584 59.9977 23.8934 59.9977 24.8034C59.9977 25.7892 59.7248 26.565 59.1788 27.1425C58.6329 27.7142 57.9012 28 56.9836 28M57.0359 22.4C56.3738 22.4 55.8279 22.6334 55.4156 23.0884C55.0032 23.5434 54.7941 24.1442 54.7941 24.8909C54.7941 25.6375 54.9974 26.2325 55.3981 26.6817C55.8047 27.1367 56.3332 27.3642 56.9836 27.3642C57.6747 27.3642 58.2206 27.1484 58.6213 26.7167C59.022 26.285 59.2195 25.6784 59.2195 24.9025C59.2195 24.1267 59.0279 23.485 58.6387 23.0534C58.2496 22.6217 57.7153 22.4 57.0301 22.4" fill="white"/>
<path d="M66.5255 28H65.6137L62.3557 23.1875C62.2744 23.065 62.2047 22.9425 62.1524 22.8083H62.1234C62.1466 22.9367 62.1582 23.2108 62.1582 23.6367V28H61.4207V21.9625H62.3789L65.5498 26.6992C65.6834 26.8917 65.7647 27.0258 65.8053 27.1017H65.8228C65.7937 26.9267 65.7763 26.6292 65.7763 26.2092V21.9567H66.5197V27.9942L66.5255 28Z" fill="white"/>
<path d="M73.2622 28H72.4376L71.7697 26.3084H69.0866L68.4536 28H67.6289L70.0565 21.9625H70.8231L73.2622 28ZM71.5258 25.6725L70.5327 23.1C70.4978 23.0184 70.4688 22.8784 70.434 22.6975H70.4165C70.3875 22.8667 70.3526 23.0067 70.3178 23.1L69.3363 25.6725H71.5258Z" fill="white"/>
<path d="M77.6585 27.3584V28H74.3772V21.9625H75.1147V27.3584H77.6585Z" fill="white"/>
<path d="M88.594 27.895H87.8565V23.8409C87.8565 23.52 87.8797 23.1292 87.9146 22.6684H87.8971C87.8275 22.9425 87.7636 23.135 87.7055 23.2517L85.5451 27.895H85.1792L83.0188 23.2867C82.9607 23.1525 82.8968 22.9425 82.8272 22.6684H82.8097C82.833 22.9075 82.8446 23.3042 82.8446 23.8525V27.895H82.1302V21.8517H83.1117L85.0514 26.0634C85.2024 26.3842 85.2954 26.6292 85.3418 26.7867H85.3709C85.4928 26.4542 85.5974 26.2092 85.6729 26.0459L87.6532 21.8517H88.5766V27.895H88.594Z" fill="white"/>
<path d="M95.0695 25.4567C95.0695 27.1483 94.2681 28 92.6652 28C91.0623 28 90.3596 27.1833 90.3596 25.5558V21.8633H91.103V25.5092C91.103 26.7517 91.6489 27.3642 92.7407 27.3642C93.8325 27.3642 94.3262 26.7692 94.3262 25.5733V21.8633H95.0637V25.4625L95.0695 25.4567Z" fill="white"/>
<path d="M96.533 27.6558V26.8217C96.6317 26.9092 96.7536 26.9792 96.893 27.0492C97.0324 27.1192 97.1834 27.1717 97.3344 27.2183C97.4912 27.265 97.648 27.3 97.799 27.3292C97.9558 27.3525 98.101 27.3642 98.2346 27.3642C98.6876 27.3642 99.0302 27.2825 99.2567 27.1192C99.4832 26.9617 99.5935 26.7225 99.5935 26.4192C99.5935 26.2617 99.5587 26.1158 99.4832 25.9992C99.4077 25.8767 99.3032 25.7658 99.1696 25.6667C99.036 25.5675 98.8792 25.4683 98.6992 25.3808C98.5191 25.2875 98.3217 25.1942 98.1184 25.0892C97.8977 24.9842 97.6945 24.8733 97.497 24.7683C97.3054 24.6575 97.1428 24.535 96.9976 24.4067C96.8582 24.2725 96.742 24.1267 96.6665 23.9575C96.5852 23.7883 96.5446 23.59 96.5446 23.3683C96.5446 23.0942 96.6085 22.855 96.7362 22.6508C96.8582 22.4467 97.0266 22.2775 97.2357 22.1492C97.4447 22.015 97.677 21.9158 97.9384 21.8517C98.1997 21.7875 98.4727 21.7525 98.7456 21.7525C99.367 21.7525 99.8258 21.8283 100.11 21.9683V22.7617C99.7329 22.5167 99.2567 22.3942 98.6701 22.3942C98.5075 22.3942 98.3507 22.4117 98.1823 22.4408C98.0197 22.4758 97.8803 22.5283 97.7525 22.5983C97.6248 22.6742 97.5202 22.7675 97.4447 22.8783C97.3634 22.9892 97.3228 23.1292 97.3228 23.2983C97.3228 23.4558 97.3518 23.5842 97.4099 23.695C97.468 23.8058 97.5609 23.9108 97.677 24.0042C97.7932 24.0975 97.9384 24.185 98.1068 24.2725C98.2752 24.36 98.4727 24.4533 98.6876 24.5583C98.9199 24.6633 99.1289 24.78 99.3322 24.8967C99.5355 25.0133 99.7097 25.1417 99.8665 25.2875C100.017 25.4333 100.139 25.5908 100.232 25.76C100.319 25.935 100.366 26.1392 100.366 26.3608C100.366 26.6583 100.308 26.9092 100.186 27.1133C100.064 27.3233 99.9013 27.4867 99.6923 27.6208C99.4832 27.7492 99.2451 27.8425 98.9721 27.9008C98.705 27.9592 98.4146 27.9883 98.1184 27.9883C98.0197 27.9883 97.8919 27.9825 97.7467 27.965C97.6015 27.9533 97.4505 27.93 97.2996 27.895C97.1427 27.8658 97.0034 27.8308 96.864 27.7842C96.7304 27.7375 96.6201 27.6908 96.5388 27.6383" fill="white"/>
<path d="M105.169 27.2591V27.895H101.812V21.8575H105.024V22.4991H102.555V24.5058H104.838V25.1416H102.555V27.2591H105.169Z" fill="white"/>
<path d="M111.197 25.4567C111.197 27.1483 110.396 28 108.793 28C107.19 28 106.487 27.1833 106.487 25.5558V21.8633H107.231V25.5092C107.231 26.7517 107.776 27.3642 108.868 27.3642C109.96 27.3642 110.454 26.7692 110.454 25.5733V21.8633H111.197V25.4625V25.4567Z" fill="white"/>
<path d="M119.409 27.895H118.671V23.8409C118.671 23.52 118.689 23.1292 118.729 22.6684H118.712C118.642 22.9425 118.578 23.135 118.526 23.2517L116.366 27.895H116L113.839 23.2867C113.776 23.1525 113.712 22.9425 113.648 22.6684H113.63C113.654 22.9075 113.665 23.3042 113.665 23.8525V27.895H112.951V21.8517H113.932L115.872 26.0634C116.023 26.3842 116.116 26.6292 116.162 26.7867H116.186C116.313 26.4542 116.412 26.2092 116.494 26.0459L118.474 21.8517H119.403V27.895H119.409Z" fill="white"/>
<path d="M126.459 28C125.559 28 124.845 27.72 124.305 27.1542C123.765 26.5884 123.492 25.8534 123.492 24.9492C123.492 23.9809 123.765 23.205 124.316 22.6275C124.868 22.05 125.617 21.7584 126.564 21.7584C127.435 21.7584 128.143 22.0384 128.678 22.5984C129.212 23.1584 129.479 23.8934 129.479 24.8034C129.479 25.7892 129.206 26.5709 128.66 27.1425C128.114 27.7142 127.377 28 126.465 28M126.517 22.4C125.855 22.4 125.315 22.6275 124.897 23.0884C124.485 23.5434 124.276 24.15 124.276 24.8909C124.276 25.6317 124.479 26.2325 124.88 26.6875C125.28 27.1367 125.809 27.37 126.459 27.37C127.15 27.37 127.702 27.1484 128.097 26.7225C128.498 26.285 128.695 25.6842 128.695 24.9084C128.695 24.1325 128.503 23.4967 128.114 23.0592C127.725 22.6217 127.191 22.4059 126.506 22.4059" fill="white"/>
<path d="M131.645 22.4991V24.5875H133.934V25.2233H131.645V27.9008H130.902V21.8575H134.114V22.4991H131.645Z" fill="white"/>
<path d="M143.522 27.895H142.61L139.352 23.0825C139.271 22.96 139.201 22.8375 139.149 22.7034H139.126C139.149 22.8317 139.16 23.1117 139.16 23.5317V27.895H138.423V21.8517H139.381L142.552 26.5942C142.686 26.7867 142.767 26.9267 142.808 26.9967H142.825C142.796 26.8217 142.784 26.5242 142.784 26.1042V21.8517H143.522V27.895Z" fill="white"/>
<path d="M150.264 27.9008H149.446L148.772 26.2091H146.089L145.456 27.9008H144.631L147.059 21.8575H147.825L150.259 27.9008H150.264ZM148.528 25.5733L147.535 23.0008C147.5 22.9133 147.471 22.7791 147.436 22.5983H147.419C147.39 22.7675 147.355 22.9075 147.314 23.0008L146.333 25.5733H148.528Z" fill="white"/>
<path d="M151.902 27.9008V22.4991H150.079V21.8575H154.469V22.4991H152.64V27.9008H151.902Z" fill="white"/>
<path d="M160.271 25.4508C160.271 27.1483 159.469 27.9941 157.867 27.9941C156.264 27.9941 155.561 27.1775 155.561 25.55V21.8575H156.304V25.5033C156.304 26.74 156.85 27.3583 157.942 27.3583C159.034 27.3583 159.527 26.7633 159.527 25.5675V21.8575H160.265V25.4508H160.271Z" fill="white"/>
<path d="M166.566 27.9008H165.683L164.621 26.2092C164.528 26.0517 164.429 25.9175 164.336 25.8067C164.249 25.6958 164.156 25.6025 164.057 25.5325C163.959 25.4625 163.86 25.41 163.75 25.3808C163.639 25.3517 163.517 25.3342 163.378 25.3342H162.768V27.9067H162.031V21.8633H163.918C164.197 21.8633 164.446 21.8983 164.685 21.9625C164.917 22.0325 165.12 22.1317 165.289 22.2658C165.463 22.4 165.596 22.5692 165.695 22.7675C165.794 22.9658 165.84 23.205 165.84 23.4733C165.84 23.6833 165.805 23.8758 165.742 24.0508C165.678 24.2258 165.579 24.3833 165.457 24.5175C165.335 24.6575 165.19 24.7742 165.016 24.8733C164.847 24.9725 164.65 25.0483 164.435 25.1008V25.1183C164.539 25.165 164.632 25.2175 164.714 25.2758C164.789 25.3342 164.865 25.3983 164.934 25.48C165.004 25.5558 165.074 25.6492 165.143 25.7483C165.213 25.8475 165.289 25.9642 165.376 26.0983L166.566 27.9125V27.9008ZM162.768 22.4992V24.6867H163.773C163.959 24.6867 164.127 24.6633 164.284 24.6108C164.441 24.5525 164.574 24.4767 164.69 24.3775C164.807 24.2783 164.899 24.1558 164.958 24.01C165.021 23.8642 165.056 23.7067 165.056 23.5258C165.056 23.205 164.946 22.9542 164.731 22.7675C164.51 22.5925 164.197 22.4992 163.779 22.4992H162.762H162.768Z" fill="white"/>
<path d="M172.519 27.9008H171.7L171.032 26.2091H168.349L167.716 27.9008H166.891L169.319 21.8575H170.086L172.519 27.9008ZM170.782 25.5733L169.789 23.0008C169.76 22.9133 169.725 22.7791 169.691 22.5983H169.673C169.65 22.7675 169.615 22.9075 169.574 23.0008L168.587 25.5733H170.782Z" fill="white"/>
<path d="M176.915 27.2591V27.895H173.628V21.8575H174.372V27.2591H176.915Z" fill="white"/>
<path d="M181.201 27.65V26.8158C181.3 26.8975 181.422 26.9733 181.561 27.0433C181.701 27.1075 181.846 27.1658 182.003 27.2125C182.159 27.2592 182.31 27.3 182.467 27.3233C182.624 27.3467 182.769 27.3583 182.903 27.3583C183.356 27.3583 183.698 27.2767 183.925 27.1133C184.151 26.95 184.262 26.7167 184.262 26.4192C184.262 26.2558 184.227 26.1158 184.151 25.9933C184.076 25.8708 183.971 25.76 183.838 25.6608C183.704 25.5617 183.547 25.4683 183.367 25.375C183.187 25.2817 182.99 25.1825 182.781 25.0833C182.56 24.9725 182.357 24.8675 182.159 24.7567C181.968 24.6517 181.799 24.5233 181.66 24.395C181.515 24.2608 181.405 24.115 181.323 23.9458C181.242 23.7767 181.201 23.5842 181.201 23.3567C181.201 23.0825 181.265 22.8433 181.393 22.6392C181.521 22.435 181.683 22.2658 181.892 22.1375C182.101 22.0033 182.334 21.9042 182.595 21.84C182.856 21.7758 183.124 21.7408 183.396 21.7408C184.018 21.7408 184.477 21.8167 184.761 21.9567V22.75C184.39 22.505 183.913 22.3825 183.327 22.3825C183.164 22.3825 183.002 22.4 182.839 22.4292C182.676 22.4642 182.537 22.5167 182.403 22.5867C182.276 22.6567 182.171 22.75 182.096 22.8667C182.02 22.9833 181.974 23.1233 181.974 23.2867C181.974 23.4442 182.008 23.5783 182.067 23.6892C182.125 23.8 182.218 23.905 182.334 23.9983C182.45 24.0917 182.595 24.1792 182.763 24.2667C182.932 24.3542 183.129 24.4475 183.344 24.5525C183.577 24.6575 183.786 24.7742 183.989 24.8908C184.192 25.0075 184.366 25.1417 184.523 25.2817C184.68 25.4217 184.796 25.585 184.889 25.7542C184.976 25.9292 185.023 26.1275 185.023 26.355C185.023 26.6525 184.965 26.9033 184.843 27.1133C184.721 27.3233 184.558 27.4867 184.349 27.615C184.14 27.7433 183.902 27.8367 183.635 27.895C183.362 27.9533 183.077 27.9825 182.781 27.9825C182.682 27.9825 182.554 27.9708 182.409 27.9592C182.264 27.9475 182.113 27.9242 181.962 27.895C181.805 27.8658 181.66 27.8308 181.526 27.7842C181.393 27.7433 181.283 27.6967 181.195 27.6383" fill="white"/>
<path d="M190.789 27.6442C190.325 27.8775 189.738 28 189.041 28C188.141 28 187.421 27.7259 186.881 27.1717C186.341 26.6175 186.068 25.8942 186.068 24.99C186.068 24.0275 186.37 23.2459 186.98 22.6509C187.589 22.0559 188.362 21.7584 189.297 21.7584C189.895 21.7584 190.394 21.8459 190.789 22.0092V22.7617C190.336 22.5167 189.837 22.3942 189.285 22.3942C188.559 22.3942 187.967 22.6275 187.52 23.0884C187.073 23.5492 186.84 24.1675 186.84 24.9434C186.84 25.7192 187.049 26.2675 187.473 26.6992C187.897 27.1425 188.449 27.3584 189.134 27.3584C189.773 27.3584 190.319 27.2242 190.784 26.9559V27.6442H190.789Z" fill="white"/>
<path d="M191.637 21.8575H193.618V22.4641H192.996V27.2883H193.618V27.895H191.637V27.2883H192.259V22.4641H191.637V21.8575Z" fill="white"/>
<path d="M198.194 27.2591V27.895H194.843V21.8575H198.055V22.4933H195.581V24.5058H197.869V25.1416H195.581V27.2591H198.194Z" fill="white"/>
<path d="M204.699 27.895H203.787L200.535 23.0825C200.447 22.96 200.384 22.8375 200.331 22.7033H200.308C200.331 22.8316 200.343 23.1058 200.343 23.5316V27.895H199.605V21.8575H200.569L203.735 26.5941C203.868 26.7925 203.955 26.9208 203.99 26.9966H204.007C203.978 26.8216 203.961 26.5241 203.961 26.11V21.8575H204.699V27.895Z" fill="white"/>
<path d="M210.843 27.6442C210.378 27.8775 209.792 28 209.095 28C208.195 28 207.474 27.7259 206.934 27.1717C206.394 26.6175 206.121 25.8942 206.121 24.99C206.121 24.0275 206.423 23.2459 207.033 22.6509C207.643 22.0559 208.415 21.7584 209.35 21.7584C209.954 21.7584 210.448 21.8459 210.843 22.0092V22.7617C210.39 22.5167 209.89 22.3942 209.345 22.3942C208.619 22.3942 208.026 22.6275 207.573 23.0884C207.126 23.5492 206.9 24.1675 206.9 24.9434C206.9 25.7192 207.109 26.2675 207.533 26.6992C207.957 27.1425 208.508 27.3584 209.194 27.3584C209.827 27.3584 210.378 27.2242 210.843 26.9559V27.6442Z" fill="white"/>
<path d="M215.669 27.2591V27.895H212.318V21.8575H215.53V22.4933H213.056V24.5058H215.344V25.1416H213.056V27.2591H215.669Z" fill="white"/>
<path d="M27.8762 0H0V28H27.8762V0Z" fill="#009D85"/>
<path d="M27.8762 23.5783H0V27.9941H27.8762V23.5783Z" fill="#005BAC"/>
<path d="M15.843 6.55086C15.7617 6.57419 15.692 6.5392 15.6456 6.47503L14.5015 6.86586C14.5131 6.9067 14.5247 6.94753 14.5247 6.9942C14.5247 7.0117 14.5131 7.01753 14.5131 7.0292L15.3261 7.12253V7.11086C15.361 7.05253 15.4365 7.03503 15.4946 7.07003C15.5585 7.10503 15.5701 7.18086 15.5352 7.23336C15.5062 7.2917 15.4249 7.3092 15.3784 7.28003C15.3494 7.26836 15.332 7.2392 15.3261 7.21003L14.4899 7.1167C14.4782 7.16336 14.4724 7.2217 14.455 7.26253L15.1461 7.66503C15.1461 7.66503 15.1461 7.65336 15.1577 7.65336C15.21 7.61836 15.2855 7.63003 15.3261 7.68836C15.3668 7.73503 15.3552 7.8167 15.2971 7.8517C15.2507 7.89253 15.1693 7.87503 15.1345 7.82253C15.1171 7.7992 15.1113 7.77003 15.1171 7.74086L14.4144 7.33253C14.3911 7.36753 14.3563 7.38503 14.3273 7.4142L15.0242 8.40003C15.0997 8.38253 15.1752 8.40003 15.2216 8.4642C15.2797 8.5517 15.2623 8.6742 15.1752 8.73253C15.088 8.79086 14.9661 8.77336 14.908 8.68586C14.8615 8.61586 14.879 8.54003 14.9196 8.47586L14.2343 7.49003C14.1879 7.51336 14.1414 7.5367 14.0891 7.5542L14.2459 8.37086C14.2459 8.37086 14.2924 8.38836 14.3156 8.4117C14.3563 8.47003 14.3447 8.54586 14.2924 8.58086C14.2343 8.6217 14.1646 8.61003 14.124 8.5517C14.0833 8.4992 14.1008 8.42336 14.1472 8.38253C14.1472 8.38253 14.1588 8.38253 14.1646 8.38253L14.002 7.57753C14.002 7.57753 13.973 7.5892 13.9556 7.5892C13.9149 7.5892 13.8917 7.56586 13.8568 7.56003L13.6652 8.3592C13.6652 8.3592 13.7117 8.40586 13.7117 8.43503C13.7233 8.4992 13.6826 8.5692 13.6129 8.57503C13.549 8.5867 13.4852 8.54586 13.4677 8.4817C13.4561 8.41753 13.4968 8.34753 13.5665 8.33586C13.5665 8.33586 13.5665 8.33586 13.5781 8.33586L13.7697 7.53086C13.7291 7.51336 13.6942 7.49003 13.6536 7.47253L12.9392 8.47003C12.9799 8.5342 12.9915 8.61003 12.9451 8.68003C12.8812 8.76753 12.765 8.79086 12.6779 8.7267C12.5908 8.66836 12.5734 8.54586 12.6314 8.45836C12.6779 8.3942 12.7592 8.38253 12.8347 8.40003L13.549 7.39086C13.5142 7.3617 13.4735 7.33253 13.4503 7.2917L12.7418 7.70586C12.7418 7.73503 12.7418 7.7642 12.7244 7.79336C12.6837 7.8517 12.6082 7.85753 12.556 7.82253C12.4979 7.78753 12.4805 7.70586 12.5269 7.65336C12.5618 7.59503 12.6314 7.58336 12.6895 7.61836C12.6953 7.61836 12.6953 7.63003 12.7011 7.63586L13.4097 7.2217C13.3922 7.18086 13.3864 7.12836 13.3864 7.08753L12.5385 7.1692C12.5385 7.1692 12.5153 7.21586 12.4921 7.22753C12.4398 7.26836 12.3585 7.24503 12.3295 7.19253C12.2946 7.1342 12.312 7.05836 12.3701 7.02336C12.4282 6.98836 12.5037 7.0117 12.5385 7.0642C12.5385 7.0642 12.5385 7.07586 12.5385 7.0817L13.369 7.00003C13.369 6.9592 13.3806 6.91836 13.3922 6.87753L12.2365 6.49836C12.1901 6.5567 12.1146 6.59753 12.0449 6.56253C11.9404 6.53336 11.8881 6.42253 11.9229 6.32336C11.952 6.2242 12.0623 6.16586 12.161 6.19503C12.2365 6.2242 12.2714 6.30003 12.283 6.37003L13.4387 6.75503C13.4619 6.70836 13.4968 6.6617 13.5316 6.62086L12.9044 6.06086C12.9044 6.06086 12.9044 6.07253 12.8986 6.07253C12.8347 6.1017 12.765 6.07253 12.7418 6.0142C12.7128 5.95003 12.7418 5.88003 12.8057 5.8567C12.8696 5.82753 12.9392 5.8567 12.9625 5.91503C12.9683 5.9442 12.9625 5.97336 12.9625 6.00253L13.5955 6.5742C13.6362 6.5392 13.6652 6.49836 13.7117 6.47503L13.3632 5.72836L13.3516 5.7342C13.2877 5.7342 13.2296 5.67586 13.2296 5.6117C13.2296 5.54753 13.2877 5.4892 13.3516 5.4892C13.4213 5.4892 13.4735 5.5417 13.4735 5.6117C13.4735 5.63503 13.4619 5.6642 13.4445 5.68753L13.7988 6.4517C13.7988 6.4517 13.8568 6.42836 13.8859 6.42836V5.2092C13.8104 5.18586 13.7639 5.12753 13.7639 5.04586C13.7639 4.94086 13.8452 4.85336 13.9498 4.85336C14.0543 4.85336 14.1414 4.94086 14.1414 5.04586C14.1414 5.12753 14.0833 5.18003 14.0136 5.2092V6.42253C14.0601 6.42836 14.1008 6.44586 14.1414 6.45753L14.4899 5.6992C14.4899 5.6992 14.4608 5.65253 14.4608 5.62336C14.4608 5.54753 14.5131 5.50086 14.5828 5.50086C14.6467 5.50086 14.7047 5.55336 14.7047 5.62336C14.7047 5.68753 14.6467 5.74003 14.5828 5.74003H14.5712L14.2285 6.4867C14.275 6.51003 14.304 6.5567 14.3505 6.5917L14.9951 6.03753C14.9951 6.03753 14.9893 6.02586 14.9835 6.02586C14.9661 5.95586 15.0067 5.8917 15.0648 5.8742C15.1287 5.85669 15.1984 5.8917 15.2216 5.95586C15.2332 6.02586 15.1984 6.09003 15.1345 6.10753C15.1055 6.11336 15.0822 6.10753 15.0532 6.09586L14.4086 6.65003C14.4376 6.68503 14.455 6.7142 14.4724 6.7492L15.6281 6.37003C15.6281 6.2942 15.6688 6.21836 15.7385 6.19503C15.8372 6.16003 15.9476 6.21836 15.9824 6.32336C16.0172 6.4167 15.965 6.52753 15.8663 6.56253M17.051 6.41086C17.051 5.64086 16.418 5.01086 15.6572 5.01086C15.512 5.01086 15.39 5.05169 15.2565 5.09253C15.1868 4.38086 14.606 3.82086 13.8859 3.82086C13.1309 3.82086 12.5153 4.42753 12.4921 5.18586C12.3933 5.16253 12.3004 5.12753 12.1901 5.12753C11.4235 5.12753 10.7963 5.76336 10.7963 6.53336C10.7963 7.14586 11.197 7.6592 11.7487 7.84586C11.6151 8.05586 11.528 8.29503 11.528 8.56336C11.528 9.33336 12.1552 9.9692 12.9218 9.9692C13.3748 9.9692 13.7639 9.73003 14.0195 9.39753C14.275 9.70086 14.6467 9.90503 15.0706 9.90503C15.843 9.90503 16.476 9.2692 16.476 8.50503C16.476 8.2017 16.3599 7.94503 16.2031 7.7117C16.7025 7.49586 17.0568 7.00003 17.0568 6.41086" fill="white"/>
<path d="M4.28599 4.45085C4.28599 4.45085 4.40214 4.45085 4.42537 4.45085C5.39523 4.51502 6.41736 4.87085 6.48124 6.20085V6.31752C6.48124 6.31752 6.46963 6.43418 6.46382 6.45752C6.27217 7.21585 5.84822 7.59502 5.18616 7.58335C5.16293 7.58335 5.09324 7.57168 5.05259 7.56002C4.50668 7.36752 4.28018 6.97668 4.40795 6.41668C4.40795 6.40502 4.41956 6.38168 4.41956 6.37585C4.50668 6.19502 4.63444 6.06668 4.81448 6.00835C4.82609 6.00835 4.88998 6.00252 4.89578 6.00252C5.1397 6.03168 5.28489 6.16585 5.43588 6.31752C5.31393 5.75752 4.9829 5.43085 4.23953 5.58835C3.53101 5.86835 3.2174 6.41085 3.47874 7.34418C3.65297 7.85752 4.07692 8.31835 4.76802 8.74418C5.34296 9.14668 6.00502 9.40918 6.84712 9.48502C7.70083 9.49668 8.54873 9.63085 9.3734 9.92252C10.0877 10.2492 10.7324 10.6458 11.3073 11.1067C12.0565 11.7658 12.614 12.565 12.9915 13.5217C13.2122 14.1458 13.398 14.7875 13.549 15.4408C13.5548 15.47 13.5723 15.5867 13.5781 15.6158C13.6419 16.2575 13.6768 16.8992 13.6652 17.5583C13.6129 18.4625 13.4213 19.285 13.038 20.0259C12.7127 20.5567 12.3178 20.9125 11.8823 21.1517C11.2957 21.3908 10.7324 21.4433 10.1923 21.2975C10.1748 21.2975 10.1168 21.2742 10.1052 21.2683C9.61732 21.035 9.21079 20.685 8.89137 20.1833C8.87395 20.1658 8.8333 20.09 8.82749 20.0725C8.56034 19.4483 8.56615 18.8183 8.86814 18.1942C9.02495 17.85 9.29209 17.5992 9.61151 17.3892C9.91931 17.2083 10.2852 17.1325 10.6917 17.1442C10.7207 17.1442 10.8369 17.1617 10.8601 17.1675C11.255 17.29 11.5919 17.5 11.8416 17.8383C12.0971 18.2292 12.1784 18.655 11.981 19.1333C11.801 19.4892 11.5222 19.6583 11.1505 19.635C10.744 19.6233 10.4478 19.4775 10.3955 19.04C10.3607 18.8067 10.4013 18.5733 10.4768 18.34C10.5698 18.13 10.5117 18.095 10.3142 18.235L10.0993 18.4275C10.0993 18.4275 10.0122 18.515 10.0006 18.5267C9.7625 18.8708 9.69862 19.1625 9.74508 19.4309C9.87285 19.8917 10.1806 20.2242 10.744 20.3408C11.2434 20.3583 11.679 20.1367 12.0449 19.6583C12.2714 19.3608 12.4166 18.9583 12.5095 18.4917C12.5792 17.9608 12.585 17.4183 12.4979 16.8583C12.4049 16.2867 12.2656 15.7267 12.0623 15.155C11.7951 14.5075 11.406 13.8833 10.8137 13.2883C10.3142 12.8392 9.72185 12.5008 9.03656 12.2383C8.40935 12.0342 7.7589 11.9525 7.07942 12.0225C6.56836 12.075 6.05148 12.0575 5.54042 11.9233C3.61232 11.2817 2.23593 9.98085 2.02686 7.51335V7.16335C2.1372 5.34335 2.95606 4.54418 4.26857 4.43335" fill="white"/>
<path d="M23.5903 4.45085C23.5903 4.45085 23.4741 4.45085 23.4509 4.45085C22.481 4.51502 21.4589 4.87085 21.395 6.20085V6.31752C21.395 6.31752 21.4066 6.43418 21.4124 6.45752C21.5983 7.21585 22.028 7.59502 22.6959 7.58335C22.7191 7.58335 22.783 7.57168 22.8237 7.56002C23.3696 7.36752 23.5961 6.97668 23.4683 6.41668C23.4683 6.40502 23.4567 6.38168 23.4567 6.37585C23.3696 6.19502 23.2418 6.06668 23.056 6.00835C23.0444 6.00835 22.9805 6.00252 22.9747 6.00252C22.7307 6.03168 22.5914 6.16585 22.4404 6.31752C22.5623 5.75752 22.8934 5.43085 23.6367 5.58835C24.3452 5.86835 24.6588 6.41085 24.3975 7.34418C24.2233 7.85752 23.7993 8.31835 23.1082 8.74418C22.5333 9.14668 21.8712 9.40918 21.0291 9.48502C20.1754 9.49668 19.3275 9.63085 18.497 9.92252C17.7885 10.2492 17.1381 10.6458 16.5689 11.1067C15.8198 11.7658 15.2622 12.565 14.8848 13.5217C14.6641 14.1458 14.4782 14.7875 14.3272 15.4408C14.3214 15.47 14.304 15.5867 14.2982 15.6158C14.2343 16.2575 14.1995 16.8992 14.2111 17.5583C14.2633 18.4625 14.455 19.285 14.8325 20.0259C15.1577 20.5567 15.5526 20.9125 15.9882 21.1517C16.5747 21.3908 17.1439 21.4433 17.6782 21.2975C17.6956 21.2975 17.7537 21.2742 17.7653 21.2683C18.2531 21.035 18.6655 20.685 18.9791 20.1833C18.9907 20.1658 19.0371 20.09 19.0371 20.0725C19.3101 19.4483 19.3043 18.8183 19.0023 18.1942C18.8455 17.85 18.5783 17.5992 18.2589 17.3892C17.9511 17.2083 17.5853 17.1325 17.1787 17.1442C17.1497 17.1442 17.0335 17.1617 17.0103 17.1675C16.6154 17.29 16.2786 17.5 16.0288 17.8383C15.7733 18.2292 15.692 18.655 15.8895 19.1333C16.0695 19.4892 16.3483 19.6583 16.7199 19.635C17.1265 19.6233 17.4226 19.4775 17.4691 19.04C17.504 18.8067 17.4633 18.5733 17.3878 18.34C17.2949 18.13 17.353 18.095 17.5504 18.235L17.7653 18.4275C17.7653 18.4275 17.8524 18.515 17.8582 18.5267C18.1021 18.8708 18.1602 19.1625 18.1137 19.4309C17.986 19.8917 17.6782 20.2242 17.1148 20.3408C16.6154 20.3583 16.1798 20.1367 15.814 19.6583C15.5875 19.3608 15.4423 18.9583 15.3494 18.4917C15.2739 17.9608 15.2739 17.4183 15.361 16.8583C15.4539 16.2867 15.5875 15.7267 15.7965 15.155C16.0637 14.5075 16.4528 13.8833 17.0452 13.2883C17.5446 12.8392 18.137 12.5008 18.8223 12.2383C19.4437 12.0342 20.0941 11.9525 20.7736 12.0225C21.2847 12.075 21.8015 12.0575 22.3126 11.9233C24.2407 11.2817 25.6171 9.98085 25.8262 7.51335V7.16335C25.7216 5.34335 24.897 4.54418 23.5845 4.43335" fill="white"/>
</g>
<defs>
<clipPath id="clip0_1326_323">
<rect width="216" height="28" fill="white"/>
</clipPath>
</defs>
</svg>
