<svg width="213" height="108" viewBox="0 0 213 108" fill="none" xmlns="http://www.w3.org/2000/svg">
<path d="M0.0884688 74.9593H20.6717V95.2089H18.537V94.3003H2.21636V95.2089H0.0816498V74.9593H0.0884688ZM2.21636 92.5377H18.5575V76.7014H2.21636V92.5377ZM12.2488 88.1174C11.5054 86.0884 11.0417 83.7041 10.8507 80.9645H3.12344V79.2224H10.762V77.3846H12.7603V79.2224H17.7459V80.9645H12.7808C12.8763 83.0687 13.1491 84.8108 13.6197 86.1977C14.5131 84.64 15.161 83.1507 15.543 81.7365L17.1934 82.7066C16.4637 84.6879 15.5498 86.5871 14.4517 88.3839C14.4517 88.4727 14.6086 88.7596 14.9155 89.2447C15.2088 89.7161 15.4543 89.9484 15.6589 89.9484C15.9181 89.9484 16.2523 89.0807 16.6547 87.3454L18.2779 88.5615C17.5822 90.9185 16.6751 92.0936 15.5634 92.0936C14.6973 92.0936 13.8788 91.3557 13.1013 89.8869C12.2147 90.9732 11.4304 91.7998 10.7347 92.36L9.26841 90.857C9.99817 90.372 10.5711 89.9006 10.9871 89.4633C9.09791 89.9484 6.57444 90.4129 3.41671 90.857L3.06888 88.9578C5.61963 88.828 8.36133 88.4317 11.2872 87.7622V89.1764L12.242 88.1174H12.2488ZM3.84638 82.2011H9.75946V87.3659H3.84638V82.2011ZM7.99986 83.8134H5.63326V85.7605H7.99986V83.8134ZM15.3588 79.2292C15.0178 78.3957 14.6154 77.7535 14.1517 77.2821L15.7476 76.7697C16.0272 77.0362 16.2591 77.3094 16.4432 77.61C16.6751 77.9653 16.8934 78.2932 17.0911 78.6075L15.352 79.2292H15.3588Z" fill="white"/>
<path d="M45.2785 94.4668H23.3858V92.3421H45.2785V94.4668ZM23.8087 78.7877H44.883V80.9056H23.8087V78.7877ZM29.9605 91.6384C29.3125 88.2294 28.3782 85.1482 27.1505 82.4086L29.3739 81.7664C30.5538 84.1371 31.5632 87.2182 32.4157 91.0031L29.9536 91.6453L29.9605 91.6384ZM34.489 78.7877C33.732 78.0021 32.4157 76.95 30.5402 75.6246L32.2111 74.4085C33.7593 75.3103 35.0824 76.2599 36.1804 77.2847L34.489 78.7877ZM41.5888 82.2515C40.8182 85.7357 39.7951 88.8647 38.5266 91.618L36.0918 90.8733C37.4217 88.2772 38.4925 85.2165 39.2973 81.6776L41.5957 82.2515H41.5888Z" fill="white"/>
<path d="M58.5636 76.97H67.2456V95.2179H64.8995V94.0906H51.6002V95.2179H49.2813V76.97H56.2447C56.5857 76.2595 56.8995 75.4191 57.1995 74.4285L59.5661 74.5857C59.4297 74.9546 59.2797 75.344 59.1228 75.7539C59.0001 76.0818 58.8091 76.4849 58.5636 76.97ZM64.8995 79.0674H51.6002V81.6088H64.8995V79.0674ZM51.6002 86.6507H64.8995V83.6652H51.6002V86.6507ZM51.6002 91.9932H64.8995V88.7003H51.6002V91.9932Z" fill="white"/>
<path d="M76.5372 89.6089C75.7665 91.8088 74.7572 93.6124 73.5227 95.0402L71.388 93.7832C72.6838 92.2392 73.6864 90.579 74.3821 88.8164L76.5441 89.6089H76.5372ZM86.4469 83.2689C85.5398 85.8036 83.6507 87.7506 80.7862 89.1238L79.4358 87.2929C82.4844 85.9402 84.3327 84.0204 84.9806 81.5541H82.0547C81.4955 82.9342 80.3974 84.3006 78.7606 85.6669C77.1374 87.0196 75.2141 88.1059 73.0044 88.9326L71.729 86.965C73.7546 86.4116 75.3983 85.5986 76.6464 84.5397C75.0095 83.2143 74.0683 82.5516 73.8364 82.5516C73.6659 82.7429 73.4886 82.9069 73.3045 83.0367C73.134 83.1528 72.9703 83.2689 72.8134 83.3919L71.4903 81.5951C74.1024 79.8052 75.8961 77.414 76.851 74.4149L78.9584 74.9956C78.8152 75.2757 78.6992 75.5489 78.5901 75.8086C78.5287 75.9998 78.4469 76.1706 78.3309 76.3141H83.4392V77.4209C83.4392 78.1382 83.2415 78.8829 82.8527 79.6549H85.2875V74.7633H87.5382V79.6481H92.9465V81.5473H87.9269C88.1315 82.415 88.7112 83.4056 89.666 84.5055C90.6413 85.5918 91.828 86.5072 93.2194 87.2451L91.9167 89.1033C89.4751 87.6618 87.6405 85.7216 86.4128 83.2758M75.1391 81.2877C76.0394 81.7591 77.0419 82.4286 78.1536 83.3031C78.5696 82.9615 78.972 82.4969 79.3676 81.9026C77.5534 80.789 76.4486 80.2356 76.0462 80.2356C75.6301 80.7548 75.3301 81.1101 75.1459 81.2877M77.001 78.8829C77.7103 79.1493 78.7947 79.6276 80.2474 80.3381C80.6975 79.6686 80.9976 78.8897 81.1545 78.0221H77.4852C77.3761 78.3158 77.2124 78.6028 77.001 78.8829ZM78.2764 94.9446C78.3037 94.4595 78.3173 93.8037 78.3173 92.977C78.3173 91.7951 78.2832 90.7567 78.2286 89.8617L80.4997 89.7729C80.6839 91.0231 80.7794 92.5603 80.7794 94.3912V94.8558L78.2764 94.9446ZM84.2849 94.9036C84.1144 93.1615 83.8143 91.4808 83.3779 89.8412L85.6285 89.6431C86.14 91.0163 86.5424 92.6627 86.8357 94.5825L84.2849 94.8968V94.9036ZM90.3412 79.327C89.5365 78.1792 88.8135 77.2501 88.1793 76.5464L89.8025 75.508C90.389 76.1092 91.1324 76.9836 92.0326 78.1382L90.3344 79.327H90.3412ZM90.9005 95.0061C89.7752 92.5603 88.8749 90.8113 88.2065 89.7524L90.3412 88.8711C91.2824 90.2648 92.2509 91.9591 93.2398 93.9471L90.8937 95.0061H90.9005Z" fill="white"/>
<path d="M99.8946 77.6126C99.0694 77.7561 97.8691 77.8859 96.2936 77.9884L95.8094 76.137C99.274 75.9798 102.254 75.4401 104.744 74.5451L105.535 76.3556C104.423 76.7245 103.25 77.0251 102.029 77.2574V80.3727H105.555V82.272H102.029V82.4701C103.762 84.0004 105.071 85.2233 105.951 86.1388L104.648 88.0381C104.185 87.4164 103.721 86.8561 103.257 86.3574C102.855 85.8997 102.445 85.4078 102.029 84.8749V95.1295L99.8946 95.2183V86.1388C99.3013 87.553 98.251 89.1995 96.7369 91.0851L95.4343 89.097C97.3848 86.986 98.8443 84.7109 99.8196 82.272H95.5707V80.3727H99.8878V77.6058L99.8946 77.6126ZM105.283 90.2721V88.2225L113.058 87.1158V74.4085H115.213V86.8698L117.3 86.5351V88.5504L115.213 88.8784V95.2183H113.058V89.1448L105.283 90.2721ZM110.323 85.7904C108.727 84.5265 107.315 83.5495 106.094 82.8595L107.465 81.377C108.624 81.9509 110.057 82.8595 111.762 84.0892L110.323 85.7904ZM110.739 80.4205C109.02 79.1088 107.629 78.1455 106.558 77.5238L107.956 76.0686C108.959 76.6015 110.377 77.4965 112.205 78.7604L110.739 80.4205Z" fill="white"/>
<path d="M136.757 86.4257V88.0381C135.399 88.7281 133.715 89.3703 131.723 89.9578H141.36V91.7478H131.723V92.6496C131.723 94.2209 131.021 95.0202 129.609 95.0202H126.199L125.667 93.2303L128.845 93.3191C129.309 93.3191 129.541 93.1005 129.541 92.6496V91.7478H119.461V89.9578H129.541V89.0082C130.605 88.8306 131.962 88.5095 133.599 88.0586H123.832V86.4257H136.757ZM138.823 85.4761H122.066V88.7144H119.999V83.7203H121.159L120.9 75.242C122.912 75.1873 124.617 74.9687 126.008 74.5998L127.031 76.2326C126.165 76.5195 124.787 76.7108 122.898 76.8338L122.966 77.9611H126.588V79.4572H123.034L123.062 80.7143H126.588V82.2446H123.109L123.15 83.7203H137.684L137.711 82.2446H134.458V80.7143H137.78L137.821 79.4572H134.458V77.9611H137.875L137.896 76.745H134.206V75.0029H139.935L139.676 83.7272H140.91V88.7212H138.816V85.4829L138.823 85.4761ZM130.768 77.5238C129.998 77.9952 129.084 78.4461 128.054 78.8697L126.867 77.3872C128.17 77.0524 129.023 76.745 129.418 76.4854C129.036 76.1916 128.504 75.8432 127.843 75.4469L129.098 74.4017C129.698 74.7706 130.312 75.1805 130.925 75.6177C131.587 75.1942 132.064 74.7911 132.344 74.4222L133.497 75.4196C133.162 75.8637 132.705 76.2531 132.126 76.6084C132.439 76.8748 132.849 77.2642 133.36 77.7834L131.942 78.7741C131.328 77.9337 130.932 77.517 130.762 77.517M130.905 82.0397C130.196 82.5111 129.288 82.9278 128.19 83.2831L127.195 81.8006C128.265 81.5751 129.063 81.3155 129.602 81.0012C129.295 80.7826 128.777 80.4274 128.047 79.9423L129.254 78.9722C129.548 79.1635 129.82 79.3206 130.066 79.4572C130.352 79.6485 130.68 79.8808 131.034 80.1404C131.498 79.8603 132.03 79.4026 132.637 78.7672L133.865 79.7578C133.292 80.2976 132.767 80.7416 132.283 81.0832C132.726 81.4521 133.169 81.8416 133.606 82.2583L132.119 83.3309C131.41 82.4633 131 82.0329 130.891 82.0329" fill="white"/>
<path d="M143.429 81.8747V79.8935H145.863V74.4075H147.998V79.8867H149.833V81.8679H147.998V95.2105H145.863V81.8747H143.429ZM158.208 74.4075V76.3546H161.529C161.298 76.0472 160.902 75.6577 160.35 75.1864L161.829 74.387C162.402 74.8106 162.914 75.2683 163.364 75.7534L162.157 76.3546H165.315V78.1309H158.215V79.0532H164.319V85.5913C164.319 86.6775 164.162 87.3471 163.855 87.5793C163.528 87.8116 163.112 87.9483 162.6 87.9756V88.6383H165.315V90.4965H162.6V92.6554C162.6 94.2267 161.898 95.0261 160.493 95.0261H158.078L157.546 93.079L159.886 93.1746C160.349 93.1746 160.581 92.956 160.581 92.5324V90.5034H153.761C154.361 90.9884 155.207 91.8288 156.292 93.0175L154.593 94.4317C153.864 93.4616 153.025 92.5256 152.063 91.6238L153.57 90.4965H149.485V88.6383H160.581V87.9756H159.933L159.449 86.4794L161.7 86.5204C162.136 86.5204 162.348 86.3223 162.348 85.9465V85.6323H158.215V87.5315H156.216V85.6323H152.636V87.9483H150.665V79.0532H156.216V78.1309H150.037V76.3546H156.216V74.4075H158.215H158.208ZM156.21 80.6382H152.629V81.6561H156.21V80.6382ZM156.21 83.0703H152.629V84.1976H156.21V83.0703ZM162.334 80.6382H158.201V81.6561H162.334V80.6382ZM162.334 83.0703H158.201V84.1976H162.334V83.0703Z" fill="white"/>
<path d="M169.543 84.5055L167.477 83.8155C168.207 81.964 168.616 79.4158 168.705 76.1775L170.635 76.3756C170.614 76.9221 170.607 77.3594 170.607 77.701C170.594 78.1587 170.566 78.5618 170.539 78.917H172.046V74.408H174.181V78.917H176.22V80.9256H174.181V84.6831C175.17 84.28 175.907 83.9589 176.384 83.713L176.752 85.7694C175.92 86.1793 175.061 86.5687 174.181 86.9376V95.2178H172.046V87.7096C171.439 87.9897 170.819 88.2357 170.191 88.4543C169.571 88.6729 168.977 88.8984 168.404 89.117L167.518 86.9786C169.605 86.3433 171.119 85.8309 172.046 85.4278V80.9256H170.307C170.048 82.5174 169.789 83.7062 169.543 84.5055ZM185.837 79.286C185.762 82.8795 184.984 85.9607 183.518 88.5226C182.045 91.0846 180.353 93.0248 178.437 94.3502L176.739 92.6081C178.676 91.3783 180.326 89.5679 181.704 87.1426C183.075 84.7446 183.77 82.128 183.77 79.3065V79.2655H182.795C182.488 83.1528 180.688 86.5619 177.407 89.4928L175.688 87.7643C178.778 85.4688 180.469 82.6336 180.749 79.2586H179.726C179.276 80.6318 178.546 81.8957 177.544 83.0571L175.757 81.6634C177.475 79.7232 178.464 77.2979 178.73 74.3943L180.981 74.5925C180.749 75.8905 180.538 76.8265 180.333 77.4004H188.756V78.7462C188.756 83.0093 188.688 86.4731 188.544 89.1512C188.401 91.8224 188.081 93.4484 187.569 94.0359C187.071 94.6235 185.932 94.9241 184.159 94.9241C183.6 94.9241 183.088 94.9104 182.604 94.8831L182.065 92.4714C183.041 92.6081 183.873 92.6696 184.575 92.6696C185.209 92.6696 185.653 92.5534 185.898 92.3143C186.13 92.0752 186.321 91.0846 186.457 89.3288C186.642 87.0743 186.744 84.5055 186.744 81.6225C186.744 80.6523 186.73 79.853 186.717 79.2381L185.837 79.2791V79.286Z" fill="white"/>
<path d="M197.334 76.1496C196.222 77.7961 194.524 79.3674 192.246 80.8568L191.455 79.1352C193.392 77.9396 195.036 76.4024 196.4 74.5168H198.118C199.244 75.5006 200.355 76.5391 201.44 77.6322L200.158 79.1967C199.292 78.1719 198.35 77.1539 197.327 76.1496M200.649 88.6109H194.981V92.3001C196.495 91.9927 197.661 91.7126 198.487 91.4667C198.18 90.845 197.798 90.2233 197.348 89.5811L199.026 88.8979C200.11 90.2233 201.037 91.7468 201.808 93.4684L199.858 94.3702C199.455 93.4001 199.23 92.915 199.182 92.915C197.252 93.6187 194.811 94.2267 191.871 94.746L191.455 92.8467C191.98 92.8057 192.465 92.7237 192.894 92.6076V80.3922H196.516C196.379 79.7159 196.12 79.019 195.752 78.3153L197.539 78.0694C197.955 78.6774 198.282 79.4494 198.514 80.3854H200.649V88.6041V88.6109ZM198.623 81.984H194.981V83.6647H198.623V81.984ZM194.981 87.0191H198.623V85.1677H194.981V87.0191ZM202.34 80.8363H201.46V76.4434H206.173C206.03 75.8559 205.771 75.2683 205.402 74.7013L207.401 74.387C207.585 74.7081 207.749 75.0429 207.892 75.3981C208.015 75.7534 208.144 76.095 208.287 76.4434H213V80.8431H211.609V85.8987H204.318V87.6272H212.509V95.2242H210.518V93.9398H204.318V95.2242H202.347V80.8363H202.34ZM211.049 78.2743H203.459V79.9755H211.049V78.2743ZM209.651 81.8133H204.311V84.0609H209.651V81.8133ZM210.511 89.4308H204.311V92.1225H210.511V89.4308Z" fill="white"/>
<path d="M5.98834 107.057H4.91758L1.09146 101.42C0.995982 101.277 0.914139 101.133 0.852757 100.976H0.825479C0.852759 101.127 0.866398 101.455 0.866398 101.946V107.057H0.000236511V99.9857H1.13238L4.84938 105.533C5.00624 105.765 5.10854 105.923 5.14946 106.005H5.16992C5.13582 105.8 5.12218 105.451 5.12218 104.959V99.9789H5.98834V107.05V107.057Z" fill="white"/>
<path d="M13.9007 107.179H12.939L12.1547 105.198H8.99699L8.2536 107.179H7.28513L10.136 100.108H11.0362L13.9007 107.179ZM11.8615 104.453L10.6952 101.44C10.6543 101.345 10.6202 101.181 10.5793 100.969H10.5588C10.5247 101.167 10.4838 101.331 10.4429 101.44L9.29026 104.453H11.8615Z" fill="white"/>
<path d="M15.8224 107.179V100.852H13.6809V100.101H18.8369V100.852H16.6886V107.179H15.8224Z" fill="white"/>
<path d="M19.4934 100.108H21.8123V100.819H21.0894V106.469H21.8123V107.179H19.4934V106.469H20.2232V100.819H19.4934V100.108Z" fill="white"/>
<path d="M26.2508 107.179C25.1937 107.179 24.3548 106.851 23.7205 106.188C23.0862 105.533 22.7657 104.665 22.7657 103.606C22.7657 102.472 23.0862 101.563 23.7341 100.887C24.3821 100.211 25.2619 99.869 26.3736 99.869C27.3966 99.869 28.2286 100.197 28.8561 100.853C29.4836 101.509 29.7973 102.369 29.7973 103.435C29.7973 104.59 29.4767 105.498 28.8356 106.175C28.1945 106.844 27.3352 107.179 26.2576 107.179M26.319 100.62C25.5415 100.62 24.9004 100.894 24.4162 101.427C23.9319 101.96 23.6864 102.663 23.6864 103.538C23.6864 104.412 23.9251 105.109 24.3957 105.635C24.8731 106.168 25.4938 106.434 26.2576 106.434C27.0692 106.434 27.7103 106.182 28.1809 105.676C28.6515 105.17 28.8834 104.46 28.8834 103.551C28.8834 102.643 28.6583 101.891 28.2014 101.386C27.7444 100.88 27.117 100.62 26.3122 100.62" fill="white"/>
<path d="M37.4629 107.179H36.3921L32.566 101.542C32.4706 101.399 32.3887 101.255 32.3273 101.098H32.2932C32.3205 101.249 32.3341 101.57 32.3341 102.068V107.179H31.468V100.108H32.5933L36.3171 105.655C36.474 105.881 36.5695 106.038 36.6172 106.127H36.6377C36.6036 105.922 36.5831 105.573 36.5831 105.081V100.101H37.4561V107.172L37.4629 107.179Z" fill="white"/>
<path d="M45.374 107.179H44.4056L43.6213 105.198H40.4703L39.7269 107.179H38.7585L41.6093 100.108H42.5096L45.374 107.179ZM43.3348 104.453L42.1686 101.44C42.1276 101.345 42.0935 101.181 42.0526 100.969H42.0322C41.998 101.167 41.9571 101.331 41.9162 101.44L40.7636 104.453H43.3348Z" fill="white"/>
<path d="M50.5375 106.428V107.179H46.6841V100.108H47.5503V106.428H50.5375Z" fill="white"/>
<path d="M63.3807 107.057H62.5145V102.308C62.5145 101.933 62.5418 101.475 62.5827 100.935H62.5623C62.4804 101.256 62.4054 101.482 62.3372 101.618L59.8001 107.057H59.3704L56.8333 101.659C56.7651 101.502 56.6901 101.256 56.6082 100.935H56.5878C56.6151 101.215 56.6287 101.68 56.6287 102.322V107.057H55.7898V99.9788H56.9424L59.2204 104.911C59.3977 105.287 59.5068 105.574 59.5614 105.759H59.5955C59.7387 105.369 59.8615 105.082 59.9501 104.891L62.2758 99.9788H63.3602V107.057H63.3807Z" fill="white"/>
<path d="M70.9851 104.2C70.9851 106.181 70.0439 107.179 68.1615 107.179C66.2792 107.179 65.4539 106.222 65.4539 104.316V99.9915H66.3269V104.261C66.3269 105.717 66.968 106.434 68.2502 106.434C69.5324 106.434 70.1121 105.737 70.1121 104.337V99.9915H70.9783V104.207L70.9851 104.2Z" fill="white"/>
<path d="M72.7041 106.775V105.798C72.82 105.901 72.9632 105.982 73.1269 106.064C73.2906 106.146 73.4679 106.208 73.6453 106.263C73.8294 106.317 74.0135 106.358 74.1909 106.392C74.375 106.42 74.5455 106.433 74.7024 106.433C75.2343 106.433 75.6367 106.338 75.9027 106.146C76.1687 105.962 76.2983 105.682 76.2983 105.327C76.2983 105.142 76.2574 104.971 76.1687 104.835C76.0801 104.691 75.9573 104.561 75.8004 104.445C75.6436 104.329 75.4594 104.213 75.248 104.111C75.0366 104.001 74.8047 103.892 74.566 103.769C74.3068 103.646 74.0681 103.516 73.8362 103.393C73.6112 103.263 73.4202 103.12 73.2497 102.97C73.086 102.813 72.9496 102.642 72.8609 102.444C72.7654 102.245 72.7177 102.013 72.7177 101.754C72.7177 101.432 72.7927 101.152 72.9428 100.913C73.086 100.674 73.2838 100.476 73.5293 100.326C73.7748 100.169 74.0476 100.052 74.3546 99.9773C74.6615 99.9021 74.982 99.8611 75.3026 99.8611C76.0323 99.8611 76.5711 99.95 76.9053 100.114V101.043C76.462 100.756 75.9027 100.613 75.2139 100.613C75.0229 100.613 74.8388 100.633 74.641 100.667C74.45 100.708 74.2864 100.77 74.1363 100.852C73.9863 100.941 73.8635 101.05 73.7748 101.18C73.6793 101.309 73.6316 101.473 73.6316 101.672C73.6316 101.856 73.6657 102.006 73.7339 102.136C73.8021 102.266 73.9112 102.389 74.0476 102.498C74.184 102.608 74.3545 102.71 74.5523 102.813C74.7501 102.915 74.982 103.024 75.2343 103.147C75.5072 103.27 75.7527 103.407 75.9914 103.544C76.2301 103.68 76.4347 103.83 76.6189 104.001C76.7962 104.172 76.9394 104.357 77.0485 104.555C77.1508 104.76 77.2054 104.999 77.2054 105.258C77.2054 105.607 77.1372 105.901 76.994 106.14C76.8507 106.386 76.6598 106.577 76.4142 106.734C76.1687 106.884 75.8891 106.994 75.5685 107.062C75.2548 107.13 74.9138 107.164 74.566 107.164C74.45 107.164 74.3 107.158 74.1295 107.137C73.959 107.123 73.7817 107.096 73.6043 107.055C73.4202 107.021 73.2565 106.98 73.0928 106.925C72.936 106.871 72.8064 106.816 72.7109 106.754" fill="white"/>
<path d="M82.8441 106.311V107.056H78.902V99.9852H82.6736V100.737H79.775V103.087H82.4553V103.832H79.775V106.311H82.8441Z" fill="white"/>
<path d="M89.925 104.2C89.925 106.181 88.9838 107.179 87.1014 107.179C85.2191 107.179 84.3938 106.222 84.3938 104.316V99.9915H85.2668V104.261C85.2668 105.717 85.9079 106.434 87.1901 106.434C88.4723 106.434 89.052 105.737 89.052 104.337V99.9915H89.925V104.207V104.2Z" fill="white"/>
<path d="M99.5687 107.057H98.7025V102.308C98.7025 101.933 98.723 101.475 98.7707 100.935H98.7503C98.6684 101.256 98.5934 101.482 98.532 101.618L95.9949 107.057H95.5652L93.0281 101.659C92.9531 101.502 92.8781 101.256 92.8031 100.935H92.7826C92.8099 101.215 92.8235 101.68 92.8235 102.322V107.057H91.9846V99.9788H93.1372L95.4152 104.911C95.5925 105.287 95.7016 105.574 95.7562 105.759H95.7835C95.9335 105.369 96.0495 105.082 96.1449 104.891L98.4706 99.9788H99.5619V107.057H99.5687Z" fill="white"/>
<path d="M107.848 107.179C106.791 107.179 105.952 106.851 105.318 106.188C104.684 105.526 104.363 104.665 104.363 103.606C104.363 102.472 104.684 101.563 105.332 100.887C105.979 100.211 106.859 99.869 107.971 99.869C108.994 99.869 109.826 100.197 110.453 100.853C111.081 101.509 111.395 102.369 111.395 103.435C111.395 104.59 111.074 105.505 110.433 106.175C109.792 106.844 108.926 107.179 107.855 107.179M107.916 100.62C107.139 100.62 106.505 100.887 106.014 101.427C105.529 101.96 105.284 102.67 105.284 103.538C105.284 104.405 105.522 105.109 105.993 105.642C106.464 106.168 107.084 106.441 107.848 106.441C108.66 106.441 109.308 106.182 109.771 105.683C110.242 105.17 110.474 104.467 110.474 103.558C110.474 102.65 110.249 101.905 109.792 101.392C109.335 100.88 108.708 100.627 107.903 100.627" fill="white"/>
<path d="M113.939 100.737V103.182H116.626V103.927H113.939V107.063H113.066V99.9852H116.837V100.737H113.939Z" fill="white"/>
<path d="M127.886 107.057H126.815L122.989 101.42C122.893 101.277 122.811 101.133 122.75 100.976H122.723C122.75 101.127 122.764 101.455 122.764 101.946V107.057H121.897V99.9788H123.023L126.747 105.533C126.903 105.759 126.999 105.923 127.047 106.005H127.067C127.033 105.8 127.019 105.451 127.019 104.959V99.9788H127.886V107.057Z" fill="white"/>
<path d="M135.804 107.063H134.842L134.051 105.082H130.9L130.157 107.063H129.188L132.039 99.9852H132.939L135.797 107.063H135.804ZM133.765 104.337L132.598 101.324C132.558 101.222 132.523 101.065 132.483 100.853H132.462C132.428 101.051 132.387 101.215 132.339 101.324L131.187 104.337H133.765Z" fill="white"/>
<path d="M137.726 107.063V100.737H135.584V99.9852H140.74V100.737H138.592V107.063H137.726Z" fill="white"/>
<path d="M147.554 104.194C147.554 106.182 146.613 107.172 144.73 107.172C142.848 107.172 142.023 106.216 142.023 104.31V99.9852H142.896V104.255C142.896 105.703 143.537 106.428 144.819 106.428C146.101 106.428 146.681 105.731 146.681 104.33V99.9852H147.547V104.194H147.554Z" fill="white"/>
<path d="M154.946 107.062H153.91L152.662 105.081C152.552 104.897 152.437 104.74 152.327 104.61C152.225 104.48 152.116 104.371 152 104.289C151.884 104.207 151.768 104.145 151.639 104.111C151.509 104.077 151.366 104.056 151.202 104.056H150.486V107.069H149.62V99.9915H151.836C152.164 99.9915 152.457 100.033 152.737 100.108C153.009 100.19 153.248 100.306 153.446 100.463C153.651 100.62 153.807 100.818 153.923 101.05C154.039 101.283 154.094 101.563 154.094 101.877C154.094 102.123 154.053 102.349 153.978 102.553C153.903 102.758 153.787 102.943 153.644 103.1C153.5 103.264 153.33 103.401 153.125 103.517C152.928 103.633 152.696 103.722 152.443 103.783V103.804C152.566 103.858 152.675 103.92 152.771 103.988C152.859 104.056 152.948 104.132 153.03 104.227C153.112 104.316 153.194 104.425 153.275 104.542C153.357 104.658 153.446 104.794 153.548 104.951L154.946 107.076V107.062ZM150.486 100.736V103.298H151.666C151.884 103.298 152.082 103.271 152.266 103.209C152.45 103.141 152.607 103.052 152.743 102.936C152.88 102.82 152.989 102.676 153.057 102.506C153.132 102.335 153.173 102.15 153.173 101.939C153.173 101.563 153.044 101.269 152.791 101.05C152.532 100.845 152.164 100.736 151.673 100.736H150.479H150.486Z" fill="white"/>
<path d="M161.94 107.063H160.978L160.194 105.082H157.043L156.3 107.063H155.331L158.182 99.9852H159.082L161.94 107.063ZM159.901 104.337L158.734 101.324C158.7 101.222 158.659 101.065 158.618 100.853H158.598C158.571 101.051 158.53 101.215 158.482 101.324L157.323 104.337H159.901Z" fill="white"/>
<path d="M167.1 106.311V107.056H163.239V99.9852H164.112V106.311H167.1Z" fill="white"/>
<path d="M172.137 106.772V105.795C172.253 105.89 172.396 105.979 172.56 106.061C172.723 106.136 172.894 106.205 173.078 106.259C173.262 106.314 173.439 106.362 173.624 106.389C173.808 106.416 173.978 106.43 174.135 106.43C174.667 106.43 175.069 106.334 175.335 106.143C175.601 105.952 175.731 105.678 175.731 105.33C175.731 105.139 175.69 104.975 175.601 104.831C175.513 104.688 175.39 104.558 175.233 104.442C175.076 104.326 174.892 104.216 174.681 104.107C174.469 103.998 174.237 103.882 173.992 103.766C173.733 103.636 173.494 103.513 173.262 103.383C173.037 103.26 172.839 103.11 172.675 102.959C172.505 102.802 172.375 102.631 172.28 102.433C172.184 102.235 172.137 102.01 172.137 101.743C172.137 101.422 172.212 101.142 172.362 100.903C172.512 100.664 172.703 100.466 172.948 100.315C173.194 100.158 173.467 100.042 173.774 99.967C174.08 99.8919 174.394 99.8509 174.715 99.8509C175.444 99.8509 175.983 99.9397 176.317 100.104V101.033C175.881 100.746 175.322 100.602 174.633 100.602C174.442 100.602 174.251 100.623 174.06 100.657C173.869 100.698 173.705 100.76 173.548 100.842C173.398 100.923 173.276 101.033 173.187 101.169C173.098 101.306 173.044 101.47 173.044 101.661C173.044 101.846 173.085 102.003 173.153 102.133C173.221 102.263 173.33 102.386 173.467 102.495C173.603 102.604 173.774 102.707 173.971 102.809C174.169 102.912 174.401 103.021 174.653 103.144C174.926 103.267 175.172 103.403 175.41 103.54C175.649 103.677 175.854 103.834 176.038 103.998C176.222 104.162 176.358 104.353 176.467 104.551C176.57 104.756 176.624 104.988 176.624 105.255C176.624 105.603 176.556 105.897 176.413 106.143C176.27 106.389 176.079 106.58 175.833 106.731C175.588 106.881 175.308 106.99 174.994 107.058C174.674 107.127 174.34 107.161 173.992 107.161C173.876 107.161 173.726 107.147 173.555 107.134C173.385 107.12 173.207 107.093 173.03 107.058C172.846 107.024 172.676 106.983 172.519 106.929C172.362 106.881 172.232 106.826 172.13 106.758" fill="white"/>
<path d="M183.396 106.762C182.851 107.036 182.162 107.179 181.343 107.179C180.286 107.179 179.441 106.858 178.806 106.209C178.172 105.56 177.852 104.713 177.852 103.654C177.852 102.527 178.206 101.611 178.922 100.914C179.638 100.217 180.546 99.869 181.644 99.869C182.346 99.869 182.933 99.9714 183.396 100.163V101.044C182.864 100.757 182.278 100.614 181.63 100.614C180.777 100.614 180.082 100.887 179.557 101.427C179.031 101.966 178.759 102.691 178.759 103.599C178.759 104.508 179.004 105.15 179.502 105.656C180 106.175 180.648 106.428 181.453 106.428C182.203 106.428 182.844 106.27 183.39 105.956V106.762H183.396Z" fill="white"/>
<path d="M184.391 99.9852H186.716V100.696H185.987V106.346H186.716V107.056H184.391V106.346H185.12V100.696H184.391V99.9852Z" fill="white"/>
<path d="M192.092 106.311V107.056H188.157V99.9852H191.929V100.73H189.023V103.087H191.71V103.832H189.023V106.311H192.092Z" fill="white"/>
<path d="M199.728 107.056H198.658L194.838 101.42C194.736 101.276 194.661 101.133 194.6 100.976H194.572C194.6 101.126 194.613 101.447 194.613 101.946V107.056H193.747V99.9852H194.879L198.596 105.533C198.753 105.765 198.855 105.915 198.896 106.004H198.917C198.883 105.799 198.862 105.451 198.862 104.966V99.9852H199.728V107.056Z" fill="white"/>
<path d="M206.947 106.762C206.402 107.036 205.713 107.179 204.894 107.179C203.837 107.179 202.991 106.858 202.357 106.209C201.723 105.56 201.402 104.713 201.402 103.654C201.402 102.527 201.757 101.611 202.473 100.914C203.189 100.217 204.096 99.869 205.194 99.869C205.904 99.869 206.483 99.9714 206.947 100.163V101.044C206.415 100.757 205.829 100.614 205.188 100.614C204.335 100.614 203.639 100.887 203.107 101.427C202.582 101.966 202.316 102.691 202.316 103.599C202.316 104.508 202.562 105.15 203.06 105.656C203.558 106.175 204.205 106.428 205.01 106.428C205.754 106.428 206.402 106.27 206.947 105.956V106.762Z" fill="white"/>
<path d="M212.614 106.311V107.056H208.679V99.9852H212.451V100.73H209.545V103.087H212.232V103.832H209.545V106.311H212.614Z" fill="white"/>
<path d="M134.375 0H77.1942V57.2791H134.375V0Z" fill="#009D85"/>
<path d="M134.375 48.2324H77.1943V57.2658H134.375V48.2324Z" fill="#005BAC"/>
<path d="M109.692 13.4006C109.525 13.4484 109.382 13.3768 109.287 13.2455L106.94 14.045C106.964 14.1286 106.988 14.2121 106.988 14.3075C106.988 14.3433 106.964 14.3553 106.964 14.3791L108.632 14.5701V14.5462C108.703 14.4269 108.858 14.3911 108.977 14.4627C109.108 14.5343 109.132 14.6894 109.06 14.7968C109.001 14.9161 108.834 14.9519 108.739 14.8923C108.679 14.8684 108.644 14.8087 108.632 14.7491L106.916 14.5581C106.892 14.6536 106.88 14.7729 106.845 14.8565L108.262 15.6799C108.262 15.6799 108.262 15.656 108.286 15.656C108.393 15.5844 108.548 15.6083 108.632 15.7276C108.715 15.8231 108.691 15.9901 108.572 16.0617C108.477 16.1453 108.31 16.1095 108.238 16.0021C108.203 15.9543 108.191 15.8947 108.203 15.835L106.761 14.9997C106.714 15.0713 106.642 15.1071 106.583 15.1667L108.012 17.1834C108.167 17.1476 108.322 17.1834 108.417 17.3147C108.536 17.4937 108.501 17.7443 108.322 17.8636C108.143 17.983 107.893 17.9472 107.774 17.7682C107.679 17.625 107.714 17.4698 107.798 17.3386L106.392 15.3219C106.297 15.3696 106.201 15.4173 106.094 15.4531L106.416 17.1238C106.416 17.1238 106.511 17.1596 106.559 17.2073C106.642 17.3266 106.618 17.4818 106.511 17.5534C106.392 17.6369 106.249 17.613 106.166 17.4937C106.082 17.3863 106.118 17.2312 106.213 17.1476C106.213 17.1476 106.237 17.1476 106.249 17.1476L105.915 15.5009C105.915 15.5009 105.856 15.5247 105.82 15.5247C105.737 15.5247 105.689 15.477 105.618 15.4651L105.225 17.0999C105.225 17.0999 105.32 17.1954 105.32 17.255C105.344 17.3863 105.26 17.5295 105.117 17.5414C104.986 17.5653 104.855 17.4818 104.82 17.3505C104.796 17.2192 104.879 17.076 105.022 17.0522C105.022 17.0522 105.022 17.0522 105.046 17.0522L105.439 15.4054C105.356 15.3696 105.284 15.3219 105.201 15.2861L103.735 17.3266C103.819 17.4579 103.843 17.613 103.747 17.7562C103.616 17.9352 103.378 17.983 103.199 17.8517C103.021 17.7324 102.985 17.4818 103.104 17.3028C103.199 17.1715 103.366 17.1476 103.521 17.1834L104.986 15.119C104.915 15.0593 104.831 14.9997 104.784 14.9161L103.33 15.7634C103.33 15.8231 103.33 15.8827 103.295 15.9424C103.211 16.0617 103.056 16.0737 102.949 16.0021C102.83 15.9305 102.794 15.7634 102.89 15.656C102.961 15.5367 103.104 15.5128 103.223 15.5844C103.235 15.5844 103.235 15.6083 103.247 15.6202L104.7 14.7729C104.665 14.6894 104.653 14.582 104.653 14.4985L102.913 14.6655C102.913 14.6655 102.866 14.761 102.818 14.7849C102.711 14.8684 102.544 14.8207 102.485 14.7133C102.413 14.5939 102.449 14.4388 102.568 14.3672C102.687 14.2956 102.842 14.3433 102.913 14.4507C102.913 14.4507 102.913 14.4746 102.913 14.4865L104.617 14.3195C104.617 14.236 104.641 14.1524 104.665 14.0689L102.294 13.2932C102.199 13.4126 102.044 13.4961 101.901 13.4245C101.686 13.3648 101.579 13.1381 101.651 12.9352C101.71 12.7324 101.937 12.613 102.139 12.6727C102.294 12.7324 102.365 12.8875 102.389 13.0307L104.76 13.8183C104.808 13.7228 104.879 13.6274 104.951 13.5438L103.664 12.3982C103.664 12.3982 103.664 12.4221 103.652 12.4221C103.521 12.4818 103.378 12.4221 103.33 12.3028C103.271 12.1715 103.33 12.0283 103.461 11.9806C103.593 11.9209 103.735 11.9806 103.783 12.0999C103.795 12.1596 103.783 12.2192 103.783 12.2789L105.082 13.4484C105.165 13.3768 105.225 13.2932 105.32 13.2455L104.605 11.7181L104.581 11.73C104.45 11.73 104.331 11.6107 104.331 11.4794C104.331 11.3481 104.45 11.2288 104.581 11.2288C104.724 11.2288 104.831 11.3362 104.831 11.4794C104.831 11.5271 104.808 11.5868 104.772 11.6345L105.499 13.1978C105.499 13.1978 105.618 13.15 105.677 13.15V10.656C105.522 10.6083 105.427 10.4889 105.427 10.3219C105.427 10.1071 105.594 9.92808 105.808 9.92808C106.023 9.92808 106.201 10.1071 106.201 10.3219C106.201 10.4889 106.082 10.5963 105.939 10.656V13.1381C106.035 13.15 106.118 13.1858 106.201 13.2097L106.916 11.6584C106.916 11.6584 106.857 11.5629 106.857 11.5033C106.857 11.3481 106.964 11.2527 107.107 11.2527C107.238 11.2527 107.357 11.3601 107.357 11.5033C107.357 11.6345 107.238 11.7419 107.107 11.7419H107.083L106.38 13.2694C106.475 13.3171 106.535 13.4126 106.63 13.4842L107.953 12.3505C107.953 12.3505 107.941 12.3266 107.929 12.3266C107.893 12.1834 107.976 12.0522 108.096 12.0164C108.227 11.9806 108.37 12.0522 108.417 12.1834C108.441 12.3266 108.37 12.4579 108.238 12.4937C108.179 12.5056 108.131 12.4937 108.072 12.4698L106.749 13.6035C106.809 13.6751 106.845 13.7348 106.88 13.8064L109.251 13.0307C109.251 12.8756 109.334 12.7204 109.477 12.6727C109.68 12.6011 109.906 12.7204 109.978 12.9352C110.049 13.1262 109.942 13.3529 109.739 13.4245M112.17 13.1142C112.17 11.5391 110.871 10.2503 109.311 10.2503C109.013 10.2503 108.763 10.3338 108.489 10.4173C108.346 8.9615 107.154 7.81592 105.677 7.81592C104.129 7.81592 102.866 9.05697 102.818 10.6083C102.616 10.5605 102.425 10.4889 102.199 10.4889C100.626 10.4889 99.3397 11.7897 99.3397 13.3648C99.3397 14.6178 100.162 15.6679 101.293 16.0498C101.019 16.4794 100.841 16.9686 100.841 17.5176C100.841 19.0927 102.127 20.3935 103.7 20.3935C104.629 20.3935 105.427 19.9042 105.951 19.224C106.475 19.8445 107.238 20.2622 108.107 20.2622C109.692 20.2622 110.99 18.9615 110.99 17.3982C110.99 16.7777 110.752 16.2527 110.43 15.7753C111.455 15.3338 112.182 14.3195 112.182 13.1142" fill="white"/>
<path d="M85.9854 9.10465C85.9854 9.10465 86.2237 9.10465 86.2713 9.10465C88.2607 9.23591 90.3574 9.96383 90.4884 12.6846V12.9233C90.4884 12.9233 90.4646 13.1619 90.4527 13.2096C90.0596 14.761 89.1899 15.5366 87.8319 15.5127C87.7842 15.5127 87.6413 15.4889 87.5579 15.465C86.4381 15.0712 85.9735 14.2717 86.2356 13.1261C86.2356 13.1023 86.2594 13.0545 86.2594 13.0426C86.4381 12.6727 86.7002 12.4101 87.0695 12.2908C87.0933 12.2908 87.2243 12.2789 87.2363 12.2789C87.7366 12.3385 88.0344 12.613 88.3441 12.9233C88.094 11.7777 87.4149 11.1094 85.8901 11.4316C84.4368 12.0044 83.7935 13.1142 84.3295 15.0235C84.6869 16.0736 85.5566 17.0163 86.9742 17.8874C88.1535 18.7108 89.5116 19.2478 91.2389 19.403C92.9901 19.4268 94.7294 19.7013 96.421 20.2979C97.8862 20.9662 99.2085 21.7777 100.388 22.7204C101.925 24.0688 103.068 25.7037 103.843 27.6607C104.295 28.9375 104.676 30.2502 104.986 31.5867C104.998 31.6464 105.034 31.885 105.046 31.9447C105.177 33.2573 105.248 34.57 105.224 35.9184C105.117 37.7681 104.724 39.4506 103.938 40.9662C103.271 42.0521 102.461 42.78 101.567 43.2692C100.364 43.7585 99.2085 43.8659 98.1007 43.5676C98.0649 43.5676 97.9458 43.5198 97.922 43.5079C96.9213 43.0306 96.0874 42.3146 95.4322 41.2883C95.3965 41.2525 95.3131 41.0974 95.3012 41.0616C94.7532 39.7848 94.7651 38.496 95.3846 37.2191C95.7062 36.5151 96.2542 36.002 96.9094 35.5724C97.5408 35.2024 98.2913 35.0473 99.1252 35.0712C99.1847 35.0712 99.423 35.107 99.4706 35.1189C100.281 35.3695 100.972 35.7991 101.484 36.4912C102.008 37.2907 102.175 38.1619 101.77 39.1404C101.4 39.8683 100.829 40.2144 100.066 40.1666C99.2324 40.1428 98.6248 39.8444 98.5176 38.9494C98.4461 38.4721 98.5295 37.9948 98.6844 37.5175C98.875 37.0879 98.7559 37.0163 98.3508 37.3027L97.9101 37.6965C97.9101 37.6965 97.7314 37.8755 97.7075 37.8993C97.2191 38.6034 97.0881 39.2 97.1834 39.749C97.4455 40.6917 98.0768 41.3719 99.2324 41.6105C100.257 41.6463 101.15 41.1929 101.901 40.2144C102.365 39.6058 102.663 38.7824 102.854 37.8277C102.997 36.7418 103.009 35.632 102.83 34.4865C102.639 33.317 102.354 32.1714 101.937 31.002C101.389 29.6774 100.59 28.4005 99.3753 27.1834C98.3508 26.2645 97.1357 25.5724 95.73 25.0354C94.4435 24.6177 93.1092 24.4507 91.7154 24.5939C90.6671 24.7013 89.6069 24.6655 88.5586 24.391C84.6035 23.0784 81.7802 20.4173 81.3514 15.3696V14.6536C81.5777 10.9304 83.2574 9.29558 85.9497 9.06885" fill="white"/>
<path d="M125.584 9.10465C125.584 9.10465 125.345 9.10465 125.298 9.10465C123.308 9.23591 121.212 9.96383 121.081 12.6846V12.9233C121.081 12.9233 121.104 13.1619 121.116 13.2096C121.498 14.761 122.379 15.5366 123.749 15.5127C123.797 15.5127 123.928 15.4889 124.011 15.465C125.131 15.0712 125.596 14.2717 125.333 13.1261C125.333 13.1023 125.31 13.0545 125.31 13.0426C125.131 12.6727 124.869 12.4101 124.488 12.2908C124.464 12.2908 124.333 12.2789 124.321 12.2789C123.821 12.3385 123.535 12.613 123.225 12.9233C123.475 11.7777 124.154 11.1094 125.679 11.4316C127.132 12.0044 127.776 13.1142 127.239 15.0235C126.882 16.0736 126.012 17.0163 124.595 17.8874C123.415 18.7108 122.057 19.2478 120.33 19.403C118.579 19.4268 116.84 19.7013 115.136 20.2979C113.683 20.9662 112.349 21.7777 111.181 22.7204C109.644 24.0688 108.501 25.7037 107.726 27.6607C107.274 28.9375 106.893 30.2502 106.583 31.5867C106.571 31.6464 106.535 31.885 106.523 31.9447C106.392 33.2573 106.321 34.57 106.345 35.9184C106.452 37.7681 106.845 39.4506 107.619 40.9662C108.286 42.0521 109.096 42.78 109.99 43.2692C111.193 43.7585 112.36 43.8659 113.456 43.5676C113.492 43.5676 113.611 43.5198 113.635 43.5079C114.636 43.0306 115.482 42.3146 116.125 41.2883C116.149 41.2525 116.244 41.0974 116.244 41.0616C116.804 39.7848 116.792 38.496 116.173 37.2191C115.851 36.5151 115.303 36.002 114.648 35.5724C114.016 35.2024 113.266 35.0473 112.432 35.0712C112.372 35.0712 112.134 35.107 112.086 35.1189C111.276 35.3695 110.585 35.7991 110.073 36.4912C109.549 37.2907 109.382 38.1619 109.787 39.1404C110.157 39.8683 110.728 40.2144 111.491 40.1666C112.325 40.1428 112.932 39.8444 113.028 38.9494C113.099 38.4721 113.016 37.9948 112.861 37.5175C112.67 37.0879 112.789 37.0163 113.194 37.3027L113.635 37.6965C113.635 37.6965 113.814 37.8755 113.826 37.8993C114.326 38.6034 114.445 39.2 114.35 39.749C114.088 40.6917 113.456 41.3719 112.301 41.6105C111.276 41.6463 110.383 41.1929 109.632 40.2144C109.168 39.6058 108.87 38.7824 108.679 37.8277C108.525 36.7418 108.525 35.632 108.703 34.4865C108.894 33.317 109.168 32.1714 109.597 31.002C110.145 29.6774 110.943 28.4005 112.158 27.1834C113.182 26.2645 114.398 25.5724 115.803 25.0354C117.078 24.6177 118.412 24.4507 119.806 24.5939C120.854 24.7013 121.914 24.6655 122.963 24.391C126.918 23.0784 129.741 20.4173 130.17 15.3696V14.6536C129.956 10.9304 128.264 9.29558 125.572 9.06885" fill="white"/>
</svg>
