<svg width="384" height="120" viewBox="0 0 384 120" fill="none" xmlns="http://www.w3.org/2000/svg">
<path d="M347.679 66.5763C347.544 68.3519 347.397 70.1151 347.47 71.9032C347.507 72.816 347.372 73.7414 347.077 74.5541C346.868 75.1419 346.119 75.3169 345.579 75.617C345.603 76.3298 345.063 76.7549 344.854 77.3551C344.793 77.5552 344.608 77.6052 344.461 77.5302C344.142 77.3801 344.129 77.03 344.105 76.7174C343.7 76.7424 343.233 75.667 342.889 76.8049C342.643 76.4798 342.017 77.1051 341.931 76.3173C341.906 76.0922 341.759 75.8796 341.673 75.667C341.243 76.0422 340.899 75.9171 340.469 75.5545C340.015 75.1794 339.474 74.8793 338.86 74.9168C338.75 74.9168 338.615 74.9668 338.541 74.9043C337.472 73.9914 337.509 75.1293 337.276 75.7546C337.079 76.2798 336.92 76.8175 336.735 77.3426C336.06 80.0436 335.274 82.6946 334.156 85.2205C334.119 85.2955 334.095 85.4205 334.033 85.4455C333.075 85.8957 332.645 86.9336 331.958 87.6963C331.872 88.2716 331.491 88.4341 331.049 88.4966C330.594 88.5717 330.471 88.2215 330.349 87.8339C330.189 87.3337 329.857 87.5588 329.55 87.6338C329.01 87.7714 328.371 88.109 328.224 87.0336C328.187 86.7585 327.929 86.7335 327.708 86.7835C327.413 86.8335 327.118 86.8711 326.946 86.4834C326.357 86.1458 325.767 85.8582 325.092 85.7832C323.912 85.6706 322.905 84.4327 322.881 83.1072C322.881 82.9071 322.881 82.7071 322.807 82.482C322.193 84.0951 322.033 85.8707 321.296 87.4087C321.1 88.034 321.051 88.7342 320.228 88.8468C319.945 88.8843 319.724 89.3344 319.552 89.6971C319.343 90.1097 319.122 90.5224 318.864 90.91C318.447 91.5227 318.005 91.4977 317.722 90.81C317.489 90.2473 317.317 89.9847 316.715 90.4223C316.359 90.6724 315.634 90.9475 315.573 89.8846C315.573 89.7096 315.45 89.4845 315.266 89.5595C314.529 89.8346 314.111 89.1344 313.558 88.8718C313.497 88.8718 313.448 88.8468 313.399 88.7967C312.871 88.3466 312.158 88.6342 311.605 88.1715C311.348 87.9589 311.225 88.4591 311.163 88.7467C310.868 90.0597 310.611 91.3727 310.291 92.6731C310.009 93.7985 309.689 94.8864 308.633 95.4866C308.117 95.7742 308.056 96.5495 307.675 97.0122C307.233 98.1626 306.496 98.3127 305.882 97.3373C305.648 96.9622 305.427 97.0622 305.133 97.1247C304.555 97.2623 304.052 97.3373 303.659 96.537C303.376 95.9743 302.516 96.1869 302.086 95.6492C302.025 95.5617 301.902 95.5367 301.816 95.4741C301.485 95.4116 301.128 95.1865 300.92 95.6992C300.674 96.6871 300.576 97.7249 299.458 98.1376C298.905 98.3377 298.807 99.188 298.451 99.7131C297.726 100.801 297.517 100.801 296.866 99.6881C296.682 99.363 296.473 99.338 296.129 99.5131C295.638 99.7632 294.999 100.201 294.84 99.0629C294.815 98.8754 294.68 98.7128 294.496 98.7503C293.661 98.9754 293.194 98.1251 292.518 97.8875C291.499 97.6624 290.529 97.3248 289.779 96.437C289.509 96.1244 289.436 96.487 289.374 96.6996C289.141 97.5249 288.932 98.3627 288.686 99.2005C288.22 100.814 287.63 102.339 286.328 103.364C286.168 103.49 286.07 103.752 285.947 103.94C285.812 104.69 285.345 105.19 284.83 105.603C284.375 105.965 283.847 105.965 283.528 105.328C283.343 104.965 283.171 104.827 282.778 104.953C282.152 105.165 281.648 105.153 281.182 104.315C281.083 104.14 280.924 104.015 280.74 103.902C280.494 103.865 280.273 103.74 280.064 103.602C279.818 103.515 279.56 103.427 279.339 103.327C278.971 103.164 278.578 103.077 278.197 102.952C276.748 102.339 275.728 101.664 275.937 99.6256C276.097 98.05 276.146 96.462 276.256 94.8489C275.777 94.8239 275.827 95.5367 275.421 95.5492C275.421 95.5992 275.421 95.6617 275.397 95.6992C275.446 96.1119 275.114 96.2994 274.954 96.5745C274.77 96.9121 274.475 97.1998 274.107 97.0622C273.689 96.9121 273.763 96.4745 273.788 96.0993C273.075 95.7242 272.437 96.512 271.724 96.2744C271.569 95.6742 271.188 95.3699 270.582 95.3616C270.508 95.2616 270.435 95.149 270.361 95.049C270.324 95.0115 270.275 94.9739 270.238 94.9364C269.98 94.7864 269.747 94.6989 269.526 94.6738C269.489 94.6738 269.464 94.6738 269.44 94.6738C268.469 95.9368 267.929 97.4999 267.204 98.9379C265.644 102.064 264.183 105.24 262.697 108.404C262.328 109.192 262.033 110.029 261.677 110.83C261.505 111.217 261.358 111.68 260.928 111.83C260.78 112.268 260.498 112.568 260.117 112.73C259.429 113.543 258.68 114.231 257.685 114.518C257.685 114.581 257.685 114.631 257.685 114.694C257.354 114.744 257.059 114.556 256.764 114.456C256.457 114.356 256.101 114.218 255.843 114.431C255.131 114.994 254.283 115.106 253.509 115.469C252.748 115.581 252.17 115.469 252.195 114.356C252.195 113.856 251.802 113.893 251.47 113.868C250.66 113.831 249.824 114.093 249.051 113.556C248.854 113.418 248.584 113.556 248.351 113.668C247.356 114.131 246.373 113.906 245.403 113.568C244.801 112.743 244.064 112.718 243.241 113.055C242.541 113.343 241.804 113.518 241.055 113.606C240.625 114.143 240.183 114.694 239.753 115.231C238.66 115.506 237.37 114.831 236.854 113.706C236.695 113.356 236.83 112.993 236.879 112.655C236.928 112.268 237.014 111.893 236.977 111.492L237.038 111.442C237.038 111.442 237.038 111.43 237.038 111.417C237.014 111.442 237.014 111.467 236.989 111.492C236.67 110.817 236.412 110.129 236.51 109.342C236.559 108.966 236.363 108.729 236.179 108.466C235.847 107.991 236.031 107.453 236.449 107.378C237.198 107.253 237.431 106.678 237.751 106.09C237.984 105.653 238.254 105.24 238.549 104.852C238.758 104.577 238.856 104.352 238.77 103.977C238.684 103.615 238.623 103.152 238.746 102.814C239.102 101.789 238.574 101.551 237.874 101.451C237.247 101.364 236.621 101.001 235.97 101.326C235.933 101.339 235.884 101.364 235.847 101.364C235.356 101.739 235 101.651 234.828 100.976C234.68 100.401 234.435 100.326 233.943 100.626C233.489 100.901 232.862 101.189 232.678 100.176C232.654 100.013 232.568 99.8132 232.371 99.8132C230.922 99.8507 229.792 98.7878 228.478 98.3502C227.851 98.1376 227.434 97.4623 227.151 96.6871C226.684 97.2248 226.205 97.6374 225.591 97.7875C225.284 98.2751 224.965 98.7753 224.658 99.263C224.572 99.8257 224.215 100.063 223.761 100.113C223.343 100.163 223.257 99.7757 223.159 99.413C223.049 98.9629 222.754 99.0504 222.447 99.1504C221.857 99.338 221.169 99.7882 221.022 98.5627C221.022 98.4752 220.789 98.3126 220.715 98.3377C219.831 98.6628 219.388 97.6124 218.652 97.5124C218.111 97.2123 217.436 97.3873 216.932 96.8871C216.748 96.6996 216.49 96.5995 216.355 96.3369C215.851 96.0618 215.691 95.6117 215.765 94.999C215.888 93.9611 215.986 92.9107 216.084 91.8603C216.121 91.4352 216.207 90.9475 215.581 91.0601C215.372 91.0976 215.237 90.985 215.237 90.81C215.237 89.4345 213.996 90.4848 213.616 89.7971C213.567 89.7221 213.407 90.1472 213.345 90.3598C213.038 91.3727 212.94 92.4606 212.498 93.4359C211.933 95.8493 211.356 98.2751 210.791 100.688C210.656 101.551 210.692 102.477 209.906 103.039C209.771 103.139 209.747 103.477 209.698 103.702C209.513 104.49 209.366 105.29 209.169 106.065C209.01 106.728 209.034 107.428 208.15 107.678C207.401 107.891 207.29 108.979 206.836 109.629C206.676 109.854 206.602 110.192 206.258 110.167C205.902 110.129 205.927 109.767 205.792 109.542C205.546 109.142 205.313 108.529 204.723 109.204C204.379 109.604 203.827 109.367 203.667 108.791C203.569 108.429 203.458 108.166 203.053 108.379C202.819 108.504 202.537 108.479 202.402 108.216C202.132 107.678 201.456 108.016 201.21 107.466C200.633 107.403 200.044 107.391 199.528 106.978C198.864 106.453 198.164 106.015 198.324 104.877C198.385 104.477 198.263 104.052 198.226 103.627C198.213 103.427 198.054 103.177 197.956 103.252C197.108 103.79 196.629 102.814 196.027 102.564C195.462 102.339 194.799 102.564 194.258 102.001C193.988 101.726 193.608 101.414 193.239 101.201C193.239 101.126 193.214 101.051 193.202 100.976C193.153 100.926 193.128 100.864 193.104 100.801C192.834 100.576 192.981 100.276 193.055 99.9882C193.043 99.7006 193.018 99.4756 192.957 99.313C192.895 99.288 192.797 99.288 192.649 99.313C192.195 99.4005 191.741 99.3005 191.519 98.7253C191.397 98.4002 191.126 98.4127 190.893 98.3502C190.832 98.3502 190.77 98.3251 190.697 98.3251C190.316 98.2626 190.021 97.9125 189.64 97.85C189.628 97.85 189.616 97.8375 189.591 97.825C189.1 99.288 188.989 100.851 188.719 102.377C188.4 104.165 188.744 105.99 188.461 107.779C188.203 109.429 187.761 111.042 187.65 112.743C187.614 113.431 187.073 113.706 186.582 113.331C186.287 113.105 186.164 113.218 185.98 113.431C185.501 113.993 185.022 114.543 184.31 114.769C183.818 114.919 183.843 115.519 183.843 116.006C183.831 116.882 183.413 117.444 182.75 117.832C182.688 117.945 182.627 118.057 182.566 118.17C182.467 118.532 182.357 118.895 182.258 119.258C181.927 119.87 181.436 120.12 180.834 119.945C180.293 119.783 180.17 119.27 180.121 118.682C180.072 117.97 179.974 117.257 179.077 117.207C178.758 117.182 178.586 116.707 178.242 116.557C177.837 116.369 177.567 116.219 177.53 116.919C177.505 117.332 177.321 117.72 177.088 118.057C176.83 118.095 176.609 118.02 176.437 117.795C176.24 117.557 176.08 117.557 175.822 117.757C175.208 118.232 174.901 118.02 174.815 117.169C174.754 116.644 175.098 116.031 174.398 115.606C173.894 115.294 173.648 115.019 173.071 115.494C172.531 115.944 171.745 115.544 171.413 114.869C170.799 114.156 170.099 113.643 169.153 113.793C168.92 113.831 168.699 113.668 168.625 113.456C168.379 112.793 168.011 112.73 167.434 112.893C167.004 113.018 166.525 112.943 166.07 112.943C165.935 112.943 165.763 112.943 165.689 112.855C164.572 111.505 162.729 111.255 161.808 109.592C161.587 109.192 161.341 108.891 161.464 108.379C161.538 108.066 161.526 107.716 161.501 107.391C161.329 104.577 161.759 101.839 162.066 99.0754C162.177 98.0501 162.361 96.9872 162.213 95.9368C161.71 95.4741 161.28 95.1115 160.555 95.6867C160.125 96.0243 159.45 95.8993 158.946 95.3366C157.767 94.0361 157.657 94.0111 156.662 95.4366C155.065 97.7249 153.407 99.9632 151.958 102.364C151.663 102.839 151.491 103.552 150.828 103.69C150.766 103.865 150.705 104.04 150.643 104.215C150.594 104.34 150.545 104.465 150.508 104.59C150.361 105.64 149.698 106.428 149.366 107.378C149.243 107.754 148.85 107.941 148.42 107.691C148.248 107.578 148.015 107.591 147.806 107.541C147.757 107.603 147.708 107.666 147.659 107.729C147.536 108.404 146.946 108.679 146.652 109.217C145.841 110.63 144.993 112.005 144.146 113.381C143.704 114.093 143.188 114.231 142.561 114.081C141.947 113.931 141.825 113.331 141.874 112.73C141.947 111.955 141.775 111.455 140.977 111.455C140.805 111.455 140.633 111.305 140.461 111.205C139.933 110.88 139.54 110.967 139.294 111.617C139.086 112.18 138.766 112.468 138.238 112.105C137.931 111.893 137.685 112.068 137.415 112.193C136.838 112.443 136.494 112.105 136.604 111.405C136.641 111.205 136.703 110.992 136.69 110.78C136.666 110.467 137.01 109.954 136.654 109.904C136.125 109.817 135.659 109.004 135.057 109.654C135.057 109.717 135.057 109.767 135.032 109.817C134.062 110.029 133.276 109.767 132.6 108.879C132.035 108.129 131.581 108.216 131.151 109.029C130.783 109.729 130.561 110.53 129.542 109.967C129.198 109.779 128.989 110.429 128.707 110.692C127.908 111.417 127.319 112.33 127.172 113.531C127.061 113.531 126.95 113.531 126.852 113.531C126.312 114.218 125.82 114.931 125.415 115.731C125.415 115.856 125.415 115.981 125.427 116.107C124.519 116.932 124.003 116.894 123.327 115.956C123.069 115.656 123.143 115.281 123.155 114.931C123.167 114.343 122.946 114.193 122.455 113.918C121.276 113.255 120.76 113.956 120.232 114.894C119.716 114.694 119.225 114.306 118.66 114.794C118.402 115.019 118.23 114.719 118.046 114.543C117.763 114.268 117.763 113.931 117.849 113.556C117.947 113.18 118.39 112.705 117.947 112.455C117.493 112.193 117.014 111.617 116.363 112.18C115.921 112.555 115.356 112.53 114.877 112.08C114.521 111.767 114.152 111.455 113.808 111.13C113.538 110.867 113.243 110.617 112.887 110.655C112.273 110.717 111.782 110.517 111.413 109.967C111.229 109.679 110.922 109.779 110.664 109.767C109.767 109.704 108.748 110.167 108.134 108.966C108.109 108.929 108.035 108.904 107.986 108.904C106.291 108.866 105.64 107.166 104.584 106.14C104.154 105.715 104.24 105.078 104.584 104.565C105.26 103.552 105.702 102.402 106.205 101.289C106.746 100.764 106.574 99.7882 107.176 99.3005C107.593 97.4498 108.453 95.7992 109.055 94.0236C109.546 92.5856 110.087 91.1601 110.59 89.7221C110.725 89.3344 110.824 88.9343 110.774 88.5091C110.774 88.4966 110.75 88.4841 110.738 88.4591C110.738 88.4591 110.738 88.4341 110.725 88.4341C110.688 88.4466 110.652 88.4466 110.602 88.4216C110.209 88.034 110.05 87.5588 110.111 86.9711C110.173 86.4709 110.111 86.1583 109.509 86.3209C109.018 86.4584 108.465 86.4709 108.33 85.6581C108.318 85.5831 108.244 85.4581 108.195 85.4581C107.077 85.3705 106.254 84.3577 105.112 84.3201C104.621 84.3201 104.596 84.6328 104.51 84.9579C103.97 86.7835 103.38 88.5967 102.693 90.3598C102.054 91.9979 101.292 93.5234 99.8675 94.4738C99.4377 95.1865 98.9955 95.8993 98.2954 96.3244C97.8778 96.6871 97.3742 96.6621 97.0548 96.3244C96.5635 95.8243 96.0722 95.6992 95.4581 95.7867C95.3353 95.7992 95.1633 95.7742 95.0774 95.6742C94.5001 95.0365 93.6649 94.8114 93.0753 94.1987C92.9156 94.1362 92.7683 94.0736 92.6086 93.9986C92.4489 93.9861 92.2892 94.0111 92.1418 93.9486C91.2329 93.5609 90.5206 93.6485 90.103 94.7864C89.9187 95.2741 89.5011 95.4116 89.0589 95.4741C88.7273 95.8493 88.4817 96.2994 88.2606 96.7621C87.671 98.1251 86.8972 98.3377 85.8778 97.4373C85.7304 97.2998 85.5953 97.1247 85.3865 97.1872C84.2196 97.5499 83.581 96.487 82.758 95.9368C82.1562 95.5492 81.5298 95.2616 80.8297 95.1365C80.2278 95.024 79.6506 94.7364 79.1838 94.2612C79.0856 94.1612 78.9873 93.9861 78.8768 93.9861C78.1644 93.9861 77.6976 93.3859 77.1081 93.1108C76.4571 92.8107 75.8061 92.4981 75.1552 92.1855C74.541 92.0354 74.1357 92.248 73.8409 92.9357C73.5584 93.5985 73.1163 94.1362 72.367 94.1612C72.1337 94.1612 71.8757 94.1862 71.7775 93.9736C71.323 92.9732 70.5124 93.4984 69.8491 93.4109C69.3578 93.3484 69.5421 93.8736 69.5421 94.1487C69.5666 96.6871 69.5912 99.2255 69.6403 101.751C69.6649 103.264 69.5666 104.765 69.1859 106.228C69.063 106.716 68.9402 107.103 68.3875 107.191C68.0313 107.241 67.6997 107.566 67.5892 108.004C67.4786 108.466 67.1838 108.779 66.975 109.167C66.5451 109.929 66.0047 109.967 65.4888 109.254C65.2309 108.891 65.0712 108.729 64.6045 108.929C64.1132 109.129 63.5728 109.091 63.192 108.429C62.8235 107.779 61.9269 107.941 61.5584 107.228C61.6813 107.316 61.8041 107.391 61.9392 107.441C61.8164 107.366 61.6936 107.303 61.5584 107.228C60.9689 106.766 60.2319 106.903 59.5932 106.566C58.4018 105.915 57.7386 104.89 57.4929 103.477C57.407 102.977 57.3087 102.477 57.235 101.976C57.0876 100.989 56.7683 100.826 56.0313 101.414C55.9208 101.501 55.8225 101.589 55.712 101.689C55.6506 102.414 55.2207 102.927 54.8768 103.477C54.5206 104.065 53.9556 103.965 53.7591 103.302C53.6608 102.977 53.4766 102.814 53.2678 102.639C52.8993 102.777 52.6414 103.227 52.1869 103.102C52.0272 103.052 51.757 103.064 51.7447 102.977C51.3763 101.639 50.062 102.102 49.3865 101.389C48.9566 100.939 48.3302 101.301 47.9249 100.851C47.4827 100.651 46.9546 100.601 46.7826 99.9632C46.2422 99.7882 46.1685 99.313 46.1685 98.7753C46.1685 96.7996 46.1931 94.8239 46.1931 92.8482C46.1931 92.4105 46.279 91.9479 45.6281 91.9479C45.3087 91.9479 45.1122 91.5602 44.9034 91.2851C44.5595 91.2601 44.1296 91.3977 44.0805 90.7725C42.7662 91.1476 41.3415 89.9472 41.1941 88.4591C40.6536 83.0947 40.0887 77.7303 39.5114 72.3784C38.6639 64.5005 37.9269 56.6102 38.0498 48.6574C38.062 47.8071 37.7181 47.3819 37.1163 47.1193C36.8215 46.9943 36.625 46.7692 36.3916 46.5691C35.888 46.169 35.9003 45.7939 36.2565 45.2186C37.19 43.7431 37.9883 42.1801 38.4182 40.4044C38.4428 39.2165 38.8236 38.1286 39.0815 37.0032C39.1183 36.8657 39.1797 36.6531 39.278 36.6281C40.2238 36.303 40.4571 35.3651 40.6536 34.4773C40.8502 33.577 41.452 33.3394 42.0661 33.0393C42.2012 32.9643 42.3118 33.0018 42.4346 33.0643C43.4541 33.6395 43.7734 33.5145 44.67 32.6517C45.0999 32.239 45.4807 31.8139 45.7509 31.2762C46.0825 30.3883 46.3527 29.488 47.323 29.1754C47.7038 29.0504 48.0109 29.0004 48.3916 29.1754C49.4602 29.6881 50.0866 29.388 50.5779 28.2126C51.106 26.9246 51.9781 25.8867 52.6168 24.6738C53.2186 23.2358 54.0784 22.1604 55.5892 22.0604C56.0313 22.0229 56.191 21.6602 56.3507 21.3601C56.9034 20.3348 57.2964 20.1472 58.3282 20.5223C58.5001 20.5848 58.7089 20.6349 58.8809 20.5973C59.5687 20.4598 60.06 20.8099 60.5144 21.3351C60.6495 21.4852 60.7847 21.6352 60.9443 21.7478C61.2514 21.9478 61.6076 22.1479 61.9269 21.9853C62.2585 21.8228 62.0743 21.3726 62.062 21.085C62.0129 19.5845 62.1726 18.0839 61.9269 16.5959C61.8532 16.1583 62.0989 16.0957 62.3814 16.0332C62.4796 15.9457 62.5902 15.7831 62.6884 15.7831C63.2903 15.7581 63.4991 15.533 63.3763 14.7828C63.2289 13.8824 64.0641 12.7821 64.8502 12.6445C65.0712 12.607 65.2678 12.6695 65.4397 12.8446C65.5748 12.9821 65.7099 13.1072 65.931 13.0697C66.5083 12.9696 67.1715 12.6695 67.3312 13.7449C67.3681 13.945 67.8102 13.8324 67.8716 14.17C67.9699 14.1826 68.0682 14.2076 68.1664 14.2201C68.8297 14.2201 69.3578 14.5452 69.9351 14.9078C70.5001 15.2704 71.2002 15.7206 71.9126 15.0454C72.1214 14.8453 72.4162 14.8453 72.539 15.2454C72.7601 15.6831 72.8461 16.1207 72.8092 16.6709C72.7232 18.0965 72.8092 19.5345 72.7724 20.96C72.7724 21.4226 73.0794 21.6227 73.2514 21.9353C73.6199 21.9728 73.7427 21.6977 73.8532 21.3726C74.0989 20.6098 74.3691 19.8596 74.627 19.1093C74.8972 18.334 75.1552 17.5963 75.8061 17.0586C76.3834 16.5834 76.494 15.6706 76.8133 14.9453C77.0467 14.4076 77.3292 14.1325 77.8696 14.2826C78.0784 14.2826 78.2872 14.2826 78.496 14.2826C78.8153 14.2701 79.1224 14.3701 79.4786 14.2826C79.8225 14.1951 80.277 14.045 80.5717 14.7703C80.6332 14.9203 80.7805 15.1829 80.9893 15.383C81.0753 15.4205 81.1367 15.4705 81.1859 15.533C81.407 15.6831 81.6895 15.7456 82.0211 15.5956C82.2176 15.4955 82.4141 15.6831 82.5124 15.8081C83.2002 16.6084 84.1828 16.4834 84.9934 16.896C85.2514 16.8085 85.3373 16.1833 85.6567 16.4459C85.9269 16.6709 86.148 17.0836 86.0989 17.5463C85.9515 18.9468 85.8655 20.3598 85.2514 21.6227C84.7724 23.4484 84.2811 25.274 83.802 27.0997C83.7161 27.4373 83.581 27.7749 83.6792 28.15C84.0354 28.9003 84.5881 29.288 85.3374 29.4005C85.5953 29.438 85.9392 29.513 86.0743 29.7006C86.4305 30.2508 86.9218 30.1633 87.3885 30.3258C88.3343 30.6384 88.6905 30.0132 88.9607 29.2755C89.6239 27.4748 90.2012 25.6241 90.8768 23.8235C91.6506 21.7478 92.3875 19.647 93.3824 17.6838C93.4315 17.6838 93.4684 17.6838 93.5175 17.6963C94.2667 16.4209 95.0651 15.1829 95.7161 13.8324C95.9126 13.4198 96.3425 13.3948 96.6495 13.1697C97.0917 12.8446 97.3496 13.1322 97.6198 13.4323C97.6567 13.4698 97.7181 13.5448 97.755 13.5323C98.6024 13.2822 99.192 13.9075 99.8307 14.3326C100.199 14.5702 100.568 14.7828 101.01 14.7828C101.182 14.7828 101.452 14.8703 101.513 15.0204C101.931 15.8957 102.729 15.6206 103.356 15.8331C103.515 15.8832 103.663 15.8582 103.823 15.7706C104.498 15.408 104.977 15.7456 104.916 16.6084C104.867 17.3587 104.867 18.109 104.658 18.8342C104.621 18.9593 104.572 19.0718 104.535 19.1968C104.449 19.9596 103.982 20.6098 103.933 21.3976C103.761 21.8103 103.675 22.2729 103.466 22.6731C102.914 24.1486 102.336 25.6116 101.857 27.3248C102.471 26.9746 102.926 26.8246 103.294 27.4248C103.405 27.5998 103.589 27.3998 103.737 27.3748C104.326 27.2247 104.83 27.2747 104.977 28.0875C105.837 28.4752 106.807 28.5002 107.544 29.2379C107.974 29.6756 109.215 29.6631 109.644 29.2755C109.694 29.2755 109.743 29.2754 109.78 29.2629C110.345 28.2376 110.566 27.0622 110.971 25.9743C111.364 24.9239 111.72 23.8985 111.88 22.7731C111.941 22.348 112.31 22.1979 112.641 22.0604C113.648 21.6352 114.447 20.935 114.791 19.7846C114.987 19.1093 115.147 18.4216 115.491 17.8088C115.675 16.6709 116.559 15.8832 116.719 14.7202C116.744 14.5452 116.977 14.3201 117.161 14.4451C117.96 14.9828 118.291 14.12 118.783 13.7949C119.016 13.6324 119.176 13.2447 119.52 13.6073C120.085 13.97 120.65 14.3201 120.686 15.1954C120.686 15.5205 120.92 15.5831 121.153 15.3955C121.436 15.1704 121.718 14.9453 121.988 14.7077C122.173 14.5452 122.295 14.2701 122.602 14.4076C122.909 14.5452 123.081 14.7703 123.069 15.1579C123.069 15.3455 123.008 15.6456 123.278 15.6581C123.499 15.6581 123.548 15.408 123.56 15.1829C123.573 14.7578 123.659 14.3201 124.113 14.3826C124.555 14.4451 124.396 14.9203 124.408 15.2704C124.445 16.1708 124.85 16.6834 125.71 16.746C126.557 16.796 127.012 17.1336 127 18.159C127 18.7217 127.208 19.0093 127.712 18.5716C127.896 18.4091 128.117 18.2715 128.314 18.1215C128.424 18.0464 128.523 17.9214 128.645 17.8839C129.026 17.7588 130.856 18.8217 130.942 19.2469C131.09 19.9971 131.544 20.1847 132.134 20.1847C132.674 20.1847 133.215 20.2472 133.743 20.1597C134.295 20.0597 134.615 20.5848 135.081 20.6724C135.106 20.5473 135.118 20.3973 135.266 20.3473C136.297 15.8707 137.747 11.5816 139.81 7.58019C139.847 7.50516 139.896 7.43014 139.933 7.36761C139.994 7.21756 140.056 7.06751 140.117 6.90495C140.277 6.39226 140.596 5.99212 140.891 5.59198L140.928 5.61699C141.775 3.6913 142.918 1.99069 144.318 0.540171C144.944 -0.110061 145.792 -0.147575 146.197 0.290082C146.541 0.290082 146.897 0.265073 147.241 0.265073C147.622 0.265073 147.917 0.290082 148.138 0.802765C148.371 1.34046 148.936 1.57804 149.464 1.66557C149.857 1.7281 150.201 1.87815 150.496 2.14074C151.159 2.72845 151.847 2.84099 152.621 2.45336C153.223 2.15325 153.702 2.61591 153.825 3.65379C153.984 5.00427 154.009 6.36726 153.96 7.71774C153.874 9.76847 153.751 11.8192 153.346 13.8199C153.346 13.8949 153.333 13.97 153.309 14.0575C153.161 15.0954 153.014 16.1332 152.879 17.1711C152.756 18.0965 153.002 18.4091 153.812 18.3715C154.328 18.3465 154.832 18.2465 155.053 19.0093C155.151 19.3344 155.544 19.4469 155.79 19.4844C156.821 19.6595 157.558 20.6849 158.627 20.7099C158.836 20.7099 159.045 20.7599 159.266 20.6849C160.261 20.3473 160.654 20.6599 160.74 21.8728C160.924 24.3862 160.678 26.8621 160.334 29.338C160.261 29.8382 160.199 30.3383 160.236 30.901C160.604 30.3758 160.973 29.8507 161.329 29.3255C161.845 28.2001 162.459 27.1247 163.307 26.2994C163.908 25.7117 164.609 25.0614 165.505 25.7867C165.702 25.9368 165.923 25.8242 166.132 25.8117C166.586 25.7867 166.942 25.7742 167.225 26.3744C167.434 26.8246 168.011 27.0872 168.514 27.2122C168.711 27.2622 168.944 27.1747 169.079 27.4248C169.227 27.4748 169.448 27.4623 169.522 27.5623C170.087 28.5002 170.48 28.0625 170.86 27.3873C171.143 26.8871 171.573 26.512 171.782 25.9493C172.175 24.7988 172.592 23.6734 173.82 23.3483C174.25 23.0232 174.68 22.8982 175.147 23.3108C175.233 23.3983 175.405 23.4484 175.515 23.4109C176.375 23.1358 176.94 23.4984 177.296 24.3862C177.788 24.5613 178.291 24.6988 178.77 24.9239C179.004 25.0364 179.384 25.0489 179.372 25.5116C179.581 26.1743 180.232 25.5991 180.527 26.0368C180.576 26.0368 180.625 26.0493 180.662 26.0743C180.735 26.0618 180.821 26.0493 180.895 26.0118C182.037 25.4366 182.136 25.4866 182.59 26.7746C182.995 27.6249 182.701 28.5502 182.823 29.438C182.774 29.3505 182.75 29.2504 182.713 29.1504C182.725 29.2504 182.75 29.3505 182.823 29.438C183.818 28.8878 184.776 29.6631 185.759 29.5631C186.103 29.5255 186.164 29.8757 186.324 30.1133C186.926 31.0511 187.552 31.0011 187.933 29.9757C189.223 26.5495 190.93 23.3983 192.809 20.3473C193.239 19.6595 193.743 19.0468 194.492 18.7342C195.057 18.5091 195.573 18.4091 196.076 18.8342C197.059 18.5466 197.857 18.8092 198.361 19.8721C198.778 20.0722 199.294 20.0096 199.638 20.4223C199.663 20.4723 199.675 20.5223 199.675 20.5723C199.921 20.5473 200.068 20.7099 200.179 20.9225C200.216 20.8975 200.24 20.8724 200.289 20.8599C200.67 21.0225 200.928 20.8975 201.161 20.4973C201.972 19.1218 202.856 17.7963 203.618 16.3958C204.146 15.408 205.055 14.7703 205.46 13.6949C205.534 13.4948 205.767 13.2197 205.964 13.3197C206.553 13.6449 206.995 13.1947 207.487 13.0697C207.646 12.9446 207.806 12.8321 207.966 12.707C208.457 12.507 209.403 12.9446 209.526 13.5948C209.685 14.4451 209.968 14.1075 210.385 13.8949C210.877 13.6324 211.343 12.8821 211.97 13.6949C212.068 13.8199 212.265 13.6949 212.412 13.5948C213.014 13.2072 213.407 13.4448 213.468 14.2076C213.55 15.1579 214.042 15.6664 214.942 15.7331C215.593 15.7831 215.962 16.1458 215.913 16.8835C215.839 17.7213 216.072 17.9589 216.735 17.5212C217.276 17.1961 217.779 16.6334 218.418 17.4087C218.602 17.6338 218.873 17.4212 219.045 17.2086C219.303 16.871 219.585 16.5459 219.671 16.0832C220.973 13.7199 222.213 11.3065 223.736 9.10573C224.916 7.06751 226.07 5.02928 228.097 3.85386C229.214 3.20362 230.283 3.9789 231.376 3.89137C231.499 3.89137 231.646 4.15396 231.769 4.30402C231.892 4.45407 231.99 4.66665 232.138 4.76668C232.961 5.27937 233.919 5.49194 234.729 6.09216C235.061 6.34225 235.552 6.25472 235.97 6.04214C236.572 5.72953 237.014 5.97962 237.284 6.61735C237.419 6.90495 237.567 7.21756 237.591 7.54268C237.689 8.89316 237.763 10.2436 237.53 11.5816C237.505 13.4948 236.989 15.308 236.596 17.1461C236.498 17.6213 236.154 18.1715 236.989 18.3215C237.333 18.3841 237.333 18.9968 237.739 19.2594C238.353 19.6595 239.114 19.497 239.655 20.0346C240.097 20.7349 240.797 20.7724 241.178 20.0847C241.571 19.3844 241.767 18.5966 241.878 17.8088C242.013 16.771 242.455 16.1082 243.339 15.7831C243.339 15.383 243.524 15.0579 243.696 14.7327C243.855 13.3573 244.371 12.0943 244.813 10.8314C245.01 10.2812 245.169 9.71845 245.329 9.15575C245.538 8.40549 246.005 8.09287 246.557 8.05536C247.122 8.01785 247.614 8.38048 247.847 9.06822C248.08 9.75597 249.247 10.3187 249.861 10.0686C250.095 9.96854 250.254 9.76847 250.34 9.50588C250.377 9.39334 250.34 9.26829 250.377 9.14325C250.537 8.48051 252.392 7.64271 252.907 8.00534C253.362 8.31795 253.35 8.79312 253.202 9.2808C253.128 9.50588 252.944 9.69345 253.251 9.86851C253.718 10.1311 254.701 9.8435 255.069 9.34332C255.88 8.78062 256.666 8.9932 257.427 9.46837C257.931 9.78098 258.41 9.90602 258.95 9.65593C259.429 9.44336 259.884 9.41835 260.301 9.83099C260.547 10.0686 260.793 9.91853 261.051 9.80599C261.886 9.43085 262.721 8.89316 263.642 9.5809C263.716 9.64343 263.851 9.63092 263.962 9.60591C265.448 9.30581 266.578 10.3187 267.794 10.9564C268.531 11.344 268.604 12.0193 268.211 12.8196C268.089 13.0571 267.781 13.2322 267.941 13.6449C268.076 13.5323 268.199 13.4323 268.322 13.3197C268.322 13.2822 268.322 13.2447 268.346 13.1947C268.469 12.7695 268.764 12.4819 269.034 12.1943C269.071 12.1568 269.108 12.1193 269.145 12.0693C269.145 12.0068 269.145 11.9568 269.145 11.8942C269.44 11.369 269.71 10.8439 270.017 10.3312C270.263 9.91853 270.594 9.65593 271.061 9.70595C271.122 9.65593 271.184 9.60591 271.233 9.5559C272.068 9.46836 272.83 9.98105 273.689 9.93103C274.046 9.90602 274.156 10.5437 274.463 10.8314C274.954 11.294 275.63 11.0564 276.072 11.4691C276.121 11.4691 276.17 11.4941 276.22 11.5191C276.33 11.5816 276.428 11.6692 276.514 11.7692C276.576 11.8067 276.625 11.8442 276.686 11.8817C277.055 11.9317 277.436 11.9943 277.804 12.0693C278.062 12.1193 278.246 12.0943 278.48 11.9568C279.118 11.5941 279.438 11.7567 279.683 12.5445C279.953 13.3948 279.929 14.2951 280.015 15.1829C280.064 14.6952 280.432 14.3201 280.543 13.8574C280.727 13.1572 280.997 12.4569 281.28 11.7817C281.624 11.3065 281.784 10.7313 281.894 10.1436C282.164 9.38083 282.435 8.63057 282.852 7.95532C282.938 7.81777 283.024 7.69273 283.122 7.55518C283.847 6.27972 284.535 4.97926 285.309 3.74132C285.788 2.97854 286.635 2.80348 287.372 3.20362C287.421 3.22863 287.483 3.30366 287.507 3.29116C288.453 2.89101 289.042 3.47872 289.571 4.22899C290.32 4.70416 291.204 4.70416 291.929 5.39191C292.224 5.67951 293.059 5.9296 293.722 5.40441C294.361 4.90423 294.656 5.67951 294.705 6.11717C294.828 7.3426 294.987 8.61806 294.484 9.80599C294.484 10.1561 294.484 10.5062 294.471 10.8439C294.054 12.607 293.82 14.4201 293.526 16.2208C293.476 16.5459 293.427 16.871 293.305 17.1836C293.243 17.4212 293.145 17.6588 293.096 17.8964C293.059 18.134 293.022 18.3841 293.157 18.6592C293.771 17.7713 293.71 16.5834 294.349 15.7831C294.508 14.7202 294.975 13.8074 295.626 13.0571C296.265 12.3069 297.272 12.657 297.653 13.6073C297.8 13.97 297.542 14.6577 298.168 14.6577C298.832 14.6577 299.655 14.7828 299.986 14.0075C300.477 12.8446 301.607 13.1197 302.32 12.4944C302.516 12.3319 302.774 12.5445 302.934 12.7821C303.118 13.0446 303.045 13.2822 302.86 13.5073C302.701 13.7199 302.344 13.8574 302.541 14.2326C302.725 14.5827 303.032 14.6702 303.376 14.6327C303.978 14.5577 304.543 14.5577 305.059 13.995C305.636 13.3698 306.435 13.5823 307.11 13.9825C307.687 14.3201 308.24 14.4451 308.891 14.2451C309.321 14.1075 309.8 14.07 310.205 14.4326C310.365 14.5702 310.561 14.5827 310.746 14.4952C311.765 13.97 312.686 13.8449 313.89 14.17C314.787 14.4201 315.732 14.5577 316.604 14.9828C317.206 15.2704 317.759 15.6206 318.25 16.1082C318.336 16.5334 318.189 16.871 317.906 17.1461C317.587 17.4712 317.354 17.8589 317.169 18.2965C317.133 18.3715 317.096 18.4591 317.047 18.5341C316.825 18.9092 316.727 19.3219 316.678 19.7595C317.292 19.8096 317.587 20.5723 318.312 20.5098C319.7 20.3973 320.903 21.0975 321.996 22.0229C322.377 22.3355 322.267 22.9232 322.156 23.2983C321.481 25.4741 320.744 27.6499 320.547 29.9257C320.289 32.8767 319.049 35.4902 318.508 38.3287C318.398 38.8914 318.398 39.229 318.729 39.2915C318.963 39.2415 319.208 39.2165 319.454 39.254C319.614 39.279 319.786 39.2665 319.958 39.304C320.068 39.3666 320.179 39.4166 320.301 39.4666C320.67 39.4666 321.051 39.4666 321.419 39.4666C321.984 39.5541 322.242 40.0793 322.586 40.492C323.188 40.7421 323.79 40.9421 324.367 41.2422C324.846 41.4923 325.006 41.1047 325.202 40.8171C325.878 39.8667 326.615 39.0289 327.683 38.6413C328.273 38.4287 328.825 38.3912 329.366 38.7663C330.299 38.7663 331.024 39.1915 331.835 39.7542C332.891 40.492 334.033 41.4798 335.544 40.9796C336.355 40.7045 336.907 41.3923 337.264 42.1551C337.89 43.543 338.148 45.0561 338.246 46.5941C338.295 47.2819 338.308 47.9821 338.32 48.6699C338.32 49.1075 338.467 49.2826 338.86 49.1576C339.745 48.8575 340.543 49.5702 341.427 49.4702C341.759 49.4327 341.771 49.9829 342.017 50.1454C343.049 50.7956 344.142 51.2833 345.259 51.6835C345.628 51.8085 345.996 51.6334 346.365 51.5209C346.77 51.3959 347.114 51.4459 347.225 52.0086C347.765 52.6588 347.79 53.4966 347.826 54.2844C348.048 58.3734 348.084 62.4748 347.777 66.5638L347.679 66.5763ZM50.5165 101.839C50.5165 101.839 50.5533 101.851 50.5656 101.864C50.5533 101.864 50.5288 101.851 50.5165 101.839ZM340.924 75.542C340.924 75.542 340.985 75.567 341.01 75.5795C340.985 75.5795 340.948 75.5545 340.924 75.542ZM239.126 101.501C239.225 101.589 239.274 101.701 239.298 101.839C239.298 101.689 239.237 101.576 239.126 101.501ZM239.065 101.451C239.065 101.451 239.114 101.476 239.126 101.489C239.102 101.476 239.09 101.451 239.065 101.451ZM280.015 15.5956C280.015 15.5956 280.003 15.5956 279.99 15.5956C280.027 15.6581 280.101 15.5705 280.015 15.5956ZM149.919 2.19076C149.919 2.19076 149.845 2.19076 149.808 2.17826C149.968 2.26579 150.115 2.36582 150.275 2.45336C150.25 2.41584 150.213 2.40334 150.189 2.35332C150.14 2.26579 150.005 2.19076 149.906 2.19076H149.919ZM134.209 20.7724C134.209 20.7724 134.185 20.7724 134.173 20.7724C134.173 20.7849 134.185 20.8099 134.197 20.8224C134.197 20.8224 134.197 20.7974 134.209 20.7849V20.7724ZM116.867 111.467C116.867 111.467 116.781 111.455 116.744 111.467C116.781 111.467 116.83 111.467 116.867 111.467ZM137.354 110.892C137.28 110.83 137.206 110.755 137.133 110.68C137.169 110.78 137.243 110.855 137.354 110.892ZM138.41 111.705C138.41 111.705 138.41 111.705 138.398 111.705H138.41ZM148.789 107.441C148.789 107.441 148.74 107.441 148.715 107.441C148.69 107.441 148.666 107.466 148.641 107.466C148.703 107.478 148.752 107.466 148.789 107.453V107.441ZM171.474 114.931C171.474 114.931 171.474 114.931 171.487 114.931H171.474ZM202.721 108.204C202.66 108.191 202.598 108.166 202.537 108.141C202.598 108.191 202.672 108.216 202.721 108.204ZM232.531 99.7632C232.531 99.7632 232.457 99.7131 232.42 99.7256C232.42 99.7256 232.408 99.7256 232.396 99.7256C232.432 99.7256 232.482 99.7507 232.518 99.7632H232.531ZM273.849 96.2744C273.837 96.2119 273.812 96.1494 273.763 96.0993C273.8 96.1619 273.824 96.2119 273.849 96.2619V96.2744ZM313.865 88.8718C313.865 88.8718 313.939 88.9093 313.976 88.9343C313.939 88.9093 313.902 88.8843 313.865 88.8718Z" fill="#833F0B"/>
<path d="M129 49.24H139.48V54.72H129V49.24ZM125.84 24.8H142.16V57.04H136.4V30.28H131.32V57.68H125.84V24.8ZM106.52 42.56L110.44 38.88C114.96 42.96 122.16 48.88 125.48 52.64L121.12 57.04C118.04 53.2 111.2 47 106.52 42.56ZM106.52 42.56C108.16 36.96 109.8 28.28 110.24 21.04L116.44 21.4C115.64 29.16 113.84 38.24 112.16 44.56L106.52 42.56ZM118.24 25.52H123.96V30.44C123.96 38.28 122.6 51.12 109.92 58.64C109.04 57.32 107.08 55.2 105.76 54.2C117.08 47.88 118.24 36.88 118.24 30.4V25.52ZM105.8 27.96C110.88 27.76 118.32 27.36 125.16 27L125.12 32.44C118.56 32.96 111.52 33.36 106.36 33.72L105.8 27.96ZM163.32 24H188V29.56H163.32V24ZM180.04 26H185.88V52.28C185.88 55.4 185.28 56.92 183.4 57.84C181.52 58.72 178.76 58.92 175.16 58.88C174.96 57.24 174.04 54.64 173.24 53C175.52 53.12 178.2 53.12 179 53.12C179.76 53.12 180.04 52.92 180.04 52.2V26ZM163.4 33.16H168.84V50.64H163.4V33.16ZM165.72 33.16H177.24V48.12H165.72V43.16H171.88V38.12H165.72V33.16ZM158.52 20.68L163.96 22.44C161.4 29.2 157.12 36.6 152.68 41.12C152.2 39.72 150.64 36.48 149.68 35C153.16 31.6 156.56 26.12 158.52 20.68ZM155 32.36L160.8 26.56V26.6V58.68H155V32.36ZM204.56 25.84H218.08V30.56H204.56V25.84ZM210.08 32.8H215.16V37.44H210.08V32.8ZM213.48 32.8H218.32C218.32 32.8 218.28 34.12 218.28 34.68C218 45.04 217.68 49.12 216.76 50.44C216 51.52 215.24 51.88 214.24 52.12C213.36 52.28 212.08 52.32 210.64 52.32C210.56 50.92 210.08 48.96 209.44 47.72C210.32 47.84 211 47.84 211.52 47.84C211.96 47.84 212.24 47.72 212.52 47.28C213.04 46.52 213.28 43.24 213.48 33.64V32.8ZM220 24.56H231.92V29.28H220V24.56ZM218.8 38.72H231.8V43.24H218.8V38.72ZM219.64 31.08H228.12V35.2H219.64V31.08ZM221.36 20.56L226.12 21.92C224.84 25.64 222.76 29.92 220.96 32.56C220.08 31.72 218.16 30.16 217.04 29.44C218.72 27.2 220.4 23.72 221.36 20.56ZM222.72 36.72H227.6V46.84C227.6 49 227.32 50.36 225.84 51.12C224.44 51.88 222.68 51.96 220.44 51.96C220.28 50.56 219.56 48.52 218.88 47.2C220.2 47.24 221.68 47.24 222.12 47.24C222.6 47.24 222.72 47.12 222.72 46.76V36.72ZM226.72 31.08H227.88L228.8 30.8L231.8 33.12C230 35.4 227.56 37.96 225.36 39.68C224.76 38.76 223.48 37.4 222.72 36.72C224.24 35.44 225.96 33.28 226.72 31.92V31.08ZM207.44 28.04H211.96V33.48C211.96 38.44 211.48 46.28 207.4 51.2C206.68 50.24 205.04 48.64 204 47.96C207.12 43.8 207.44 37.44 207.44 33.4V28.04ZM208.52 21.56L213.56 20.72C214.08 22.32 214.68 24.4 214.92 25.8L209.72 26.84C209.52 25.44 209 23.2 208.52 21.56ZM195.2 23.28L199.64 20.88C201.28 22.76 203.2 25.28 204.2 26.92L199.56 29.8C198.68 28.08 196.76 25.28 195.2 23.28ZM194.6 30.2H202.92V34.76H194.6V30.2ZM203.28 47.04C205.24 52.52 209.64 53.12 216.48 53.16C220.8 53.16 227.8 52.88 232.6 52.4C231.8 53.56 231.04 56.16 230.76 57.72C226.36 58 221.2 58.12 216.36 58.12C207.12 58.12 202.32 56.8 199.4 48.52L203.28 47.04ZM200.36 39.76H202.12L203 39.64L205.36 40.6C204.28 49.52 201.48 55.72 197.28 58.96C196.56 57.84 194.64 55.88 193.56 55.12C197.36 52.44 199.6 47.4 200.36 40.6V39.76ZM195.68 44.84V40.76L197.56 39.76H203.24L203.2 44.2H198.2C197.28 44.2 196.04 44.48 195.68 44.84ZM195.68 44.84C195.4 43.64 194.4 41.24 193.88 40.24C194.6 40.08 195.24 39.72 196 38.92C197.04 37.84 200.16 32.88 201.4 30.64V30.48L202.8 29.92L206.32 31.36C204.6 34.12 201.56 39.16 199.44 41.76C199.44 41.76 195.68 43.6 195.68 44.84ZM238.28 23.72H252.16V29.08H238.28V23.72ZM238.6 35.16H251.96V40.48H238.6V35.16ZM237.44 48.8C241.32 48.12 247.2 46.84 252.72 45.6L253.32 50.6C248.24 51.92 242.8 53.28 238.56 54.36L237.44 48.8ZM254.2 23.68H273.68V29.2H254.2V23.68ZM252.68 34.76H275.76V40.32H252.68V34.76ZM256.76 38.8H262.36C262 48.8 260.96 55.28 251 58.8C250.44 57.44 248.96 55.32 247.8 54.28C256.2 51.56 256.52 46.92 256.76 38.8ZM264.04 38.68H269.8V51.64C269.8 53.08 269.84 53.24 270.24 53.24C270.4 53.24 270.76 53.24 270.88 53.24C271.4 53.24 271.56 52.48 271.64 47.72C272.76 48.72 275.24 49.68 276.76 50.08C276.28 56.68 274.88 58.64 271.52 58.64C270.76 58.64 269.88 58.64 269.16 58.64C264.96 58.64 264.04 56.84 264.04 51.68V38.68ZM242.76 25.84H248.36V49.32L242.76 50.12V25.84Z" fill="white"/>
<path d="M96.1631 69.464C96.1631 70.184 95.6951 70.184 95.6951 70.94C95.6951 71.66 95.7671 71.66 95.7671 72.416C95.7671 73.136 95.6951 73.136 95.6951 73.892C95.6951 74.612 95.8391 74.612 95.8391 75.332C95.8391 76.088 95.8751 76.088 95.8751 76.808C95.8751 77.564 95.6951 77.564 95.6951 78.284C95.6951 79.004 96.0551 79.004 96.0551 79.76C96.0551 79.76 96.0551 80.48 95.7311 81.2C95.7311 81.956 95.8031 81.956 95.8031 82.676C95.8031 83.396 96.0551 83.396 96.0551 84.152C96.0551 84.872 95.6951 84.872 95.6951 85.592C95.6951 86.348 96.0191 86.348 96.0191 87.068C96.0191 87.608 95.5511 87.932 95.1911 88.292C94.8311 88.652 94.5071 88.832 93.9671 88.832C93.4271 88.832 92.8511 88.904 92.4911 88.544C92.1311 88.184 92.1311 87.608 92.1311 87.068C92.1311 86.312 92.0231 86.312 92.0231 85.592C92.0231 84.836 91.7351 84.836 91.7351 84.08C91.7351 83.324 91.8431 83.324 91.8431 82.604C91.8431 81.848 91.9511 81.848 91.9511 81.092C91.9511 80.372 92.6711 79.976 92.1311 79.436C91.5911 78.896 91.1951 79.868 90.4391 79.868C89.6831 79.868 89.6831 79.724 88.9271 79.724C88.1711 79.724 88.1711 79.58 87.3791 79.58C86.6231 79.58 86.6231 79.832 85.8671 79.832C85.1111 79.832 85.1111 79.508 84.3551 79.508C83.5991 79.508 83.5991 79.364 82.8071 79.364C82.0511 79.364 81.9431 79.184 81.4031 79.724C80.8631 80.228 81.0791 80.372 81.0791 81.092C81.0791 81.848 81.5111 81.848 81.5111 82.604C81.5111 83.36 81.1871 83.36 81.1871 84.08C81.1871 84.836 81.3311 84.836 81.3311 85.592C81.3311 86.312 81.5111 86.312 81.5111 87.068C81.5111 87.644 81.2231 88.256 80.8631 88.616C80.5031 88.976 79.8551 89.336 79.3151 89.336C78.7391 89.336 78.3431 88.76 77.9831 88.4C77.6231 88.04 77.4791 87.644 77.4791 87.068C77.4791 86.348 77.2991 86.348 77.2991 85.592C77.2991 84.872 77.2631 84.116 77.2631 84.116C77.2631 83.396 77.2991 83.396 77.2991 82.676C77.2991 81.92 77.1191 81.92 77.1191 81.2C77.1191 80.444 77.3351 80.444 77.3351 79.724C77.3351 79.004 77.5871 79.004 77.5871 78.248C77.5871 77.528 77.2271 77.528 77.2271 76.808C77.2271 76.052 77.4431 76.052 77.4431 75.332C77.4431 74.612 77.4791 74.612 77.4791 73.856C77.4791 73.136 77.1911 73.136 77.1911 72.38C77.1911 71.66 77.4431 71.66 77.4431 70.94C77.4431 70.184 77.3711 70.184 77.3711 69.464C77.3711 68.924 77.5511 68.42 77.9111 68.06C78.2711 67.7 78.7391 67.484 79.3151 67.484C79.8551 67.484 80.3951 67.664 80.7551 68.024C81.1151 68.384 81.0431 68.924 81.0431 69.464C81.0431 70.22 81.2231 70.22 81.2231 71.012C81.2231 71.768 81.2591 71.768 81.2591 72.524C81.2591 73.316 81.3671 73.316 81.3671 74.072C81.3671 74.828 80.6831 75.152 81.2231 75.692C81.7631 76.232 82.0511 75.332 82.8431 75.332C83.5991 75.332 83.5991 75.548 84.3551 75.548C85.1111 75.548 85.1111 75.8 85.8671 75.8C86.6591 75.8 86.6591 75.8 87.4151 75.8C88.1711 75.8 88.1711 75.584 88.9271 75.584C89.6831 75.584 89.6831 75.872 90.4391 75.872C91.1951 75.872 91.5551 76.268 92.0951 75.728C92.6351 75.188 91.7351 74.828 91.7351 74.072C91.7351 73.316 91.7711 73.316 91.7711 72.524C91.7711 71.768 92.2391 71.768 92.2391 71.012C92.2391 70.22 91.9151 70.22 91.9151 69.464C91.9151 68.924 92.2391 68.456 92.5991 68.096C92.9591 67.736 93.4271 67.196 93.9671 67.196C94.5071 67.196 94.9031 67.808 95.2631 68.168C95.6231 68.528 96.1631 68.924 96.1631 69.464ZM113.958 81.632C113.958 81.164 113.562 80.768 113.454 80.408C113.31 79.904 113.274 79.4 113.022 79.22C112.698 78.896 112.41 78.608 112.086 78.428C111.726 78.212 111.258 78.356 110.862 78.284C110.502 78.212 110.142 77.78 109.71 77.78C109.17 77.78 108.666 78.356 108.126 78.572C107.514 78.788 106.866 78.86 106.578 79.184C106.29 79.58 106.11 79.976 105.966 80.336C105.786 80.768 105.678 81.2 105.678 81.632C105.678 81.992 105.786 82.352 105.894 82.712C106.002 83.036 105.966 83.504 106.182 83.828C106.434 84.26 107.046 84.224 107.406 84.476C107.73 84.656 108.018 85.088 108.522 85.16C108.918 85.232 109.35 85.124 109.89 85.124C110.358 85.124 110.79 85.088 111.15 85.016C111.618 84.872 112.05 84.836 112.374 84.656C112.77 84.404 113.202 84.152 113.454 83.864C113.67 83.612 113.958 82.532 113.958 81.632ZM118.026 81.632C118.026 82.172 117.45 82.64 117.342 83.18C117.27 83.684 117.486 84.296 117.27 84.8C117.09 85.304 116.55 85.592 116.226 86.024C115.938 86.384 115.83 86.96 115.434 87.284C115.074 87.608 114.606 87.824 114.174 88.076C113.742 88.328 113.31 88.58 112.806 88.76C112.374 88.904 111.87 88.868 111.33 88.976C110.862 89.048 110.394 89.048 109.89 89.048C109.818 89.048 109.746 89.444 109.674 89.444C109.134 89.444 108.558 89.372 108.054 89.3C107.55 89.192 107.118 88.724 106.65 88.58C106.146 88.4 105.57 88.364 105.138 88.112C104.706 87.86 104.454 87.32 104.094 86.96C103.734 86.6 103.302 86.276 103.05 85.844C102.762 85.412 102.366 85.052 102.186 84.584C102.006 84.116 102.006 83.576 101.898 83.108C101.79 82.604 101.682 82.136 101.682 81.632C101.682 81.164 101.502 80.696 101.61 80.228C101.682 79.796 102.186 79.472 102.33 79.04C102.51 78.608 102.33 78.032 102.546 77.636C102.762 77.276 103.158 76.916 103.446 76.592C103.734 76.232 104.094 75.872 104.454 75.584C104.814 75.296 105.39 75.404 105.822 75.188C106.218 74.972 106.506 74.504 106.938 74.36C107.406 74.216 107.838 74.108 108.306 74.036C108.774 73.964 109.242 74.144 109.674 74.144V74.108C110.106 74.108 110.538 74.072 111.006 74.108C111.438 74.18 111.834 74.396 112.266 74.504C112.698 74.612 113.202 74.504 113.634 74.72C114.03 74.9 114.246 75.368 114.642 75.62C115.002 75.872 115.398 76.052 115.722 76.376C116.082 76.736 116.406 77.06 116.658 77.456C116.946 77.888 117.09 78.32 117.27 78.788C117.414 79.256 117.414 79.724 117.486 80.192C117.558 80.696 118.026 81.128 118.026 81.632ZM142.651 76.484C142.471 77.24 142.831 77.168 142.651 78.032C142.543 78.464 142.183 78.932 142.039 79.472C141.967 79.94 141.967 80.48 141.859 80.984C141.751 81.488 141.679 82.028 141.571 82.46C141.391 83.324 141.247 83.144 141.067 83.9C140.923 84.656 141.067 84.692 140.923 85.412C140.923 85.448 140.887 85.448 140.887 85.448C140.779 85.952 140.707 86.42 140.527 86.816C140.311 87.248 139.915 87.536 139.591 87.86C139.267 88.184 138.871 88.292 138.439 88.472C138.043 88.652 137.683 88.94 137.179 88.94C137.179 88.94 137.143 88.904 137.107 88.904C136.603 88.904 136.207 88.688 135.739 88.4C135.343 88.148 135.055 87.86 134.695 87.392C134.443 86.996 134.191 86.6 134.011 86.06C133.831 85.628 133.435 85.196 133.327 84.656C133.219 84.188 133.219 83.684 133.147 83.144C133.075 83.684 133.003 84.188 132.895 84.656C132.787 85.196 132.787 85.736 132.607 86.168C132.427 86.744 131.887 87.032 131.635 87.428C131.347 87.896 131.167 88.328 130.735 88.58C130.303 88.796 129.871 88.796 129.295 88.796C129.259 88.796 129.223 88.796 129.223 88.796C128.719 88.796 128.287 88.868 127.855 88.688C127.423 88.508 127.135 88.148 126.811 87.824C126.487 87.5 125.947 87.284 125.731 86.852C125.515 86.456 125.731 85.88 125.623 85.412C125.623 85.376 125.443 85.448 125.407 85.412C125.263 84.656 125.011 84.728 124.867 83.972C124.723 83.252 125.191 83.144 125.011 82.388C124.867 81.668 124.831 81.668 124.651 80.912C124.507 80.192 124.399 80.192 124.255 79.472C124.075 78.716 123.715 78.788 123.571 78.068C123.391 77.312 123.607 77.276 123.463 76.52C123.355 76.016 123.607 75.548 123.895 75.152C124.183 74.72 124.435 74.216 124.975 74.108C125.515 74 126.163 74.036 126.595 74.288C126.991 74.576 127.063 75.188 127.207 75.728C127.351 76.484 127.639 76.412 127.783 77.132C127.963 77.888 127.927 77.888 128.107 78.644C128.251 79.364 128.287 79.364 128.467 80.084C128.611 80.84 128.683 80.804 128.863 81.56C129.007 82.28 128.755 82.352 128.935 83.072C129.079 83.828 128.935 83.828 129.151 84.584C129.331 85.196 129.511 85.016 129.547 85.052C129.583 85.016 129.655 85.16 129.799 84.584C129.907 84.26 129.979 83.792 130.087 83.288C130.159 82.892 130.555 82.496 130.627 82.064C130.735 81.632 130.375 81.092 130.447 80.66C130.555 80.192 130.879 79.796 130.987 79.436C131.131 78.68 131.275 78.14 131.275 78.14C131.383 77.636 131.527 77.168 131.815 76.916C132.175 76.628 132.643 76.592 133.111 76.592C133.543 76.592 133.867 76.844 134.263 77.168C134.551 77.42 134.731 77.636 134.839 78.176C134.839 78.176 135.451 78.608 135.595 79.364C135.703 79.76 135.487 80.264 135.595 80.732C135.703 81.164 135.703 81.596 135.811 82.028C135.883 82.496 136.207 82.892 136.315 83.288C136.423 83.792 136.387 84.26 136.459 84.62C136.603 85.16 136.747 85.124 136.783 85.16C136.783 85.124 136.963 85.16 137.143 84.584C137.323 83.828 137.215 83.828 137.359 83.072C137.503 82.352 137.503 82.352 137.683 81.596C137.827 80.84 137.647 80.804 137.791 80.084C137.935 79.328 137.971 79.328 138.151 78.608C138.295 77.852 138.691 77.96 138.835 77.204C138.979 76.484 138.763 76.412 138.907 75.692L139.267 75.764C139.375 75.224 139.339 74.576 139.771 74.324C140.167 74.036 140.815 74.072 141.319 74.216C141.859 74.324 142.147 74.72 142.399 75.152C142.687 75.584 142.759 75.944 142.651 76.484ZM178.864 77.06C178.864 77.6 178.324 77.996 177.964 78.356C177.604 78.716 177.208 79.292 176.668 79.292C176.056 79.292 176.056 79.184 175.444 79.076C174.832 79.004 174.616 78.572 174.184 79.004C173.752 79.436 173.968 79.652 173.968 80.264C173.968 80.876 174.364 80.876 174.364 81.488C174.364 82.1 174.148 82.1 174.148 82.712C174.148 83.18 174.148 83.612 174.22 83.9C174.364 84.404 174.652 84.692 174.868 84.908C175.192 85.232 175.588 85.268 176.236 85.268C176.776 85.268 177.352 85.592 177.712 85.952C178.072 86.312 178.432 86.888 178.432 87.428C178.432 87.968 178.072 88.544 177.712 88.904C177.352 89.264 176.776 89.3 176.236 89.3L176.2 89.48C175.696 89.48 175.192 89.264 174.652 89.12C174.148 89.012 173.68 88.832 173.248 88.544C172.78 88.292 172.456 87.932 172.096 87.536C171.772 87.212 171.448 86.96 171.196 86.564C170.98 86.168 170.764 85.808 170.62 85.34C170.476 84.944 170.512 84.476 170.44 84.044C170.368 83.612 170.296 83.18 170.296 82.712C170.296 82.1 170.476 82.1 170.476 81.488C170.476 80.876 170.332 80.876 170.332 80.264C170.332 79.652 170.656 79.508 170.368 78.968C170.224 78.68 169.9 79.112 169.576 79.112C169.036 79.112 168.388 78.968 168.028 78.608C167.668 78.248 167.344 77.6 167.344 77.06C167.344 76.484 167.776 75.944 168.136 75.584C168.496 75.224 169.036 75.152 169.576 75.152C169.9 75.152 170.008 75.332 170.116 75.008C170.44 74.144 170.08 74.108 170.08 73.172C170.08 72.632 170.476 72.164 170.836 71.804C171.196 71.444 171.664 71.156 172.204 71.156C172.78 71.156 173.32 71.372 173.68 71.732C174.04 72.092 174.148 72.632 174.148 73.172C174.148 74.108 173.896 74.144 174.4 74.936C174.724 75.44 174.832 75.296 175.444 75.296C176.056 75.296 176.056 75.044 176.668 75.044C177.208 75.044 177.676 75.332 178.036 75.692C178.396 76.052 178.864 76.484 178.864 77.06ZM196.659 81.632C196.659 81.164 196.263 80.768 196.155 80.408C196.011 79.904 195.975 79.4 195.723 79.22C195.399 78.896 195.111 78.608 194.787 78.428C194.427 78.212 193.959 78.356 193.563 78.284C193.203 78.212 192.843 77.78 192.411 77.78C191.871 77.78 191.367 78.356 190.827 78.572C190.215 78.788 189.567 78.86 189.279 79.184C188.991 79.58 188.811 79.976 188.667 80.336C188.487 80.768 188.379 81.2 188.379 81.632C188.379 81.992 188.487 82.352 188.595 82.712C188.703 83.036 188.667 83.504 188.883 83.828C189.135 84.26 189.747 84.224 190.107 84.476C190.431 84.656 190.719 85.088 191.223 85.16C191.619 85.232 192.051 85.124 192.591 85.124C193.059 85.124 193.491 85.088 193.851 85.016C194.319 84.872 194.751 84.836 195.075 84.656C195.471 84.404 195.903 84.152 196.155 83.864C196.371 83.612 196.659 82.532 196.659 81.632ZM200.727 81.632C200.727 82.172 200.151 82.64 200.043 83.18C199.971 83.684 200.187 84.296 199.971 84.8C199.791 85.304 199.251 85.592 198.927 86.024C198.639 86.384 198.531 86.96 198.135 87.284C197.775 87.608 197.307 87.824 196.875 88.076C196.443 88.328 196.011 88.58 195.507 88.76C195.075 88.904 194.571 88.868 194.031 88.976C193.563 89.048 193.095 89.048 192.591 89.048C192.519 89.048 192.447 89.444 192.375 89.444C191.835 89.444 191.259 89.372 190.755 89.3C190.251 89.192 189.819 88.724 189.351 88.58C188.847 88.4 188.271 88.364 187.839 88.112C187.407 87.86 187.155 87.32 186.795 86.96C186.435 86.6 186.003 86.276 185.751 85.844C185.463 85.412 185.067 85.052 184.887 84.584C184.707 84.116 184.707 83.576 184.599 83.108C184.491 82.604 184.383 82.136 184.383 81.632C184.383 81.164 184.203 80.696 184.311 80.228C184.383 79.796 184.887 79.472 185.031 79.04C185.211 78.608 185.031 78.032 185.247 77.636C185.463 77.276 185.859 76.916 186.147 76.592C186.435 76.232 186.795 75.872 187.155 75.584C187.515 75.296 188.091 75.404 188.523 75.188C188.919 74.972 189.207 74.504 189.639 74.36C190.107 74.216 190.539 74.108 191.007 74.036C191.475 73.964 191.943 74.144 192.375 74.144V74.108C192.807 74.108 193.239 74.072 193.707 74.108C194.139 74.18 194.535 74.396 194.967 74.504C195.399 74.612 195.903 74.504 196.335 74.72C196.731 74.9 196.947 75.368 197.343 75.62C197.703 75.872 198.099 76.052 198.423 76.376C198.783 76.736 199.107 77.06 199.359 77.456C199.647 77.888 199.791 78.32 199.971 78.788C200.115 79.256 200.115 79.724 200.187 80.192C200.259 80.696 200.727 81.128 200.727 81.632ZM239.42 75.62C239.42 75.08 239.276 74.576 238.952 74C238.664 73.604 238.448 73.028 237.908 72.596C237.548 72.344 236.9 72.416 236.324 72.236C235.892 72.092 235.46 71.732 234.884 71.66C234.416 71.588 233.876 71.84 233.336 71.84C232.94 71.84 232.544 71.912 232.112 71.948C231.68 71.984 231.248 71.696 230.816 71.732C230.42 71.804 229.988 71.984 229.592 72.056C229.412 72.704 229.844 72.74 229.844 73.424C229.844 74.144 229.448 74.144 229.448 74.828C229.448 75.512 229.664 75.512 229.664 76.196C229.664 76.88 229.7 76.88 229.7 77.6C229.7 78.284 229.52 78.284 229.556 78.968C229.664 79.004 229.772 79.112 229.88 79.148C230.312 79.328 230.744 79.4 231.176 79.508C231.608 79.652 232.04 79.724 232.472 79.796C232.94 79.868 233.372 79.904 233.804 79.904C234.344 79.904 234.848 79.904 235.316 79.832C235.856 79.724 236.216 79.256 236.648 79.076C237.116 78.824 237.476 78.572 237.836 78.248C238.268 77.816 238.52 77.456 238.772 77.024C239.06 76.52 239.42 76.124 239.42 75.62ZM243.452 75.62C243.452 76.052 243.236 76.484 243.164 76.916C243.092 77.348 242.984 77.744 242.804 78.14C242.66 78.572 242.768 79.112 242.552 79.472C242.336 79.868 242.012 80.228 241.724 80.552C241.472 80.912 240.932 81.02 240.608 81.308C240.248 81.632 240.032 82.208 239.6 82.46C239.168 82.712 238.556 82.64 238.088 82.82C237.656 83.036 237.26 83.396 236.756 83.504C236.288 83.648 235.82 83.864 235.316 83.936C234.812 84.008 234.308 84.08 233.804 84.08C233.336 84.08 232.868 83.828 232.4 83.756C231.932 83.72 231.392 83.9 230.924 83.792C230.492 83.684 230.204 83.396 229.736 83.252C229.484 83.9 229.664 83.9 229.664 84.584C229.664 85.268 229.88 85.268 229.88 85.988C229.88 86.672 229.34 86.672 229.34 87.356H229.664C229.664 87.896 229.556 88.58 229.196 88.94C228.836 89.3 228.152 89.3 227.612 89.3C227.036 89.3 226.712 88.976 226.352 88.616C225.992 88.256 225.488 87.896 225.488 87.356C225.488 86.672 225.452 86.744 225.452 85.952C225.452 85.52 225.452 85.016 225.452 84.548C225.452 84.044 225.488 83.54 225.488 83.144C225.488 82.316 225.416 82.424 225.416 81.704C225.416 81.02 225.668 81.02 225.668 80.3C225.668 79.616 225.488 79.616 225.488 78.896C225.488 78.212 225.56 78.212 225.56 77.492C225.56 76.808 225.38 76.808 225.38 76.088C225.38 75.404 225.38 75.404 225.38 74.684C225.38 74 225.488 74 225.488 73.28C225.488 72.596 225.848 72.596 225.848 71.876C225.848 71.192 225.848 71.192 225.848 70.472C225.848 70.004 225.776 69.608 226.028 69.284C226.316 68.924 226.64 68.636 227.072 68.528C227.576 68.384 228.116 68.348 228.62 68.24C229.16 68.132 229.7 68.204 230.204 68.096C230.744 68.024 231.248 67.808 231.752 67.772C232.292 67.736 232.796 67.52 233.336 67.52C233.804 67.52 234.272 67.916 234.776 67.952C235.244 67.988 235.712 68.096 236.18 68.204C236.648 68.276 237.116 68.312 237.548 68.456C238.016 68.636 238.556 68.528 238.988 68.78C239.42 68.996 239.636 69.536 240.032 69.824C240.428 70.112 240.824 70.292 241.148 70.616C241.508 70.976 242.084 71.12 242.336 71.516C242.624 71.912 242.696 72.416 242.876 72.848C243.056 73.28 243.128 73.784 243.236 74.216C243.344 74.684 243.452 75.152 243.452 75.62ZM253.314 70.94C253.314 71.66 252.918 71.66 252.918 72.416C252.918 73.136 252.882 73.136 252.882 73.856C252.882 74.576 252.918 74.576 252.918 75.332C252.918 76.052 253.026 76.052 253.026 76.772C253.026 77.528 252.918 77.528 252.918 78.248C252.918 78.968 252.954 78.968 252.954 79.688C252.954 80.444 253.206 80.444 253.206 81.164C253.206 81.884 252.846 81.884 252.846 82.604C252.846 83.36 252.846 83.36 252.846 84.08C252.846 84.8 252.846 84.8 252.846 85.52C252.846 86.276 252.954 86.276 252.954 86.996C252.954 87.536 252.99 88.148 252.63 88.508C252.27 88.868 251.658 88.724 251.118 88.724C250.578 88.724 250.074 88.76 249.714 88.4C249.354 88.04 248.886 87.536 248.886 86.996C248.886 86.24 249.138 86.24 249.138 85.52C249.138 84.8 249.39 84.8 249.39 84.044C249.39 83.324 248.994 83.324 248.994 82.604C248.994 81.884 248.958 81.884 248.958 81.128C248.958 80.408 249.066 80.408 249.066 79.688C249.066 78.932 249.246 78.932 249.246 78.212C249.246 77.492 249.03 77.492 249.03 76.772C249.03 76.016 249.138 76.016 249.138 75.296C249.138 74.576 249.21 74.576 249.21 73.856C249.21 73.1 248.85 73.1 248.85 72.38C248.85 71.66 249.21 71.66 249.21 70.94C249.21 70.184 249.066 70.184 249.066 69.464C249.066 68.924 249.498 68.564 249.858 68.204C250.218 67.844 250.578 67.376 251.118 67.376C251.658 67.376 252.018 67.88 252.378 68.24C252.738 68.6 253.278 68.924 253.278 69.464C253.278 70.22 253.314 70.22 253.314 70.94ZM271.135 81.056C271.135 80.48 271.063 80.48 270.991 79.904C270.883 79.004 270.343 78.896 269.983 78.608C269.623 78.356 269.083 78.068 268.219 78.068C268.183 78.068 268.183 77.852 268.183 77.852C267.751 77.852 267.355 78.068 266.887 78.176C266.491 78.284 266.131 78.5 265.699 78.68C265.339 78.86 265.051 79.148 264.691 79.436C264.331 79.688 263.647 79.616 263.359 79.94C263.107 80.228 263.035 80.732 262.891 81.092C262.783 81.452 262.963 81.884 262.963 82.28C262.963 83.036 263.035 83.648 263.503 84.116C263.791 84.44 264.115 84.548 264.439 84.656C264.799 84.836 265.123 85.16 265.483 85.16C265.879 85.16 266.167 84.728 266.527 84.584C266.887 84.44 267.139 84.26 267.427 83.972C268.147 83.288 268.471 83.612 269.227 82.892C269.731 82.388 270.451 82.172 271.099 82.352C271.423 81.848 271.171 81.668 271.135 81.056ZM275.275 85.484C275.311 86.204 274.951 86.24 274.987 86.96L275.239 86.924C275.239 87.5 274.915 87.932 274.555 88.292C274.231 88.688 273.835 88.868 273.259 88.904C273.223 88.904 273.223 89.228 273.187 89.228C272.647 89.228 272.107 88.868 271.747 88.508C271.387 88.184 271.279 87.68 271.243 87.14C271.243 86.708 271.567 86.384 271.135 86.348C270.595 86.276 270.703 86.636 270.307 86.996C269.983 87.32 269.767 87.788 269.407 88.004C269.011 88.256 268.507 88.328 268.111 88.472C267.679 88.652 267.319 89.012 266.851 89.12C266.419 89.192 265.951 88.724 265.483 88.724C265.051 88.724 264.583 88.904 264.151 88.796C263.719 88.724 263.179 88.832 262.747 88.652C262.351 88.472 262.027 88.076 261.631 87.824C261.271 87.572 260.911 87.284 260.587 86.96C260.299 86.636 259.939 86.348 259.723 85.988C259.471 85.628 259.615 85.088 259.471 84.692C259.327 84.296 258.787 84.008 258.715 83.576C258.643 83.144 259.003 82.712 259.003 82.28C259.003 81.848 258.859 81.416 258.931 80.984C259.003 80.552 259.111 80.156 259.255 79.76C259.399 79.328 259.795 79.076 260.011 78.716C260.227 78.32 260.191 77.78 260.479 77.456C260.803 77.06 261.343 76.952 261.703 76.628C262.063 76.304 262.243 75.764 262.639 75.476C263.071 75.224 263.539 75.044 263.971 74.828C264.403 74.612 264.979 74.792 265.411 74.648C265.879 74.504 266.311 74.288 266.779 74.216C267.247 74.144 267.715 74.144 268.219 74.144C268.687 74.144 269.155 74.252 269.659 74.324C270.163 74.396 270.739 74.216 271.207 74.396C271.639 74.576 272.215 74.684 272.647 75.008C272.971 75.224 273.079 75.8 273.367 76.124C273.619 76.448 274.015 76.7 274.195 77.096C274.411 77.456 274.231 77.96 274.339 78.392C274.447 78.788 274.699 79.148 274.735 79.58C274.735 79.616 274.771 79.616 274.771 79.688C274.807 80.408 275.131 80.372 275.167 81.092C275.203 81.848 274.843 81.848 274.879 82.604C274.915 83.324 274.879 83.324 274.915 84.044C274.951 84.764 275.239 84.764 275.275 85.484ZM296.802 76.736C296.946 77.204 296.91 77.96 296.658 78.428C296.334 79.112 296.01 78.968 295.686 79.652C295.326 80.3 295.434 80.372 295.11 81.056C294.786 81.74 294.678 81.668 294.354 82.352C293.994 83.036 294.246 83.144 293.922 83.828C293.598 84.512 293.238 84.332 292.878 85.016C292.554 85.664 292.986 85.88 292.662 86.564C292.338 87.248 292.266 87.212 291.942 87.896C291.618 88.58 291.258 88.4 290.898 89.048C290.574 89.732 290.898 89.912 290.574 90.56C290.25 91.244 290.358 91.316 290.07 92C289.854 92.468 289.314 92.792 289.026 93.224C288.702 93.656 288.414 94.088 288.018 94.412C287.586 94.736 287.262 95.204 286.794 95.42C286.326 95.672 285.714 95.564 285.21 95.708C284.67 95.816 284.166 95.888 283.662 95.888C283.626 95.888 283.554 95.78 283.518 95.78C283.266 95.78 283.014 95.816 282.762 95.78C282.186 95.744 281.538 95.744 281.214 95.348C280.89 94.952 280.746 94.304 280.818 93.728C280.854 93.188 281.07 92.54 281.466 92.216C281.862 91.892 282.546 92.072 283.086 92.144C283.23 92.144 283.374 92 283.518 92C284.166 91.964 284.742 91.928 285.174 91.676C285.606 91.424 286.074 91.028 286.362 90.416C286.362 90.38 286.11 90.236 286.11 90.164C286.578 89.264 286.866 89.372 286.902 88.364C286.938 87.644 286.686 87.788 286.326 87.14C285.93 86.528 285.822 86.636 285.426 85.988C285.066 85.376 284.994 85.412 284.634 84.8C284.238 84.188 284.598 83.972 284.202 83.36C283.842 82.748 283.842 82.748 283.446 82.136C283.086 81.524 282.762 81.74 282.366 81.128C282.006 80.48 282.15 80.408 281.79 79.796C281.394 79.184 281.466 79.148 281.106 78.536C280.818 78.068 280.602 77.456 280.71 76.952C280.818 76.448 281.214 75.908 281.718 75.62C282.186 75.332 282.762 75.656 283.23 75.764C283.734 75.908 284.058 76.088 284.346 76.556C284.742 77.204 284.886 77.096 285.282 77.744C285.678 78.392 285.678 78.356 286.074 79.004C286.47 79.652 286.722 79.508 287.082 80.156C287.478 80.768 287.298 80.912 287.658 81.524C288.054 82.172 287.838 82.316 288.234 82.928C288.63 83.576 288.666 83.504 289.314 83.936C289.89 84.332 289.278 83.468 289.638 82.784C289.818 82.388 290.358 82.064 290.538 81.668C290.898 80.984 290.97 81.092 291.294 80.48C291.582 79.832 291.33 79.724 291.618 79.076C291.942 78.464 292.194 78.572 292.482 77.96C292.806 77.312 292.446 77.168 292.77 76.52C293.022 76.016 293.526 75.656 293.994 75.476C294.498 75.332 294.93 75.656 295.434 75.908C295.938 76.124 296.622 76.268 296.802 76.736Z" fill="#FDD837"/>
<path d="M343.392 92.9392C344.125 93.0898 344.847 92.959 345.473 92.5656C345.49 92.5559 345.506 92.5451 345.521 92.5351C349.796 89.6531 354.281 87.0419 358.508 84.6149C359.363 84.1244 359.96 83.2703 360.104 82.3306C360.247 81.4059 359.943 80.5386 359.268 79.9515C359.251 79.9375 359.237 79.924 359.219 79.912C357.925 78.8846 355.911 76.9133 356.941 75.2519C358.007 73.5339 361.783 72.4057 364.156 73.0967C365.667 73.5369 365.701 74.4493 365.562 75.1943C365.559 75.2101 365.557 75.2258 365.554 75.2416C365.355 76.5356 366.187 77.5851 367.489 77.6806C368.129 77.7276 368.741 77.524 369.221 77.1529C372.076 77.3955 375.506 75.1639 378.584 73.1624C379.827 72.3534 381.002 71.5898 381.832 71.2089C381.885 71.1847 381.936 71.157 381.989 71.1266C382.785 70.6609 383.325 69.9492 383.51 69.1242C383.707 68.2484 383.478 67.3412 382.879 66.6334C382.41 66.0805 381.944 65.5241 381.477 64.9666C379.711 62.8592 377.9 60.6959 375.879 58.7047C381.42 56.382 384.486 50.6322 383.937 45.8051C383.482 41.7979 380.227 37.5889 372.552 38.9142C372.532 38.918 372.511 38.9217 372.491 38.9255C372.445 38.9348 368.919 39.72 366.413 41.4826C365.523 39.3932 364.875 37.6578 364.37 36.3061C363.161 33.0648 362.553 31.4379 360.86 30.9472C359.123 30.4438 357.439 31.4602 353.75 33.6869C352.779 34.2738 351.644 34.958 350.324 35.7284C349.863 34.143 349.058 32.6102 347.973 31.2729C346.342 29.2652 344.171 27.837 341.86 27.2551C341.84 27.2496 341.82 27.2452 341.799 27.2416C339.113 26.6773 336.475 27.116 334.227 28.4059C332.578 29.3521 331.137 30.7566 330.039 32.5589C327.637 36.5009 327.637 41.0612 329.857 44.3501C324.869 46.4152 321.395 48.5579 320.33 51.6778C319.349 54.5555 320.525 57.8284 324.264 62.6169C324.33 62.7218 324.412 62.8599 324.504 63.0157C325.256 64.2824 326.025 65.4618 327.113 66.019C327.723 66.6779 328.422 66.9594 329.194 66.8569C330.621 66.6671 331.287 65.391 331.991 64.0392C332.86 62.3731 333.554 61.1947 334.585 61.2169C334.78 61.2211 334.976 61.1904 335.164 61.1274C335.699 60.9479 337.264 61.4586 338.926 63.1223C340.66 64.8581 341.385 66.75 341.063 67.5059C341.045 67.5491 341.028 67.5935 341.014 67.6376C340.67 68.7045 338.57 69.266 334.775 69.3015C333.353 69.3159 332.168 70.1685 331.757 71.4761C331.48 72.3537 331.623 73.2523 332.086 73.9342C331.537 76.2876 332.936 78.7569 333.996 80.6293C334.196 80.9823 334.384 81.3152 334.529 81.5975C334.551 81.6414 334.575 81.6826 334.602 81.7235C334.799 82.0202 335.154 82.6527 335.568 83.3864C338.771 89.0754 341.079 92.4616 343.39 92.9338L343.392 92.9392ZM344.595 72.2027C344.639 72.1713 344.68 72.1383 344.721 72.1041C345.96 71.0255 346.876 69.4189 347.11 67.9132C347.128 67.8011 347.132 67.6903 347.123 67.5795C346.64 61.3634 342.718 56.8699 336.631 55.5581C336.482 55.5261 336.332 55.5146 336.184 55.5241C335.425 55.4622 334.702 55.4913 334.025 55.6097C333.73 55.5939 333.423 55.6585 333.142 55.8046C331.946 56.4261 330.347 57.2591 329.082 58.5702C329.006 58.4619 328.931 58.3541 328.855 58.2471C328.193 57.3089 327.567 56.4219 327.094 55.396C326.995 55.1813 326.844 55.0013 326.658 54.8648C326.236 54.1387 325.849 53.3895 325.953 53.0584C326.006 52.8866 326.306 52.4039 327.877 51.4743C328.028 51.4317 328.175 51.3658 328.314 51.2815C328.708 51.0381 329.126 50.7918 329.557 50.5494C329.679 50.4778 329.795 50.3956 329.896 50.3C330.393 50.029 330.877 49.7666 331.353 49.5075C333.183 48.5141 334.916 47.5731 336.777 46.5003C337.041 46.3492 337.259 46.1328 337.407 45.8782L337.415 45.8645C337.547 45.6362 337.771 45.2556 337.805 44.7543C337.82 44.5177 337.778 44.2847 337.681 44.0735C337.389 43.4426 336.862 42.6996 336.026 41.7331C335.922 41.6137 335.8 41.514 335.663 41.4356C334.062 39.8079 333.508 38.0984 334.061 36.4742C334.631 34.7956 336.37 33.3336 338.385 32.8377C339.371 32.5956 341.214 32.4042 342.544 33.8315C344.38 36.103 345.562 38.7227 345.707 40.8456C345.716 40.9695 345.741 41.09 345.781 41.2066C346.056 41.9967 346.785 42.5353 347.755 42.7021C348.2 42.9081 348.75 42.894 349.229 42.6396C351.855 41.2423 355.222 39.4267 358.627 37.4237C358.772 37.7142 358.885 38.1137 359.003 38.5276C359.178 39.1396 359.37 39.814 359.736 40.4355C359.756 40.5311 359.787 40.6262 359.828 40.7173C360.066 41.2459 360.321 41.7568 360.587 42.2351C360.695 42.4303 360.849 42.5915 361.032 42.7128C361.191 42.9994 361.349 43.2805 361.504 43.5527C361.64 43.7888 361.842 43.9802 362.092 44.1051C362.232 44.1751 362.389 44.6909 362.494 45.0322C362.739 45.8331 363.073 46.9236 364.185 47.5424C364.617 47.8687 365.166 48.0196 365.718 47.9793C365.83 48.0153 365.945 48.0449 366.067 48.0676C366.652 48.1774 367.277 47.954 367.677 47.4924C369.912 44.9201 372.585 43.722 375.012 44.2043C376.663 44.5328 377.891 45.6514 378.141 47.0548C378.456 48.812 377.306 50.7525 374.902 52.518C374.847 52.5591 374.794 52.6019 374.745 52.6474C373.161 53.6173 371.329 54.1507 369.153 54.2757C368.796 54.2954 368.448 54.4309 368.164 54.6565C367.969 54.8125 367.784 54.9718 367.597 55.1357C367.288 55.404 367.091 55.7667 367.042 56.1509C366.833 57.8305 367.914 58.6067 368.494 59.024C368.597 59.0969 368.695 59.1678 368.777 59.2352C369.35 59.8715 369.943 60.5524 370.581 61.3068C370.635 61.4295 370.709 61.5442 370.799 61.6493C371.134 62.0331 371.481 62.4144 371.817 62.785C372.811 63.8796 373.75 64.9116 374.468 66.0654C374.506 66.127 374.55 66.1849 374.597 66.2395L374.784 66.4726C375.194 66.9858 375.613 67.5093 376.035 68.0332C375.195 68.5322 374.341 69.0363 373.495 69.5266C373.426 69.5585 373.357 69.5947 373.291 69.6356C372.67 70.0217 371.956 70.3441 371.2 70.6851C370.96 70.7932 370.718 70.902 370.475 71.0146C370.309 70.6126 370.074 70.2971 369.891 70.0493C369.838 69.9804 369.788 69.9107 369.739 69.8414C369.637 69.6928 369.508 69.5689 369.36 69.4717C368.337 68.5195 366.885 67.8654 365.407 67.7044C365.374 67.7001 365.339 67.6977 365.306 67.6965C361.951 67.1426 357.963 67.5355 354.928 69.2767C353.409 70.1488 352.126 71.3604 351.285 72.96C351.05 73.1842 350.885 73.4689 350.815 73.7775C350.573 74.8528 350.578 75.8511 350.605 76.8635C350.611 77.0751 350.662 77.2732 350.752 77.449C350.977 78.8294 351.549 80.2276 352.416 81.5362C351.76 81.9188 351.116 82.2979 350.486 82.6687C350.248 82.7424 350.023 82.8682 349.831 83.0413C348.899 83.8789 347.35 84.9436 345.991 85.4316C345.873 85.4742 345.758 85.529 345.651 85.5967C345.313 85.8082 345.029 86.0164 344.792 86.2104C343.4 84.6103 342.233 82.6014 341.105 80.6577C340.811 80.1504 340.506 79.6267 340.203 79.1166C340.181 79.0789 340.157 79.0428 340.132 79.0085C339.939 78.6592 339.748 78.2938 339.55 77.9003C339.34 77.3585 339.059 76.8388 338.786 76.3364C338.434 75.6851 338.071 75.0161 337.955 74.4407C338.138 74.3579 338.307 74.2434 338.452 74.1021C338.877 73.692 339.698 73.5881 340.65 73.4669C341.834 73.3167 343.305 73.1296 344.594 72.2003L344.595 72.2027ZM351.008 73.9587C351.013 74.0419 351.026 74.1257 351.045 74.207C351.024 74.1234 351.012 74.0407 351.008 73.9587Z" fill="white"/>
<g clip-path="url(#clip0_1353_2367)">
<path d="M63.9882 85.3082C63.9341 85.0936 63.862 84.8969 63.7898 84.7003L63.6456 84.2086V84.1371L63.8169 84.0655L63.7357 83.6454L63.6095 83.5024C63.6095 83.2878 63.6276 83.0911 63.6366 82.8855L63.7808 82.7425C63.4563 82.519 63.1317 82.2776 62.8342 82.0273C62.735 81.9111 62.5547 81.7502 62.3834 81.5177L62.2662 81.3747C62.1941 81.2764 62.113 81.1959 62.0138 81.1244L61.7974 80.9546L61.6983 80.74C61.6983 80.74 61.7974 80.7579 61.8245 80.6953V80.6506C61.8065 80.597 61.7974 80.5701 61.7704 80.5344C61.7163 80.5076 61.6532 80.4808 61.5991 80.4539C61.4188 80.3824 61.554 80.6238 61.4458 80.5523C61.3286 80.4271 61.2295 80.2751 61.1664 80.1142C61.1123 79.998 61.0221 79.8997 60.941 79.8192C60.8238 79.6941 60.7967 79.5689 60.6886 79.4438C60.6074 79.3722 60.5353 79.2918 60.4632 79.2024L60.346 79.0325C60.2648 78.8627 60.2017 78.666 60.1657 78.5408L60.1386 78.4604C60.0575 78.3174 59.9854 78.1833 59.9403 78.0223L59.7149 77.8972C59.5616 77.772 59.4174 77.6469 59.2731 77.5038C59.1559 77.3787 59.0478 77.2625 58.9035 77.1641L58.6871 77.0211L58.588 76.8244C58.588 76.8244 58.7593 76.8512 58.7142 76.744C58.6691 76.6367 58.6691 76.6278 58.4888 76.5741C58.3085 76.5026 58.4437 76.744 58.3355 76.6725L58.3085 76.6456C58.2093 76.5294 58.1282 76.4043 58.0561 76.2702C58.002 76.1718 57.9118 76.0735 57.8307 75.993C57.7135 75.8679 57.6864 75.7517 57.5783 75.6265C57.5061 75.555 57.425 75.4745 57.3619 75.3851L57.3438 75.3583L57.2988 75.3136C57.1816 75.1885 57.0734 75.0723 56.9291 74.9739L56.7128 74.8309L56.6136 74.6342C56.6136 74.6342 56.7669 74.661 56.7398 74.5538C56.7098 74.4763 56.6346 74.4197 56.5144 74.3839C56.3341 74.3124 56.4694 74.5538 56.3612 74.4822C56.244 74.366 56.1448 74.2319 56.0817 74.071C56.0276 73.9727 55.9375 73.8743 55.8563 73.7939C55.7391 73.6687 55.7121 73.5525 55.6129 73.4452C55.5408 73.3737 55.4687 73.2933 55.3965 73.2039L55.2974 73.034C55.1982 72.8195 55.1261 72.5513 55.081 72.4708C55.0359 72.3904 54.8105 72.0507 54.9097 71.9613C55.0089 71.8719 54.9097 71.6484 54.6933 71.55L54.8466 71.4517L54.6212 71.112L54.468 70.7902V70.7455L54.6212 70.6292L54.522 70.3164L54.3958 70.2359C54.3778 70.0661 54.3778 69.8962 54.3958 69.7263C54.2696 69.6101 54.2516 69.7263 54.0713 69.6727C53.8549 69.628 53.6476 69.628 53.4312 69.6727C53.3771 69.476 53.2779 69.3062 53.1517 69.1363C53.0796 69.038 53.0525 68.9933 53.0345 68.9844C53.2328 68.8413 53.4582 68.7609 53.7016 68.7698L53.9992 68.2245L54.3688 67.7864C54.3688 67.7864 54.2967 68.0993 54.495 67.8669C54.6663 67.697 54.7745 67.4914 54.8376 67.2501C54.9818 66.8388 54.5581 67.4289 54.6843 67.1517C54.9097 66.7763 55.1712 66.4097 55.4326 66.0521C55.6129 65.784 55.7842 65.5068 55.9284 65.2118C56.1538 64.8006 56.3431 64.5503 56.5235 64.1748L56.8931 63.3613L57.1455 62.8517C57.4611 62.2617 57.7946 61.6002 57.9118 61.332C58.0651 60.8493 58.2544 60.3755 58.4798 59.9285C58.7502 59.553 58.8584 59.0882 58.8224 58.6322L59.0027 58.659C59.0568 58.2657 59.1469 57.8724 59.174 57.4611L59.3002 56.4063L59.3272 56.2632H59.5075L59.6247 55.3514L59.5706 54.9402L59.8141 53.6618L59.9854 53.4919C59.7329 52.7321 59.4625 51.8738 59.1379 50.962C59.0207 50.6134 58.8404 50.0323 58.624 49.3707L58.4798 48.9327C58.3806 48.6556 58.2814 48.3695 58.1552 48.1013L57.8758 47.5202L57.7045 46.957C57.7045 46.957 57.8487 47.1001 57.8577 47.0017C57.8758 46.9749 57.8758 46.9302 57.8577 46.9034C57.8397 46.8051 57.8036 46.6888 57.7586 46.6084C57.6864 46.4832 57.6143 46.367 57.5332 46.2597C57.2807 45.9111 57.5151 46.5995 57.3619 46.3134C57.1816 45.9022 57.0103 45.4999 56.866 45.0618C56.7488 44.7668 56.6226 44.4718 56.4694 44.1857C56.253 43.7745 56.1899 43.4974 55.9825 43.1309L55.5678 42.3978L55.3424 41.9151L54.8466 40.6903L54.7474 40.4758C54.5491 40.1093 54.3778 39.7338 54.2245 39.3494L53.8098 38.8577L52.9173 37.6151C52.6919 37.2665 52.4305 36.9267 52.169 36.6049L51.7543 36.1401L51.4749 35.6484C51.4749 35.6484 51.7453 35.8182 51.6011 35.5679C51.4568 35.3176 51.4568 35.3176 51.1323 35.0315C50.7897 34.7544 51.2044 35.3534 50.979 35.1299L50.9069 35.0315C50.6905 34.7812 50.384 34.3253 50.1947 34.0482C50.0144 33.78 49.798 33.5297 49.5726 33.3062C49.2571 32.9575 49.0858 32.6983 48.7883 32.3943L48.1482 31.7775L48.0941 31.7239L47.9769 31.6255C47.1655 30.9372 46.8951 30.7673 46.8951 30.7673C46.7147 30.6422 46.5254 30.517 46.3271 30.4187L45.8763 30.0074C45.8763 30.0074 46.1919 30.1058 45.9755 29.8912C45.8042 29.7124 45.5788 29.5694 45.3354 29.4979C44.9117 29.3459 45.5157 29.775 45.2182 29.6409C44.8215 29.3996 44.4339 29.1492 44.0823 28.8632C43.8118 28.6665 43.5323 28.5145 43.2348 28.3715C42.8111 28.1569 42.5857 27.9513 42.189 27.7904L41.3957 27.4507L40.8998 27.2004L39.4935 26.4673C39.223 26.3243 38.1862 26.0204 38.1862 25.8863C38.1862 25.7432 37.5371 25.4929 36.9962 25.4929L37.0413 25.3141L35.9324 25.0459L34.9227 24.8224L34.7965 24.7778L34.8235 24.599L33.9761 24.3576L33.5794 24.3755L32.4344 24C31.9656 24 32.209 24.0983 31.7493 24.1967C31.4247 24.2771 31.1092 24.4202 30.8387 24.6437H30.7125C30.5142 24.6437 30.3158 24.6705 30.1265 24.6884C29.7749 24.6884 29.4143 24.7062 29.0627 24.742L28.5759 24.7867C28.6209 24.6347 28.5218 24.3933 27.5571 24.4738L26.1056 24.6168C23.987 24.8403 21.8955 25.2605 19.849 25.8863C19.5064 26.0114 19.1278 26.1634 18.7131 26.3511C17.3517 26.9143 16.7567 26.6283 16.7567 26.6283L15.9183 27.1378C15.3774 27.3613 15.0979 27.5133 15.0979 27.5133C15.0979 27.5133 15.4405 27.1736 15.0258 27.3881C14.6832 27.5401 14.3767 27.7547 14.1062 28.0228C13.6104 28.4609 14.593 27.8977 14.2054 28.1748L12.4744 29.328C12.0507 29.5962 11.6631 29.9091 11.3115 30.2578C10.7886 30.7494 10.4009 30.9998 9.95013 31.4646L9.08466 32.439L8.51669 33.0291L6.91196 34.8438C6.54233 35.4338 6.11861 35.997 5.64981 36.5155C5.49655 36.4976 4.95563 37.3558 4.7032 38.08L4.54994 37.9995C4.29751 38.4822 4.00902 38.956 3.80166 39.4477L3.16157 40.744L3.0624 40.896L2.89111 40.8244C2.69277 41.191 2.47641 41.5575 2.30511 41.933L2.16087 42.4515L1.27736 43.9265L1.02493 44.0695C0.844626 45.1065 0.574165 46.2776 0.258628 47.5828C0.141428 48.0298 0.0783209 48.4857 0.0422595 48.9327C-0.0028173 49.478 -0.0118327 50.0323 0.0152134 50.5776L0.0422595 51.2838C0.114382 52.2672 0.186505 52.5801 0.186505 52.5801L0.330751 53.4562L0.348782 54.216C0.348782 54.216 0.249613 53.9747 0.222567 54.0909C0.204536 54.1356 0.195521 54.1713 0.195521 54.216C0.17749 54.3591 0.17749 54.511 0.195521 54.6541C0.222567 54.8508 0.276659 55.0296 0.321735 55.2173C0.474997 55.8073 0.420904 54.7703 0.502043 55.2173C0.583181 55.6643 0.619242 56.594 0.673334 57.1572C0.718411 57.6399 0.790534 58.1316 0.889703 58.6054C1.03395 59.2938 1.06099 59.7586 1.23229 60.3933L1.60192 61.6717L1.84533 62.4852C2.0617 63.2183 2.2961 63.9871 2.46739 64.4877L2.62065 64.8095C2.7649 65.1582 3.24271 66.1862 3.36893 66.5796L3.93689 67.3842C4.21637 67.7954 4.68517 68.5105 5.21707 69.3151C6.03747 70.522 6.28088 70.808 6.28088 70.808L6.83082 71.4964L7.25454 72.2116C7.25454 72.2116 6.91196 71.9344 7.12833 72.292C7.28159 72.6049 7.50697 72.882 7.77743 73.1055C8.2282 73.5436 7.62417 72.6586 7.93069 73.0072L8.04789 73.1502L9.13875 74.6253C9.45429 75.0365 9.77884 75.403 10.1485 75.7517C10.5722 76.2344 11.041 76.6635 11.5278 77.0926C11.9425 77.4144 12.222 77.6111 12.6728 77.9329L12.79 78.0045L12.9883 78.1296C13.5833 78.523 14.2234 78.8448 14.8996 79.0862L15.8191 79.408L16.6305 79.7745C16.6305 79.7745 16.1797 79.7298 16.5764 79.9176C16.892 80.0874 17.2436 80.1679 17.5861 80.1947C18.1992 80.293 17.2075 79.9176 17.6402 80.0248C18.073 80.1321 18.9475 80.4629 19.4523 80.6417C19.8941 80.7936 20.3358 80.9188 20.7866 81.0171C21.4357 81.187 21.8324 81.339 22.4454 81.4641L23.6805 81.7055L24.4649 81.8753C25.3754 82.0899 26.3941 82.3134 26.8088 82.3581C27.5211 82.4117 28.2243 82.5011 28.9275 82.6084C29.5675 82.7782 30.2347 82.7782 30.8567 82.6084L30.8748 82.7872C31.4427 82.7157 32.0197 82.671 32.5787 82.5637C33.0745 82.51 33.5704 82.4207 34.0662 82.3223L34.2465 82.2955L34.2916 82.4743C34.7333 82.4207 35.139 82.3223 35.5718 82.2329L36.0947 82.0184L37.7986 81.7412C38.4116 81.4641 38.051 81.5177 38.6099 81.178C39.0337 80.9099 39.4213 80.5433 39.7008 80.1232C39.7008 80.1232 39.9262 80.0516 40.3499 79.855L40.6023 80.3377L40.8277 80.5523C41.0802 80.8205 40.7015 81.1959 40.7015 81.1959L40.8998 81.339L40.999 81.5356C40.999 81.5356 40.8458 81.5177 40.8728 81.6161C40.8998 81.7144 40.9179 81.7144 41.0892 81.7859C41.2695 81.8396 41.1342 81.6161 41.2424 81.6876C41.3596 81.8038 41.4588 81.9379 41.5219 82.0809C41.576 82.1793 41.6481 82.2776 41.7383 82.3581C41.8555 82.4832 41.8825 82.5994 41.9817 82.7067C42.0538 82.7782 42.1259 82.8498 42.1981 82.9302L42.2972 83.1001C42.3964 83.3146 42.4685 83.5649 42.5136 83.6633C42.5587 83.7616 42.7841 84.0745 42.6849 84.1549C42.5857 84.2354 42.6849 84.4678 42.8832 84.5483L42.7119 84.6019L42.9373 84.9238L43.0906 85.2366V85.2813L42.9463 85.3797L43.0275 85.6926L43.1447 85.773C43.1627 85.9429 43.1627 86.1127 43.1447 86.2826L43.0185 86.4256C43.334 86.5418 43.6405 86.6938 43.929 86.8726C44.0823 86.9978 44.2265 87.1229 44.3708 87.2659L44.488 87.3822C44.5601 87.4537 44.6412 87.5252 44.7314 87.5967L44.9477 87.7219L45.0469 87.9185C45.0469 87.9185 44.9477 87.9185 44.9207 87.9632V88.0079C44.9207 88.0079 44.9477 88.0795 44.9748 88.1063C45.0289 88.1331 45.092 88.151 45.1461 88.1599C45.3264 88.2135 45.1912 87.9901 45.2993 88.0616C45.4256 88.1778 45.5157 88.3119 45.5788 88.4549C45.6329 88.5711 45.705 88.6516 45.8042 88.732C45.9214 88.8572 45.9484 88.9734 46.0476 89.0807C46.1197 89.1522 46.1919 89.2237 46.264 89.3042L46.3631 89.474C46.4353 89.626 46.4894 89.7869 46.5435 89.9389L46.5705 90.0194C46.6516 90.1445 46.7238 90.2965 46.7688 90.4395L46.9942 90.5647C47.1475 90.6898 47.2917 90.815 47.436 90.958C47.5532 91.0832 47.6614 91.1815 47.7876 91.2799L48.0039 91.405L48.1031 91.6017C48.1031 91.6017 47.9499 91.5838 47.9769 91.6821C48.022 91.7805 48.0039 91.7805 48.1933 91.8341C48.3826 91.8877 48.2383 91.6643 48.3465 91.7358L48.3736 91.7626C48.4727 91.8788 48.5539 92.004 48.617 92.1291C48.6711 92.2453 48.7432 92.3258 48.8424 92.4062C48.9596 92.5314 48.9866 92.6476 49.0858 92.7549C49.203 92.8711 49.3022 92.9784 49.3833 93.1035L49.4103 93.1482L49.4644 93.2019C49.6177 93.3986 49.807 93.5773 50.0054 93.7472L50.2848 93.9617L50.4832 94.2389C50.4832 94.2389 50.2848 94.2121 50.384 94.364C50.4832 94.5071 50.4832 94.516 50.7266 94.5786C50.97 94.6501 50.6725 94.3551 50.8257 94.4266C50.952 94.4981 51.0511 94.5786 51.1683 94.6769L51.4118 94.8736C51.556 94.9898 51.7093 95.0703 51.8805 95.115C52.0789 95.2133 52.2772 95.2938 52.4756 95.3653L52.9444 95.4457L53.2238 95.5173C53.5033 95.5977 53.7918 95.6692 54.0713 95.7318C54.2426 95.7586 54.8196 95.705 54.8556 95.8123C54.8917 95.9195 55.2793 95.9285 55.5498 95.7407L55.5768 95.9195C55.7932 95.8659 56.0006 95.8033 56.1989 95.7229C56.3972 95.6513 56.5685 95.6067 56.7669 95.5441L56.839 95.5262L56.9111 95.705C57.0824 95.6603 57.2537 95.6066 57.425 95.553L57.6053 95.3832L58.3716 95.258C58.588 95.0792 58.4437 95.0792 58.5249 94.8915C58.579 94.6769 58.579 94.4713 58.5429 94.2568C58.6962 94.2031 58.8584 94.1316 58.9937 94.0333C59.0387 94.0601 59.0658 94.0869 59.1379 94.078C59.3903 94.0064 59.6247 93.8634 59.787 93.6667C59.8321 93.8813 60.0394 94.0333 60.2558 93.9886C60.3099 93.9707 60.373 93.9618 60.4091 93.9171C60.5804 93.8366 60.7336 93.7383 60.8779 93.622C61.4999 93.1572 62.0409 92.5672 62.4375 91.8877L62.5637 91.4497C62.6629 91.1726 62.9604 90.9848 63.2579 91.0295L63.276 90.6898L63.4022 90.4127C63.4022 90.4127 63.4743 90.5915 63.5464 90.4574C63.6276 90.3144 63.6185 90.3144 63.5464 90.0819C63.4743 89.8495 63.3751 90.2071 63.3661 90.0372C63.3932 89.8138 63.4473 89.5903 63.5194 89.3757C63.5644 89.2237 63.5915 89.0539 63.5735 88.893C63.5735 88.6516 63.6456 88.5175 63.6456 88.3029L63.6276 87.8649L63.6456 87.5878C63.6726 87.2659 63.7628 86.8994 63.7628 86.7474C63.7628 86.5955 63.6907 86.0144 63.8079 85.9608C63.9251 85.9071 63.889 85.5138 63.6907 85.2277L64.0062 85.2098L63.9882 85.3082ZM42.1079 72.5066C41.7112 72.7211 41.3416 72.9536 40.9449 73.1502C40.2598 73.5972 39.5115 73.9816 38.7722 74.3303V74.3124L38.3936 74.4644C37.7986 74.8756 37.1404 75.1795 36.4463 75.3762C35.707 75.5997 35.0849 75.7249 35.0849 75.7249C35.0849 75.7249 36.5995 74.965 34.2014 75.7517C31.7853 76.4579 30.0724 76.8066 30.0724 76.8066C29.5044 76.8602 28.9365 76.8781 28.3685 76.8334C27.1334 76.7619 25.9163 76.5562 24.7353 76.1987C22.2561 75.4388 20.0113 74.8219 20.0113 74.8219C18.9204 74.4822 17.8566 74.08 16.8469 73.5704C15.9814 73.1055 15.1881 72.4887 14.5209 71.7735C14.1242 71.407 13.7546 71.0315 13.385 70.6203L13.5292 70.5041L13.4751 70.3879L12.9522 69.5744L12.3122 68.6357L12.4654 68.5374C12.0868 68.1619 11.7171 67.5004 11.7983 67.402C11.8794 67.3037 11.2483 66.3025 11.1131 66.0521L10.4009 64.5592L10.1485 64.0765L9.70672 63.3434C9.49035 62.9948 9.40921 62.7087 9.21087 62.3154C9.05761 62.0472 8.9314 61.779 8.83223 61.484C8.70602 61.1443 8.55275 60.5811 8.40851 60.3129C8.26426 60.0626 8.4626 60.6884 8.23722 60.3665C8.01183 60.0447 8.01183 60.0268 7.95774 59.7586C7.90365 59.4904 8.10199 59.7139 8.10199 59.7139L7.98479 59.1954L7.76842 58.659C7.62417 58.2836 7.51599 57.8724 7.44387 57.479L7.12833 55.9325L6.90294 55.0295V52.6337C6.90294 51.847 6.90294 51.0693 6.94802 50.4346H6.74968C6.76771 50.2111 6.79476 49.9876 6.83082 49.773C6.8759 49.5942 6.92999 49.4065 7.02916 49.2367L7.76842 47.4755L7.94872 47.1001C8.09297 46.3849 8.27328 45.6787 8.48965 44.9724C8.61586 44.5255 8.76912 44.0695 8.95844 43.6315C8.95844 43.6315 8.73306 44.3467 8.90435 44.1768V44.15L9.18383 43.3633C9.30103 42.9521 9.35512 42.8001 9.40921 42.8448L9.4633 42.8716L9.64361 42.3263C9.68869 42.0581 9.76081 41.8078 9.85998 41.5664L10.2386 40.7797C10.482 40.2344 10.7525 39.698 11.059 39.1795L11.4287 38.7594C11.6811 38.4465 11.5819 38.3124 11.5819 38.3124L11.0951 38.9203C11.5639 38.1336 12.1048 37.3827 12.6818 36.6854C12.826 36.6049 12.9613 36.5423 13.1055 36.4619C13.1055 36.4619 13.0244 36.7122 13.1866 36.5423C13.403 36.3635 13.5653 36.1311 13.7005 35.8808L13.6554 35.8361V35.6841C14.1242 35.2193 14.6381 34.7812 15.161 34.3789C15.2782 34.3342 15.3774 34.3074 15.4856 34.2985L15.9814 34.0571L16.7207 33.5923C16.8649 33.5386 17.0182 33.4939 17.1714 33.4939L17.8836 33.1185C18.0099 33.038 18.1361 32.9397 18.2623 32.8681L18.4606 32.8145L18.7852 32.6983C19.0647 32.5999 19.1278 32.4837 19.1368 32.448V32.4212L18.4246 32.6715C19.0647 32.2334 19.7408 31.8401 20.453 31.5183H20.9399C20.9399 31.5183 20.7415 31.7149 20.9849 31.6345C21.2644 31.554 21.5349 31.4378 21.7963 31.2858L21.7783 31.2322L21.8053 31.1785L21.8504 31.0981C22.3372 30.9461 22.7429 30.7494 23.2298 30.6064C23.2117 30.7226 23.2117 30.8478 23.2298 30.9551C23.2568 31.2232 23.1306 31.1964 23.6535 31.2679C23.9329 31.1964 24.2395 31.1428 24.537 31.116C24.7173 31.2143 25.0328 30.8388 25.0509 31.0891C25.8172 30.8746 26.5835 30.7137 27.3678 30.5796C27.6473 30.5528 27.9358 30.5528 28.2152 30.5617C28.7291 30.5081 29.252 30.4902 29.7749 30.5081H30.0273C30.7756 30.4097 31.5419 30.4634 32.2722 30.7047C32.2722 30.7047 31.1813 30.821 32.795 31.0176C34.4088 31.1964 35.68 31.2948 35.68 31.2948C36.861 31.5719 37.9789 32.0368 39.0156 32.6625C40.422 33.5476 41.6121 34.1644 41.6121 34.1644C42.8652 34.9958 43.9831 35.997 44.9477 37.1324L45.7591 37.9459L45.6149 38.0621L45.6419 38.1425L45.9845 38.7057L46.4082 39.3226L46.255 39.4209C46.5344 39.6444 46.7508 40.0646 46.6697 40.154C46.5885 40.2523 46.9672 40.8691 47.0663 41.0569L47.5351 42.0939L47.7155 42.4336L48.058 42.9253C48.2293 43.1756 48.2834 43.3722 48.4547 43.6404C48.5809 43.8192 48.7071 44.0159 48.7973 44.2215C48.9145 44.5165 49.0497 44.8026 49.221 45.0529C49.3653 45.2227 49.1489 44.7758 49.3923 44.9724C49.6357 45.1691 49.6177 45.187 49.6898 45.3837C49.7619 45.5803 49.5456 45.4552 49.5456 45.4552L49.6898 45.8306L49.9693 46.1793C50.1406 46.4296 50.2938 46.6888 50.4381 46.957L50.979 47.8957L51.3486 48.4053C51.574 49.3171 51.8174 50.2737 51.9707 51.266L52.151 51.2213C52.2953 51.9811 52.3944 52.7589 52.4305 53.5456V53.7959C52.6559 54.4753 52.7821 55.1905 52.8091 55.9056C52.8091 55.9056 52.71 55.4587 52.6378 55.5838V55.6106C52.6649 55.7805 52.6829 55.9325 52.6919 56.1023C52.737 56.3526 52.737 56.442 52.6649 56.442H52.5928L52.6198 56.7817C52.6739 56.9337 52.7009 57.0946 52.7009 57.2466L52.6559 57.7651C52.6559 58.1316 52.5747 58.4713 52.5297 58.82L52.3764 59.115C52.2592 59.3295 52.3944 59.3921 52.3944 59.3921L52.6108 58.9719C52.4846 59.5173 52.2952 60.0536 52.0609 60.5721L51.7814 60.7688C51.7814 60.7688 51.7543 60.59 51.6822 60.7241C51.583 60.8761 51.5289 61.0638 51.5109 61.2426L51.565 61.2694L51.6371 61.3856C51.4208 61.779 51.1864 62.1723 50.9249 62.5389L50.6995 62.664L50.4201 62.9411L50.0234 63.4328C49.9422 63.5133 49.825 63.5759 49.7259 63.6027L49.3562 64.0497L49.185 64.3447L49.0678 64.443L48.8875 64.6129C48.7342 64.7648 48.7432 64.8632 48.7702 64.9079V64.9347L49.1489 64.5592C48.7973 65.0777 48.7522 65.4979 48.3375 66.0253L48.1121 66.1237L47.9949 66.1773C47.9949 66.1773 48.022 65.9627 47.9138 66.1058C47.7695 66.2488 47.6614 66.4276 47.5892 66.6243L47.6343 66.669L47.6523 66.7226L47.6794 66.8031C47.3999 67.116 47.2647 67.4825 46.9852 67.7596L46.841 67.9116L46.6426 68.4748L46.3181 68.6983L46.0747 69.3419C45.9755 69.3956 45.8583 69.4403 45.7321 69.4671C45.5067 69.6459 45.5067 69.9856 45.3805 70.1018L45.1641 70.2806C45.1641 70.2806 45.119 70.2806 45.11 70.2538C44.1454 71.0137 43.1266 71.7735 42.0718 72.4798L42.1079 72.5066ZM58.002 87.8738H58.0561L58.1733 87.9007C58.1552 88.0258 58.1282 88.151 58.0921 88.2672L57.9479 88.3119L57.8487 88.3923L57.7676 88.5354C57.7135 88.5622 57.6504 88.5801 57.5963 88.5801L57.5242 88.7052V88.732L56.839 89.0539L56.4603 89.1522L55.8203 89.4293L55.7031 89.474C55.5768 89.8138 54.8105 89.8495 54.9548 89.7512C54.9548 89.7512 54.9007 89.5366 54.8015 89.5366C54.7024 89.5366 54.7204 89.8495 54.7204 89.8495C54.7204 89.8495 54.5401 90.0015 54.477 89.7333C54.4589 89.5366 54.3778 89.6081 54.3327 89.635C54.2876 89.6618 54.3057 89.635 54.3057 89.635C54.2606 89.6171 54.2245 89.5903 54.1795 89.5634L54.1073 89.5098L53.7918 89.0986L53.3951 88.7589L53.5394 88.6605V88.6158L53.4132 88.3476L53.2329 88.0795L53.3861 87.9811C53.2148 87.9275 53.1337 87.7308 53.2329 87.6593C53.332 87.5788 53.1517 87.3196 53.1157 87.2391C53.0706 87.1587 53.0435 86.962 52.9624 86.7743L52.8812 86.6312C52.8272 86.5597 52.7641 86.5061 52.7009 86.4524C52.6198 86.372 52.6018 86.2736 52.5026 86.1753C52.4305 86.1217 52.3584 86.0323 52.3223 85.9518C52.2682 85.8535 52.1781 85.6747 52.0969 85.63C51.9977 85.5853 52.1149 85.773 51.9437 85.7283C51.7724 85.6836 51.7724 85.6836 51.7453 85.6032C51.7183 85.5227 51.8715 85.5227 51.8715 85.5227L51.7994 85.3707L51.6191 85.2724C51.5019 85.2009 51.4027 85.1204 51.3036 85.0221C51.1864 84.9059 51.0602 84.8075 50.9249 84.7092L50.6454 84.584C50.4922 84.1907 50.3209 83.7795 50.1226 83.3772L49.9693 83.4934L49.4734 82.519L49.4284 82.4028C49.1128 82.2329 48.8334 81.9916 48.608 81.7234C48.608 81.7234 48.8063 81.8485 48.8334 81.7502L48.635 81.5982C48.5178 81.5267 48.4908 81.4999 48.5359 81.4552L48.5899 81.4105L48.4457 81.2943C48.3646 81.2764 48.2744 81.2406 48.1933 81.1959L48.013 81.0171L47.6163 80.6506C47.6163 80.597 47.5983 80.5255 47.5892 80.4718C47.5442 80.3467 47.4179 80.4182 47.4179 80.4182L47.4901 80.6417C47.3098 80.4271 47.1385 80.2215 46.9762 79.998L47.0303 79.7835C47.0303 79.7835 47.1565 79.7835 47.1295 79.7119C47.0844 79.6315 47.0032 79.56 46.9131 79.5421L46.868 79.5689L46.7508 79.6136L46.4353 79.0951L46.4804 78.9521L46.4533 78.7733L46.3361 78.523C46.3361 78.4515 46.3541 78.3799 46.3812 78.3263L46.264 78.1028L46.1468 78.0045V77.9329L46.1197 77.8167C46.0927 77.7363 46.0206 77.7452 45.9755 77.7631H45.9484L46.0206 78.0045C45.8493 77.8078 45.5788 77.8078 45.4075 77.5664L45.4526 77.4234L45.4706 77.3519C45.4706 77.3519 45.5968 77.3519 45.5698 77.2804C45.5247 77.1999 45.4526 77.1284 45.3534 77.1105L45.3084 77.1373L45.2633 77.1552L45.1912 77.182C45.11 77.039 44.9477 76.9853 44.8486 76.8602C45.1641 76.5384 45.5337 76.2434 45.9124 76.0199C46.6336 75.5371 47.2917 74.9829 47.8597 74.3303L48.2834 73.7134L48.9055 73.2307C48.9596 73.4095 48.9866 73.5704 48.9866 73.5704C48.9866 73.5704 48.4998 73.2575 48.9145 73.9369C49.1579 74.3481 49.5005 74.6789 49.8972 74.9382C50.2488 75.3851 50.5463 75.8768 50.7446 76.4132C50.8979 76.8781 51.1864 77.2893 51.565 77.6111L52.8993 79.3454L53.314 79.6941L53.1607 79.7924V79.8371L53.2869 80.1142L53.4672 80.3914L53.314 80.4897C53.4853 80.5612 53.5664 80.74 53.4672 80.8294C53.3681 80.9188 53.5484 81.1691 53.5935 81.2496C53.6385 81.4194 53.6926 81.5714 53.7648 81.7412L53.8459 81.8932C53.9 81.9647 53.9721 82.0362 54.0262 82.0899C54.1254 82.1882 54.1434 82.2866 54.2426 82.3849C54.3147 82.4564 54.3868 82.5279 54.4229 82.6084C54.477 82.7067 54.5491 82.8855 54.6483 82.9302C54.7474 82.9749 54.6302 82.7872 54.8015 82.8319C54.9728 82.8766 54.9728 82.8766 54.9818 82.957C54.9908 83.0375 54.8556 83.0375 54.8556 83.0375L54.9277 83.1895L55.108 83.2878C55.2252 83.3593 55.3244 83.4398 55.4056 83.5381C55.5228 83.6543 55.649 83.7527 55.7752 83.851L56.0456 83.9762L56.4694 85.1472L56.6407 85.0489L56.9832 85.9518L57.0103 86.0502C57.2537 86.1932 57.4611 86.3899 57.6233 86.6133C57.6233 86.6133 57.4791 86.515 57.425 86.5865L57.5512 86.7117C57.6323 86.7653 57.6504 86.7832 57.5963 86.81L57.5422 86.8368L57.6143 86.9084C57.6864 86.9262 57.7405 86.9352 57.7946 86.962L57.8487 87.0335C57.9028 87.0603 57.9479 87.1319 58.002 87.2034C57.9749 87.2302 57.9569 87.257 57.9299 87.2838C57.8848 87.3375 58.0471 87.3375 58.0471 87.3375L58.1192 87.2123C58.1643 87.3553 58.1913 87.5073 58.1913 87.6504L58.02 87.7219C58.02 87.7219 57.9208 87.6772 57.9028 87.7219C57.9028 87.7755 57.9299 87.8381 57.9839 87.8649L58.002 87.8738Z" fill="white"/>
<path d="M39.8878 66.8C39.7886 66.2821 39.5452 65.7909 39.1936 65.398C38.9501 65.0587 38.869 65.2284 38.7788 64.7908C38.7247 64.5497 38.9321 64.9158 38.6797 64.1122C38.6075 63.8711 38.6796 63.9157 38.4001 63.7371C38.2559 63.7193 38.1297 63.6835 38.0034 63.6389C37.8772 63.496 37.8321 63.7818 37.76 63.5407L36.8674 63.6835L36.5248 63.6568L35.9567 63.7103H35.8576C35.7043 63.9872 35.0371 63.7639 35.0371 63.7639C35.0371 63.7639 35.3527 63.4514 34.7846 63.5496C34.433 63.621 34.0994 63.7728 33.847 63.9961C33.4322 64.1211 33.0084 64.139 32.5847 64.0497C32.2421 63.9514 31.8634 63.9782 31.5388 64.1032C31.0159 64.1568 30.4929 64.1747 29.961 64.1747L29.5642 64.2908L29.5913 64.1122L29.5642 64.0854L29.3659 64.005L29.1224 63.9604L29.1495 63.7818C29.0233 63.8621 28.879 63.8086 28.9061 63.6835C28.9241 63.5585 28.7077 63.5139 28.6536 63.4871L28.3741 63.2728L28.2749 63.2281H28.0946C28.0135 63.2281 27.9503 63.1746 27.8692 63.1746C27.7971 63.1746 27.7249 63.1746 27.6708 63.1478C27.5987 63.1031 27.4905 63.0317 27.4003 63.0674C27.3282 63.0942 27.4544 63.1478 27.3463 63.2371C27.2381 63.3264 27.22 63.3174 27.1749 63.2639C27.1299 63.2103 27.22 63.121 27.22 63.121L27.1208 63.0495L26.9676 63.0942C26.8684 63.112 26.7872 63.112 26.6881 63.0942C26.5618 63.0763 26.4446 63.0763 26.3184 63.0942L26.075 63.1656L25.3537 62.5227L25.2545 62.6924C25.0381 62.5406 24.8578 62.3441 24.6594 62.1744L24.6053 62.103C24.3348 62.103 24.0643 62.0494 23.8209 61.9333C23.8209 61.9333 24.0012 61.9512 24.0012 61.8619L23.8209 61.8083C23.7217 61.8083 23.6766 61.7905 23.7217 61.7369L23.7668 61.6833L23.6406 61.6565C23.5685 61.6833 23.4873 61.6833 23.4152 61.6744L23.2439 61.594L22.8742 61.4422C22.8742 61.4422 22.8562 61.344 22.8291 61.2993C22.784 61.219 22.6849 61.2993 22.6849 61.2993L22.757 61.469C22.5857 61.3529 22.4324 61.2279 22.2881 61.0939L22.3332 60.9154C22.3332 60.9154 22.4504 60.8707 22.4144 60.835C22.3693 60.7814 22.2972 60.7546 22.234 60.7635L22.207 60.8171L22.1078 60.8886C22.0086 60.7725 21.9275 60.6653 21.8373 60.5403L21.8824 60.3974L21.8644 60.2546L21.7832 60.076C21.8013 60.0224 21.8103 59.9599 21.8373 59.9063L21.7562 59.7545L21.675 59.7009V59.558C21.675 59.4866 21.5939 59.5134 21.5578 59.5313H21.5308L21.5578 59.7009C21.4136 59.5759 21.1882 59.6027 21.071 59.4509L21.1251 59.3348L21.1521 59.2812C21.1521 59.2812 21.2783 59.2634 21.2513 59.2098C21.2242 59.1562 21.1521 59.1116 21.08 59.1116L21.0349 59.1383L20.9898 59.1562L20.9177 59.183C20.8636 59.0669 20.6923 59.0401 20.6382 58.933L20.6111 58.8794L20.3316 58.8615L20.3587 58.7365H20.0431C20.0431 58.7365 20.1152 58.6561 20.1603 58.6115C20.1603 58.5579 19.9169 58.6115 19.9169 58.5847V58.5311C19.6644 58.5847 20.0702 58.4508 19.8357 58.5043C19.8357 58.5043 19.9079 58.4597 19.5382 58.424C19.1685 58.3883 19.0964 58.3525 19.0964 58.3525C19.0153 58.3347 18.9251 58.3257 18.8439 58.3079C18.6276 58.2811 18.4022 58.3615 18.4022 58.4865C18.3841 58.6294 18.0325 58.5847 18.0325 58.5847C17.9333 58.6294 17.8792 58.7276 17.9063 58.8347C17.9513 59.0133 17.6268 58.8347 17.4645 58.6651C17.3022 58.4954 16.8964 58.6651 16.7792 58.6829C16.662 58.7008 15.9948 58.4061 15.9317 58.7633C15.8866 59.0044 15.9137 59.2544 16.0129 59.4777C15.7965 59.433 15.5711 59.5759 15.526 59.7902C15.5079 59.8349 15.5079 59.8884 15.526 59.942L15.6071 60.4599C15.7604 61.0672 15.9858 61.6565 16.2924 62.2012L16.5178 62.4423C16.7973 62.7191 16.4186 63.1299 16.4186 63.1299L16.644 63.2817L16.7612 63.496C16.7612 63.496 16.5899 63.4782 16.644 63.5943C16.6981 63.7103 16.6891 63.7103 16.8874 63.7639C17.0858 63.8175 16.9145 63.5853 17.0317 63.6478C17.1579 63.7728 17.2841 63.8979 17.3743 64.0586C17.4554 64.1747 17.5456 64.255 17.6538 64.3354C17.7981 64.4515 17.8341 64.5765 17.9694 64.6747C18.0686 64.7462 18.1497 64.8176 18.2399 64.8891L18.3841 65.0409L18.7358 65.5766C18.8079 65.657 19.1144 65.9428 19.0513 66.0588C18.9792 66.1571 19.1685 66.3714 19.3939 66.4071L19.2767 66.55L19.6193 66.8268L19.8988 67.1036L19.9259 67.1483L19.8087 67.2911L20.0251 67.568L20.1783 67.6126C20.2595 67.7823 20.3497 67.9519 20.4038 68.1216L20.3497 68.3002C20.7283 68.318 21.116 68.3538 21.4857 68.4252L22.1259 68.6217L22.2972 68.6752C22.4144 68.7199 22.5226 68.7467 22.6398 68.7735L22.9193 68.8002L23.1176 68.9253C23.1176 68.9253 23.0185 68.9699 23.0365 69.0235C23.0365 69.0413 23.0545 69.0503 23.0635 69.0681C23.1086 69.1128 23.1357 69.1217 23.1808 69.1217C23.2349 69.1217 23.307 69.1217 23.3611 69.1039C23.5594 69.0592 23.307 68.9342 23.4332 68.9342C23.6045 68.9788 23.7758 69.0503 23.9291 69.1485C24.0463 69.2021 24.1725 69.2467 24.2988 69.2735C24.4791 69.3182 24.5783 69.3985 24.7406 69.4432C24.8578 69.461 24.966 69.4878 25.0832 69.5146L25.2815 69.595C25.4528 69.6754 25.6061 69.7736 25.7684 69.8718L25.8496 69.9165C26.0209 69.97 26.1741 70.0415 26.3184 70.1397L26.5979 70.095H27.2471C27.4184 70.1129 27.5987 70.1129 27.77 70.095L28.0225 70.0504L28.2479 70.1218C28.2479 70.1218 28.1216 70.2201 28.2208 70.2736C28.299 70.3034 28.3921 70.2885 28.5003 70.229C28.6716 70.1486 28.4011 70.0772 28.5274 70.0504H28.5725C28.7257 70.0504 28.888 70.0772 29.0413 70.1218C29.1675 70.1397 29.2938 70.1397 29.42 70.1218C29.6003 70.1218 29.6995 70.1754 29.8708 70.1486C29.997 70.1486 30.0692 70.1218 30.1954 70.1218H30.2765C30.4478 70.1218 30.6191 70.095 30.7905 70.0415L31.0339 69.9611L31.2593 69.9879C31.2593 69.9879 31.1421 70.1129 31.2593 70.1397C31.3765 70.1665 31.3765 70.1665 31.5388 70.0593C31.7101 69.9343 31.4126 69.9343 31.5388 69.8807C31.7101 69.8361 31.8814 69.8361 32.0527 69.8629C32.1789 69.8807 32.2962 69.8629 32.4224 69.8182C32.5937 69.7736 32.7019 69.8182 32.8642 69.7914L33.1798 69.72L33.3781 69.7021C33.6215 69.7021 33.892 69.7736 33.9912 69.7736C34.0904 69.7736 34.5051 69.7021 34.5322 69.8272C34.5773 69.9522 34.8297 69.9522 35.001 69.8004L35.0281 69.979L35.4428 69.8986L35.8215 69.8718H35.8756L35.9207 70.0504L36.2633 70.0683L36.3895 69.9879L36.8854 70.1576C37.0387 70.0772 36.9305 70.0325 37.0567 69.8807C37.1739 69.7021 37.2371 69.4878 37.2551 69.2735C37.4715 69.2735 37.6698 69.2289 37.8502 69.1574C38.2649 69.0146 37.8502 69.1574 38.292 68.8806C38.7337 68.6038 38.4903 68.4163 38.9321 68.3448C39.1575 68.318 39.3739 68.2198 39.5272 68.068C39.5723 67.9519 39.6264 67.8537 39.6805 67.7465C39.7345 67.6662 39.7977 67.5501 39.8067 67.4519C39.8067 67.4519 39.9509 67.3358 39.7796 67.0322C39.7075 66.7107 40.0231 67.0054 39.8968 66.8357L39.8878 66.8Z" fill="white"/>
</g>
<defs>
<clipPath id="clip0_1353_2367">
<rect width="64.0062" height="71.9195" fill="white" transform="translate(0 24)"/>
</clipPath>
</defs>
</svg>
